<svg width="32" height="32" viewBox="0 0 32 32" fill="none" xmlns="http://www.w3.org/2000/svg">
<path d="M6.66667 4V22.6667M6.66667 22.6667C6.13925 22.6667 5.62368 22.8231 5.18515 23.1161C4.74662 23.4091 4.40482 23.8256 4.20299 24.3128C4.00116 24.8001 3.94835 25.3363 4.05124 25.8536C4.15413 26.3709 4.40811 26.846 4.78105 27.2189C5.15399 27.5919 5.62914 27.8459 6.14643 27.9488C6.66371 28.0517 7.19989 27.9988 7.68716 27.797C8.17443 27.5952 8.5909 27.2534 8.88392 26.8149C9.17694 26.3763 9.33333 25.8607 9.33333 25.3333C9.33333 24.6261 9.05238 23.9478 8.55229 23.4477C8.05219 22.9476 7.37391 22.6667 6.66667 22.6667ZM16 9.33333V28M25.3333 18.6667V28M25.3333 13.3333V4M25.3333 13.3333C24.8059 13.3333 24.2903 13.4897 23.8518 13.7827C23.4133 14.0758 23.0715 14.4922 22.8697 14.9795C22.6678 15.4668 22.615 16.003 22.7179 16.5202C22.8208 17.0375 23.0748 17.5127 23.4477 17.8856C23.8207 18.2586 24.2958 18.5125 24.8131 18.6154C25.3304 18.7183 25.8666 18.6655 26.3538 18.4637C26.8411 18.2618 27.2576 17.9201 27.5506 17.4815C27.8436 17.043 28 16.5274 28 16C28 15.2928 27.719 14.6145 27.219 14.1144C26.7189 13.6143 26.0406 13.3333 25.3333 13.3333ZM16 4C15.4726 4 14.957 4.1564 14.5185 4.44941C14.08 4.74243 13.7382 5.15891 13.5363 5.64618C13.3345 6.13345 13.2817 6.66962 13.3846 7.18691C13.4875 7.70419 13.7414 8.17934 14.1144 8.55228C14.4873 8.92522 14.9625 9.1792 15.4798 9.28209C15.997 9.38499 16.5332 9.33218 17.0205 9.13035C17.5078 8.92851 17.9242 8.58672 18.2173 8.14819C18.5103 7.70966 18.6667 7.19408 18.6667 6.66667C18.6667 5.95942 18.3857 5.28115 17.8856 4.78105C17.3855 4.28095 16.7072 4 16 4Z" stroke="#4C3B3C" stroke-width="2" stroke-linecap="round" stroke-linejoin="round"/>
</svg>
