<svg width="32" height="32" fill="none" xmlns="http://www.w3.org/2000/svg"><path d="M25.334 5.333V28l-3.107-1.333L19.12 28 16 26.667 12.894 28l-3.107-1.333L6.667 28V5.333A1.333 1.333 0 018 4h16a1.333 1.333 0 011.334 1.333z" stroke="#4C3B3C" stroke-width="2" stroke-linecap="round" stroke-linejoin="round"/><path d="M13.862 21.126c-.288 0-.516-.084-.684-.252-.168-.168-.252-.408-.252-.72v-1.746H11.9c-.228 0-.408-.054-.54-.162a.657.657 0 01-.18-.486c0-.216.06-.378.18-.486.132-.12.312-.18.54-.18h1.026v-1.458H11.9c-.228 0-.408-.054-.54-.162-.12-.12-.18-.288-.18-.504 0-.204.06-.36.18-.468.132-.12.312-.18.54-.18h1.026V9.246c0-.3.078-.528.234-.684.168-.168.402-.252.702-.252h3.276c.912 0 1.686.156 2.322.468.636.3 1.116.726 1.44 1.278.324.552.486 1.212.486 1.98 0 .732-.168 1.368-.504 1.908-.336.528-.81.942-1.422 1.242-.612.3-1.344.45-2.196.45h-2.448v1.458h2.448c.228 0 .402.06.522.18.132.108.198.27.198.486a.624.624 0 01-.198.486c-.12.108-.294.162-.522.162h-2.448v1.746c0 .312-.084.552-.252.72-.156.168-.39.252-.702.252zm.918-6.804h2.178c.852 0 1.5-.174 1.944-.522.456-.36.684-.912.684-1.656 0-.756-.222-1.32-.666-1.692-.444-.372-1.104-.558-1.98-.558h-2.16v4.428z" fill="#4C3B3C"/></svg>