<svg width="32" height="32" viewBox="0 0 32 32" fill="none" xmlns="http://www.w3.org/2000/svg">
<path d="M28 28L21.0667 21.0667M24 14C24 15.9778 23.4135 17.9112 22.3147 19.5557C21.2159 21.2002 19.6541 22.4819 17.8268 23.2388C15.9996 23.9957 13.9889 24.1937 12.0491 23.8079C10.1093 23.422 8.32746 22.4696 6.92894 21.0711C5.53041 19.6725 4.578 17.8907 4.19215 15.9509C3.8063 14.0111 4.00433 12.0004 4.76121 10.1732C5.51809 8.3459 6.79981 6.78412 8.4443 5.6853C10.0888 4.58649 12.0222 4 14 4C16.6522 4 19.1957 5.05357 21.0711 6.92893C22.9464 8.8043 24 11.3478 24 14Z" stroke="#4C3B3C" stroke-width="2" stroke-linecap="round" stroke-linejoin="round"/>
</svg>
