<svg width="32" height="32" fill="none" xmlns="http://www.w3.org/2000/svg"><path fill-rule="evenodd" clip-rule="evenodd" d="M32 16c0-8.837-7.163-16-16-16S0 7.163 0 16s7.163 16 16 16 16-7.163 16-16zM9.12 9.12C8 10.25 8 12.059 8 15.68v.64c0 3.616 0 5.424 1.12 6.56C10.25 24 12.059 24 15.68 24h.64c3.616 0 5.424 0 6.56-1.12C24 21.75 24 19.941 24 16.32v-.64c0-3.616 0-5.424-1.12-6.56C21.75 8 19.941 8 16.32 8h-.64c-3.616 0-5.424 0-6.56 1.12z" fill="#fff"/><path d="M16.512 19.525c-3.648 0-5.728-2.496-5.813-6.656h1.834c.059 3.051 1.403 4.342 2.47 4.608V12.87h1.722v2.63c1.051-.112 2.16-1.312 2.534-2.635h1.717a5.081 5.081 0 01-2.336 3.323 5.265 5.265 0 012.736 3.338h-1.893c-.406-1.264-1.419-2.245-2.758-2.378v2.378h-.213z" fill="#fff"/></svg>