<svg width="118" height="31" viewBox="0 0 118 31" fill="none" xmlns="http://www.w3.org/2000/svg">
<path d="M54.7589 26.1379C53.9808 26.1379 53.2027 25.953 52.3789 25.537C51.7381 25.1671 51.2347 24.7048 50.8228 24.1039C50.4108 23.4567 50.182 22.7632 50.1362 21.9774V21.5151C50.1362 20.2207 50.3651 18.9263 50.8228 17.6781C51.372 16.1988 52.2416 15.1355 53.4316 14.4883C54.2554 14.0723 55.0792 13.8411 55.9489 13.8411C56.5896 13.8411 57.1846 13.9798 57.7796 14.211C58.5119 14.5346 59.0611 15.0431 59.4273 15.6903C59.6561 16.0601 59.7477 16.4299 59.7477 16.846C59.7477 17.1696 59.7019 17.5394 59.5646 17.863C59.1527 18.8338 58.5119 19.5735 57.5965 20.0358C56.4523 20.683 55.1708 21.0528 53.7977 21.099H53.3858C53.3858 21.3302 53.34 21.5613 53.34 21.7924V22.0236C53.3858 23.2255 53.6604 23.9652 54.1639 24.1963C54.3927 24.2888 54.6216 24.3812 54.8962 24.3812H54.9419C55.72 24.335 56.3608 23.7803 56.91 22.717L57.2304 22.1623C57.4592 21.8849 57.7338 21.7462 58.1 21.7462C58.4204 21.7462 58.6492 21.8387 58.9238 21.9774C59.1527 22.116 59.29 22.3472 59.29 22.5783V22.7632C59.1527 23.4567 58.878 24.0576 58.4204 24.5662C57.5508 25.6294 56.4065 26.1842 54.9877 26.2304H54.7589V26.1379ZM53.7062 19.3886L54.0266 19.3423C54.7589 19.2499 55.4454 19.0187 56.0862 18.6027C56.5896 18.2791 57.0015 17.8168 57.2304 17.1696C57.2761 17.0771 57.2761 16.9384 57.2761 16.7998C57.2761 16.4299 57.1388 16.1988 56.8185 16.1063C56.7727 16.1063 56.6812 16.1063 56.6354 16.1063C55.9946 16.1063 55.3996 16.4299 54.8046 17.0309C54.2096 17.7243 53.7977 18.5102 53.6147 19.3886H53.7062Z" fill="white"/>
<path d="M110.689 25.7218C109.407 25.0283 108.767 23.9189 108.767 22.4395C108.767 22.1159 108.812 21.7923 108.858 21.4225C109.041 20.5442 109.362 19.8507 109.911 19.2498C110.506 18.6026 111.284 18.3252 112.291 18.3252C113.252 18.3252 114.167 18.695 114.9 19.296C114.9 19.296 114.808 18.0941 114.671 17.3082C114.579 16.7997 114.442 16.3836 114.213 15.9675C113.984 15.5977 113.572 15.4128 112.977 15.4128C112.657 15.4128 112.291 15.5053 111.925 15.6902C111.558 15.8751 111.238 16.1987 110.964 16.6147C110.78 16.8921 110.552 17.0308 110.185 17.0308C109.911 17.0308 109.636 16.9383 109.407 16.7997C108.812 16.3836 109.133 15.5977 109.499 15.1354C109.911 14.5345 110.597 14.2109 111.238 13.9797C112.062 13.7023 112.794 13.5637 113.435 13.5637C114.122 13.5637 114.854 13.7486 115.586 14.0722C116.318 14.3958 116.913 15.043 117.325 15.9213C118.332 18.0478 118.012 20.5904 117.646 22.8094C117.554 23.3641 117.417 23.8726 117.28 24.3811C117.142 24.8434 116.868 25.2595 116.547 25.5369C116.273 25.768 115.998 25.8605 115.723 25.8605C115.54 25.8605 115.357 25.8142 115.174 25.768C114.488 26.1378 113.755 26.2765 112.977 26.2765C112.062 26.2303 111.33 26.0916 110.689 25.7218ZM114.442 24.0575C114.442 23.6415 114.396 22.9481 114.35 22.4395C114.305 21.8848 114.076 21.3301 113.755 20.8678C113.618 20.6366 113.389 20.4055 113.16 20.313C112.84 20.1743 112.611 20.4055 112.474 20.6829C112.382 20.8215 112.291 21.0065 112.245 21.1914C112.062 21.6074 111.97 22.0235 111.925 22.4395C111.879 22.6245 111.879 22.8094 111.879 22.9943C111.879 23.5028 112.016 24.15 112.565 24.2425C113.206 24.3811 113.893 24.2887 114.442 24.0575Z" fill="white"/>
<path d="M41.2119 29.8822C40.8457 29.8822 40.4796 29.7435 40.1592 29.6048C39.7473 29.4199 39.5184 29.0039 39.4727 28.4029C39.4727 27.8944 39.4727 27.3859 39.4727 26.8774C39.4727 23.965 39.6557 19.2034 39.9761 16.3372C40.0219 15.7363 40.1134 15.2277 40.3423 14.8117C40.6169 14.3956 40.983 14.1645 41.5322 14.1645C41.8526 14.1645 42.173 14.2569 42.4934 14.3956C42.9511 14.6268 43.2257 15.0428 43.2257 15.6438V15.9212C43.6834 15.3202 44.2326 14.8579 44.8734 14.5343C45.331 14.3032 45.7887 14.1645 46.2464 14.1645C47.2076 14.1645 47.9399 14.4881 48.4891 15.1353C49.2214 15.9674 49.5418 17.0769 49.5418 18.4175C49.5418 19.3883 49.3129 20.3129 48.8095 21.145C48.306 21.9771 47.6652 22.6706 46.8414 23.1791C45.926 23.78 44.8734 24.0574 43.6834 24.0574C43.3172 24.0574 42.9511 24.0112 42.5849 23.965V27.201V28.5878C42.5849 29.0963 42.2645 29.5586 41.8069 29.7435C41.6238 29.836 41.4407 29.8822 41.2119 29.8822ZM43.3172 21.9771C44.6445 21.746 45.8345 20.8676 46.338 19.5732C46.5668 19.0185 46.6583 18.4637 46.6583 17.909C46.6583 17.6316 46.6126 17.3543 46.5668 16.9844C46.521 16.6146 46.3837 16.1061 46.1549 16.0136C45.9718 15.9212 45.4684 16.291 45.3768 16.3835C44.7818 16.892 44.4157 17.7241 44.0953 18.4637C43.7291 19.2959 43.4545 20.128 43.1799 21.0063C43.0884 21.3299 42.9968 21.6998 42.9053 22.0234C43.0426 22.0234 43.1799 21.9771 43.3172 21.9771Z" fill="white"/>
<path d="M82.4953 14.7195C83.0903 15.3667 83.3649 16.1988 83.548 17.0309C83.7768 18.0017 83.9142 18.9725 84.0515 19.9433C84.1888 21.0066 84.2803 22.0699 84.3261 23.1331C84.3718 23.8265 84.4634 24.6124 84.2803 25.2596C84.0972 25.8606 83.6853 26.1842 82.9988 26.1842C82.6784 26.1842 82.358 26.0917 81.9919 25.9068C81.5342 25.6757 81.2596 25.2134 81.2138 24.7049C81.0765 23.8265 81.1223 22.9482 81.0765 22.0699C81.0307 21.3764 80.9392 20.683 80.8934 19.9896C80.7561 19.0188 80.6188 18.048 80.39 17.0772L79.9323 17.7706C78.605 20.1283 77.7812 22.6246 77.5065 25.3521C77.415 25.7681 77.1404 25.9993 76.6827 25.9993C76.4081 25.9993 76.1335 25.9068 75.8589 25.7681C75.5843 25.6295 75.4012 25.3521 75.4012 25.0285C75.3554 24.5662 75.4927 24.0577 75.5843 23.5954C75.8589 22.1623 76.225 20.7755 76.7742 19.4348C77.4608 17.7706 78.2846 16.1988 79.3831 14.7657C79.795 14.211 80.2984 13.9799 80.8934 13.9799C81.4884 13.9799 82.0376 14.211 82.4953 14.7195Z" fill="white"/>
<path d="M99.3382 26.1841C98.6517 26.1841 97.9651 25.8605 97.8278 25.352C97.6448 24.751 97.5075 24.1038 97.4617 23.4566C97.3701 22.3471 97.2328 19.6659 97.5074 17.7705C97.6905 16.5685 97.7363 15.7827 98.1482 14.7194C98.3771 14.1184 98.8805 13.7948 99.567 13.7948C100.07 13.7948 100.482 13.9798 100.849 14.3034C101.077 14.5345 101.26 14.8119 101.169 15.1355C101.032 15.8289 100.665 16.9846 100.528 19.2036C101.398 19.1574 104.144 18.88 104.235 18.88C104.373 16.7072 104.83 14.9968 105.014 14.5345C105.288 13.9335 105.746 13.6099 106.387 13.6099C106.753 13.6099 107.119 13.7486 107.531 13.9335C107.851 14.1184 108.034 14.3958 108.034 14.7194C107.988 15.644 107.897 16.5686 107.668 17.4931C107.439 18.6026 106.982 21.0989 106.936 22.3933C106.89 23.6415 106.982 24.6123 106.707 25.352C106.524 25.8605 106.066 26.0454 105.609 26.0454C105.38 26.0454 105.197 25.9992 104.968 25.8605C104.419 25.5831 104.144 24.4736 104.144 22.5783L104.19 21.5612L104.235 20.4517C102.588 20.5442 102.496 20.6367 100.574 20.7291C100.574 21.515 100.62 22.3009 100.665 23.0406C100.757 23.8727 100.803 24.6123 100.757 25.2595C100.711 25.953 100.025 26.1841 99.3382 26.1841Z" fill="white"/>
<path d="M89.0402 14.3034C89.5436 14.627 89.5436 15.043 89.4521 15.5977C89.2233 17.0308 88.9944 18.4639 88.7656 19.897C88.674 20.6829 88.6283 21.3763 88.6283 22.0235C88.6283 22.4396 88.6283 23.9189 88.9029 24.2887C89.2232 24.2887 89.6809 23.5491 90.3217 22.3471C91.1913 20.6367 92.3355 17.5394 93.1136 15.043C93.2509 14.6269 93.4797 14.2571 93.9374 14.1647C94.7613 13.9797 95.9512 14.2109 96.2259 15.0892C96.3632 15.5053 96.3632 15.9676 96.3174 16.3836C96.2716 18.88 96.1343 20.6367 95.9055 23.3179C95.8597 24.0113 95.7224 24.5661 95.5851 24.9822C95.402 25.6294 94.8986 26.1379 94.2578 26.2303C93.5713 26.3228 92.9305 25.9992 92.6101 25.3982C92.5186 25.2133 92.4271 24.9822 92.4271 24.7972C92.4271 24.2425 92.7932 22.4858 92.9763 21.515C92.9763 21.515 92.7932 21.9311 92.7474 22.0235C92.5186 22.5783 92.244 23.1792 91.9236 23.734C91.6032 24.2887 91.2371 24.7972 90.7794 25.2133C90.1844 25.768 89.4521 26.0454 88.5367 26.0454C87.8044 26.0454 87.2094 25.8605 86.6602 25.4444C86.111 24.9359 85.7906 24.335 85.6533 23.5953C85.516 22.9943 85.4702 22.3934 85.4702 21.7924L85.516 20.914C85.5618 19.8508 85.6991 18.7875 85.8821 17.7705C86.0194 16.8459 86.2025 15.9676 86.5229 15.0892C86.7975 14.3496 87.1637 13.8411 87.9875 13.8411C88.3536 13.9798 88.7198 14.0722 89.0402 14.3034Z" fill="white"/>
<path d="M29.495 25.9991C29.2662 25.8605 29.0831 25.6755 28.9915 25.4444C28.8085 24.9821 28.7627 24.4274 28.7627 23.6877C28.8085 21.515 28.9 19.4347 29.1746 17.4006C29.4035 15.4128 29.7238 13.5174 30.1358 11.6221L30.2273 11.206C30.3188 10.6513 30.4561 10.0965 30.7307 9.58801C31.0054 9.21818 31.4173 9.03326 32.0123 9.03326C32.3784 9.03326 32.6988 9.12572 33.065 9.31063C33.3853 9.49555 33.6142 9.81915 33.6599 10.2352V10.3277C33.6599 10.8362 33.5684 11.3447 33.4311 11.807L33.2938 12.3155C32.9276 14.1184 32.6073 15.9675 32.3784 17.8167C33.248 16.9846 34.0261 16.0138 34.8042 14.9505C35.7195 13.6099 36.3603 12.3155 36.6807 11.0673C36.818 10.6513 36.9553 10.189 37.0926 9.77292C37.2757 9.40309 37.6418 9.21818 38.2368 9.21818C38.6487 9.21818 39.0149 9.35687 39.381 9.63424C39.6556 9.86538 39.7929 10.0965 39.7929 10.4201C39.7929 10.9749 39.7014 11.4834 39.5183 12.0381C38.603 14.8118 37.1384 17.0308 35.0788 18.6488L35.033 18.695C34.5753 19.0649 34.0719 19.3885 33.5684 19.7583C34.7584 20.6829 36.3603 22.2546 37.1384 23.4103C37.9622 24.6585 38.2368 25.2595 37.596 25.8605C37.0011 26.4152 36.1772 25.6755 35.9026 25.3519C35.628 24.9821 34.9872 24.15 34.5753 23.549C34.0261 22.8556 33.0192 21.4687 32.0123 20.7291C31.9665 21.4225 31.875 22.2546 31.8292 23.1792L31.7834 23.9651C31.7834 24.5661 31.6919 25.167 31.463 25.6755C31.28 25.9991 30.9138 26.1841 30.3646 26.1841C30.09 26.2765 29.7696 26.1841 29.495 25.9991Z" fill="white"/>
<path d="M74.9431 16.8459C74.8973 16.3836 74.8058 15.2741 74.4396 14.6269C74.0277 13.9335 73.0208 13.841 72.3342 14.1184C71.5104 14.4882 71.19 15.3204 70.7781 16.06C70.412 16.7997 68.2151 21.1452 67.4828 22.3471C67.1624 21.6074 66.7962 20.5904 66.2928 19.2498C65.9724 18.3714 65.6978 17.4469 65.3774 16.6148C65.1486 15.9676 64.7824 14.8118 64.462 14.3958C64.1874 14.026 63.7755 13.8873 63.2721 13.8873C62.5398 13.8873 61.899 14.2109 61.6701 14.7656C61.1667 15.9676 60.709 18.0016 60.6175 21.0989C60.5717 22.2084 60.4802 24.7048 60.6632 25.2595C60.8463 25.8605 61.8532 26.1378 62.4482 26.1378C62.7686 26.1378 63.0432 25.9992 63.3178 25.768C63.4094 25.6756 63.5009 25.5369 63.5009 25.3982C63.6382 24.5661 63.684 22.0235 63.7297 21.2376C63.867 19.5734 63.9586 19.0186 64.0043 18.7875C64.0043 18.8337 64.8282 21.3301 65.3316 22.4858C65.7436 23.4566 66.1555 24.6585 67.437 24.7048C67.9862 24.7048 68.4439 24.4274 68.7643 23.8264C69.0847 23.2254 69.5424 22.3933 69.9543 21.6537C70.5035 20.6366 70.9612 19.8045 71.2816 19.0649C71.4646 18.7413 71.602 18.4639 71.7393 18.1865C71.785 18.6488 71.6935 19.296 71.6935 19.5272C71.6477 20.914 71.4189 22.3009 71.2358 23.6877C71.19 24.1038 71.0985 24.5661 71.1443 24.9821C71.2358 25.7218 71.9681 26.1378 72.6546 26.1378C72.8835 26.1378 73.2954 26.1378 73.5242 25.9992C74.0735 25.7218 74.2565 24.8897 74.5311 23.1792C74.7142 22.1622 74.76 21.0989 74.8058 20.0819C74.8973 19.1111 74.9888 17.5393 74.9431 16.8459Z" fill="white"/>
<path d="M9.91331 2.635C10.3123 2.914 10.7113 3.162 11.0182 3.348C10.8954 3.658 10.8341 3.968 10.742 4.27799C10.7113 4.43299 10.6806 4.55699 10.6192 4.71199C10.5578 4.86699 10.6192 5.05299 10.742 5.14599C10.8341 5.20799 10.9261 5.23899 11.0182 5.23899C11.0796 5.23899 11.141 5.23899 11.2024 5.20799C11.632 4.99099 12.0617 4.71199 12.5528 4.30899C12.7369 4.43299 12.9211 4.55699 13.1052 4.64999C13.3508 4.80499 13.5963 4.95999 13.8418 5.14599C13.9953 5.23899 14.1794 5.23899 14.3022 5.14599C14.4557 5.05299 14.517 4.86699 14.4864 4.71199C14.425 4.30899 14.3022 3.937 14.1794 3.596C14.1487 3.534 14.1181 3.441 14.1181 3.379C14.517 3.038 14.9467 2.635 15.2536 2.325C15.3764 2.201 15.4071 2.015 15.3457 1.86C15.2843 1.705 15.1309 1.612 14.9467 1.581C14.4864 1.581 13.9646 1.581 13.4735 1.612C13.3508 1.147 13.1973 0.681999 12.9825 0.248C12.9211 0.0929999 12.7676 0 12.5835 0C12.43 0 12.2766 0.0929999 12.2152 0.248C12.0924 0.557999 12.0003 0.805999 11.8776 1.054C11.8162 1.24 11.7548 1.426 11.6627 1.612C11.2944 1.643 10.8341 1.736 10.4658 1.798C10.343 1.829 10.1895 1.829 10.0975 1.86C9.91331 1.891 9.79054 2.015 9.75985 2.17C9.69847 2.356 9.75985 2.511 9.91331 2.635ZM11.9696 2.449C12.1231 2.449 12.2766 2.325 12.3379 2.201C12.43 1.984 12.4914 1.798 12.5835 1.612C12.6449 1.798 12.6755 1.984 12.7369 2.17C12.7676 2.387 12.9825 2.511 13.1973 2.511C13.4121 2.48 13.6577 2.48 13.9032 2.48C13.7191 2.635 13.5656 2.79 13.4121 2.914C13.2894 3.038 13.228 3.193 13.2587 3.379C13.3201 3.534 13.3508 3.689 13.4121 3.844C13.1973 3.72 13.0132 3.596 12.829 3.441C12.6755 3.317 12.4607 3.348 12.3073 3.472C12.1231 3.627 11.9696 3.782 11.7855 3.90599C11.8469 3.72 11.9083 3.534 12.0003 3.348C12.0617 3.255 12.0617 3.131 12.0003 3.007C11.9696 2.914 11.8776 2.821 11.7548 2.759C11.632 2.728 11.5093 2.635 11.3558 2.542C11.5707 2.48 11.7855 2.449 11.9696 2.449Z" fill="white"/>
<path d="M11.8163 24.986C12.0925 25.079 12.3995 25.11 12.6757 25.11C13.5657 25.11 14.4251 24.676 14.9162 23.932C15.5914 22.94 15.4686 21.514 14.6706 20.615C14.2103 20.088 13.6271 19.623 12.5529 19.623C11.448 19.623 9.85205 20.429 9.85205 22.227C9.91343 23.591 10.6193 24.583 11.8163 24.986ZM12.5836 20.739C13.1974 20.739 13.535 20.956 13.9033 21.39C14.3637 21.917 14.4251 22.785 14.0568 23.374C13.6578 23.963 12.8598 24.211 12.1539 23.994C11.1718 23.653 10.9569 22.878 10.9569 22.258C10.9569 21.018 12.1846 20.739 12.5836 20.739Z" fill="white"/>
<path d="M18.8752 26.9391V24.6451C18.8752 24.3351 18.6297 24.1181 18.3535 24.1181C18.0466 24.1181 17.8317 24.3661 17.8317 24.6451V26.0091C17.5555 25.8231 17.2793 25.6371 17.0338 25.4201C17.1565 23.4671 17.2793 20.2741 17.3407 18.2901C17.3407 18.1351 17.2793 17.9491 17.1258 17.8561C17.0031 17.7631 16.8189 17.7011 16.6655 17.7631C16.5734 17.7941 16.4813 17.8251 16.3892 17.8251C16.3892 17.3291 16.3585 16.8021 16.3585 16.2441C16.3585 15.8411 16.3279 15.4071 16.3279 14.9111C16.3279 14.6321 16.0823 14.3841 15.8061 14.3841C15.6526 14.3841 15.5299 14.3841 15.3764 14.3841C15.1616 13.4851 15.0081 12.5861 14.824 11.7181C14.3943 9.54811 13.9646 7.31611 13.0745 5.14611C12.9825 4.92911 12.7983 4.80511 12.5528 4.80511C12.3379 4.80511 12.1231 4.96011 12.0617 5.17711C11.1103 8.27711 10.2816 11.2531 9.57571 14.2911C9.45294 14.2911 9.36087 14.2911 9.2381 14.2911C9.08464 14.2911 8.96188 14.3531 8.8698 14.4461C8.77773 14.5391 8.71634 14.6941 8.71634 14.8181V15.5311C8.71634 16.3681 8.71634 17.1741 8.71634 17.9801C8.59358 17.9491 8.5015 17.9491 8.37874 17.9181C8.22528 17.8871 8.07182 17.9491 7.94905 18.0421C7.82629 18.1351 7.76491 18.2901 7.76491 18.4451C7.76491 20.1811 7.91836 22.4751 8.01044 24.3041C8.04113 24.5831 8.04113 24.8311 8.07182 25.0791C7.76491 25.3271 7.48868 25.5441 7.21246 25.8231V24.5831C7.21246 24.3041 6.96692 24.0561 6.6907 24.0561C6.38379 24.0561 6.16895 24.3041 6.16895 24.5831L6.19964 27.0011C6.19964 28.3341 6.19963 29.3261 6.29171 30.3181C6.3224 30.5971 6.53724 30.8141 6.81347 30.8141C8.71634 30.8141 10.7727 30.8761 12.9211 30.9071C14.7626 30.9381 16.6348 31.0001 18.4763 31.0001C18.6297 31.0001 18.7525 30.9381 18.8446 30.8451C18.9366 30.7521 18.998 30.5971 18.998 30.4731C18.998 29.8531 18.998 29.2951 18.9673 28.7371C18.9059 28.2101 18.8752 27.6211 18.8752 26.9391ZM9.11533 25.3271C9.08464 25.0171 9.08464 24.6451 9.05395 24.3041C8.96188 22.6921 8.83911 20.7701 8.80842 19.1581C9.11533 19.2201 9.39156 19.2821 9.63709 19.3441C10.0668 19.4371 10.4351 19.5301 10.7727 19.5611C10.9261 19.5921 11.1103 19.5301 11.2331 19.4061C11.4172 19.1891 11.632 19.0031 11.8469 18.8171C12.0924 18.6001 12.3073 18.3521 12.5528 18.1041C13.0439 18.6001 13.6884 19.1891 13.9032 19.3131C14.026 19.3751 14.1487 19.4061 14.2715 19.4061C14.8853 19.3131 15.4992 19.1891 16.2665 19.0031C16.2051 20.8941 16.0823 23.5291 15.9902 25.2341C15.6219 25.5441 15.1616 25.8541 14.7319 26.1021C14.5477 26.2261 14.3943 26.3191 14.2408 26.4121C13.6884 26.0401 12.9825 25.5751 12.7676 25.4821C12.6142 25.3891 12.3993 25.3891 12.2152 25.4821C12.0924 25.5441 11.9696 25.6061 11.8162 25.6991C11.4786 25.8851 11.0182 26.1331 10.6192 26.4121C10.0054 26.0091 9.48363 25.6371 9.11533 25.3271ZM12.6142 7.06811C13.1359 8.64911 13.4428 10.2611 13.7805 11.9661C13.9339 12.7721 14.0874 13.6091 14.2715 14.4151C13.1359 14.4151 11.939 14.3841 10.6499 14.3531C11.2331 11.9351 11.8776 9.54811 12.6142 7.06811ZM9.75986 15.5931V15.4381C9.82124 15.4381 9.91331 15.4381 9.9747 15.4381C9.9747 15.4381 9.9747 15.4381 10.0054 15.4381C11.9697 15.4691 13.627 15.5001 15.2843 15.5001C15.2843 15.7791 15.315 16.0581 15.315 16.3371C15.3457 16.9881 15.3457 17.5461 15.3457 18.1351C15.0081 18.2281 14.6705 18.2901 14.3636 18.3211C14.0567 18.0421 13.3508 17.3911 12.9211 16.9571C12.829 16.8331 12.6756 16.7711 12.4914 16.8021C12.3379 16.8021 12.1845 16.8951 12.0924 17.0191C11.8162 17.3911 11.4786 17.7011 11.1103 18.0421C10.9568 18.1661 10.8034 18.3211 10.6806 18.4761C10.4351 18.4451 10.1895 18.3831 9.88262 18.2901C9.85193 18.2901 9.79055 18.2591 9.75986 18.2591C9.75986 17.3911 9.75986 16.5231 9.75986 15.5931ZM12.8904 29.9461C10.8954 29.9151 9.02326 29.8531 7.24315 29.8531C7.21246 29.1091 7.21246 28.3651 7.21246 27.3421C7.4273 27.1561 7.61145 26.9701 7.7956 26.8151C8.04113 26.5981 8.25597 26.3811 8.5015 26.1641C8.93119 26.5361 9.57571 26.9701 10.4044 27.4971C10.5885 27.6211 10.8034 27.6211 10.9875 27.4971C11.4479 27.1871 11.9696 26.8771 12.3993 26.6291C12.43 26.5981 12.4914 26.5671 12.5221 26.5671C12.9211 26.8151 13.5656 27.2491 13.9953 27.5281C14.1794 27.6521 14.425 27.6521 14.6091 27.4971C14.7933 27.3421 15.0695 27.1871 15.3457 27.0011C15.6833 26.7841 16.0823 26.5361 16.4199 26.2571C16.8803 26.6291 17.3714 26.9701 17.8624 27.2181C17.8624 27.7761 17.8624 28.3031 17.8931 28.8301C17.8931 29.2021 17.9238 29.6051 17.9238 30.0081C16.2051 30.0391 14.517 30.0081 12.8904 29.9461Z" fill="white"/>
<path d="M12.3382 27.652C12.0312 27.652 11.8164 27.9 11.8164 28.179V28.83C11.8164 29.14 12.0619 29.357 12.3382 29.357C12.6451 29.357 12.8599 29.109 12.8599 28.83V28.179C12.8906 27.869 12.6451 27.652 12.3382 27.652Z" fill="white"/>
<path d="M16.2356 27.652C15.9287 27.652 15.7139 27.9 15.7139 28.179V28.892C15.7139 29.202 15.9594 29.419 16.2356 29.419C16.5425 29.419 16.7574 29.171 16.7574 28.892V28.179C16.7574 27.869 16.5118 27.652 16.2356 27.652Z" fill="white"/>
<path d="M8.65506 27.652C8.34814 27.652 8.1333 27.9 8.1333 28.179V28.892C8.1333 29.202 8.37883 29.419 8.65506 29.419C8.96197 29.419 9.17681 29.171 9.17681 28.892V28.179C9.17681 27.869 8.93128 27.652 8.65506 27.652Z" fill="white"/>
<path d="M1.1049 20.026C1.1049 14.818 4.60374 10.23 9.57577 8.86599C9.88269 8.77299 10.0361 8.49399 9.97476 8.18399C9.88269 7.87399 9.60646 7.71899 9.29955 7.78099C3.83645 9.26899 0 14.291 0 20.026C0 23.622 1.53458 27.063 4.17406 29.45C4.26613 29.543 4.41959 29.605 4.54235 29.605C4.69581 29.605 4.84927 29.543 4.94135 29.419C5.15619 29.202 5.12549 28.83 4.91065 28.644C2.51671 26.412 1.1049 23.281 1.1049 20.026Z" fill="white"/>
<path d="M15.5914 7.71904C15.2845 7.65704 15.0082 7.81204 14.9162 8.12204C14.8548 8.43204 15.0082 8.71104 15.3152 8.80404C20.41 10.075 23.9702 14.694 23.9702 19.995C23.9702 23.281 22.5891 26.412 20.1644 28.582C19.9496 28.799 19.9189 29.14 20.1337 29.357C20.2565 29.481 20.3793 29.543 20.5327 29.543C20.6555 29.543 20.8089 29.481 20.901 29.388C23.5405 27.001 25.0751 23.56 25.0751 19.964C25.0751 14.198 21.1772 9.14504 15.5914 7.71904Z" fill="white"/>
</svg>
