<svg width="181" height="47" fill="none" xmlns="http://www.w3.org/2000/svg"><path d="M83.995 39.628c-1.194 0-2.387-.28-3.65-.91a7.101 7.101 0 01-2.388-2.174 6.511 6.511 0 01-1.053-3.224v-.7a16.7 16.7 0 011.053-5.818c.843-2.243 2.177-3.855 4.002-4.836 1.264-.63 2.527-.981 3.861-.981.983 0 1.896.21 2.808.56 1.124.491 1.966 1.262 2.528 2.243a3.16 3.16 0 01.491 1.753c0 .49-.07 1.05-.28 1.542-.632 1.471-1.615 2.593-3.02 3.294a12.718 12.718 0 01-5.826 1.612h-.632c0 .35-.07.7-.07 1.051v.35c.07 1.823.491 2.944 1.263 3.295.351.14.702.28 1.124.28h.07c1.193-.07 2.176-.911 3.019-2.523l.491-.841c.351-.42.772-.631 1.334-.631.491 0 .842.14 1.264.35.35.21.561.561.561.912v.28c-.21 1.051-.632 1.962-1.334 2.733-1.334 1.612-3.089 2.454-5.265 2.524h-.351v-.14zM82.38 29.395l.492-.07c1.123-.14 2.176-.49 3.159-1.121.772-.49 1.404-1.192 1.755-2.173.07-.14.07-.35.07-.56 0-.561-.21-.912-.702-1.052h-.28c-.983 0-1.896.49-2.809 1.402-.912 1.051-1.544 2.243-1.825 3.574h.14zm87.406 9.603c-1.966-1.052-2.949-2.734-2.949-4.977 0-.49.07-.981.14-1.542.281-1.331.773-2.383 1.615-3.294.913-.981 2.106-1.402 3.651-1.402 1.474 0 2.878.561 4.001 1.472 0 0-.14-1.822-.351-3.014-.14-.77-.351-1.401-.702-2.032-.351-.56-.983-.841-1.895-.841-.492 0-1.053.14-1.615.42-.562.28-1.053.771-1.474 1.402-.281.42-.632.63-1.194.63a2.37 2.37 0 01-1.193-.35c-.913-.63-.421-1.822.14-2.523.632-.91 1.685-1.402 2.668-1.752 1.264-.42 2.387-.63 3.37-.63 1.053 0 2.176.28 3.299.77 1.124.49 2.036 1.472 2.668 2.804 1.545 3.224 1.053 7.079.492 10.443-.141.841-.351 1.612-.562 2.383a3.8 3.8 0 01-1.123 1.752c-.422.35-.843.49-1.264.49-.281 0-.562-.07-.842-.14-1.054.561-2.177.772-3.37.772-1.404-.07-2.528-.28-3.51-.841zm5.756-2.524c0-.63-.07-1.682-.14-2.453-.07-.84-.421-1.682-.913-2.383-.21-.35-.561-.7-.912-.84-.492-.211-.843.14-1.054.56-.14.21-.28.49-.351.77a6.304 6.304 0 00-.491 1.893c-.07.28-.07.56-.07.841 0 .771.21 1.752 1.053 1.893.983.21 2.036.07 2.878-.28zM63.215 45.305c-.562 0-1.124-.21-1.615-.42-.632-.28-.983-.911-1.053-1.823V40.75c0-4.415.28-11.634.772-15.98.07-.91.21-1.682.562-2.313.421-.63.983-.98 1.825-.98.492 0 .983.14 1.474.35.702.35 1.124.98 1.124 1.892v.42a7.257 7.257 0 012.527-2.102c.702-.35 1.404-.56 2.106-.56 1.474 0 2.598.49 3.44 1.471 1.123 1.262 1.615 2.944 1.615 4.976 0 1.472-.351 2.874-1.123 4.136-.773 1.261-1.755 2.312-3.02 3.083-1.403.911-3.018 1.332-4.843 1.332-.562 0-1.124-.07-1.685-.14v7.009a1.91 1.91 0 01-1.194 1.752c-.28.14-.561.21-.912.21zm3.23-11.985c2.035-.35 3.86-1.682 4.633-3.645a6.454 6.454 0 00.491-2.523c0-.42-.07-.84-.14-1.402-.07-.56-.281-1.331-.632-1.471-.281-.14-1.053.42-1.194.56-.912.771-1.474 2.033-1.965 3.154-.562 1.262-.983 2.524-1.405 3.855-.14.49-.28 1.052-.42 1.542.21 0 .42-.07.631-.07zm60.094-11.003c.913.981 1.334 2.243 1.615 3.504.351 1.472.562 2.944.772 4.416a55.95 55.95 0 01.421 4.836c.071 1.051.211 2.243-.07 3.224-.281.911-.912 1.402-1.966 1.402-.491 0-.982-.14-1.544-.42-.702-.351-1.123-1.052-1.194-1.823-.21-1.332-.14-2.664-.21-3.995-.07-1.051-.211-2.103-.281-3.154-.211-1.472-.421-2.944-.772-4.416l-.702 1.052c-2.036 3.574-3.3 7.359-3.721 11.494-.141.63-.562.981-1.264.981-.421 0-.842-.14-1.263-.35a1.248 1.248 0 01-.703-1.121c-.07-.701.141-1.472.281-2.173.422-2.173.983-4.276 1.826-6.308 1.053-2.523 2.316-4.906 4.001-7.08.632-.84 1.404-1.19 2.317-1.19.913 0 1.755.35 2.457 1.12zm25.835 17.381c-1.053 0-2.106-.49-2.316-1.261a12.998 12.998 0 01-.562-2.874c-.14-1.682-.351-5.747.07-8.62.281-1.823.351-3.015.983-4.627.351-.91 1.123-1.401 2.176-1.401.773 0 1.405.28 1.966.77.351.351.632.772.492 1.262-.211 1.052-.773 2.804-.983 6.168 1.334-.07 5.546-.49 5.686-.49.211-3.295.913-5.888 1.194-6.589.421-.911 1.123-1.402 2.106-1.402.562 0 1.123.21 1.755.49.491.281.772.702.772 1.192-.07 1.402-.21 2.804-.561 4.206-.351 1.682-1.053 5.467-1.124 7.43-.07 1.892.071 3.363-.351 4.485-.28.77-.983 1.051-1.685 1.051-.351 0-.631-.07-.982-.28-.843-.42-1.264-2.103-1.264-4.977l.07-1.541.07-1.683c-2.527.14-2.667.28-5.616.42 0 1.192.07 2.384.14 3.505.141 1.262.211 2.383.141 3.365-.07 1.05-1.124 1.401-2.177 1.401zm-15.796-18.012c.773.49.773 1.121.632 1.962l-1.053 6.518a27.56 27.56 0 00-.21 3.225c0 .63 0 2.873.421 3.434.491 0 1.193-1.122 2.176-2.944 1.334-2.593 3.089-7.29 4.283-11.074.21-.63.561-1.191 1.263-1.331 1.264-.28 3.089.07 3.511 1.401.21.631.21 1.332.14 1.963-.07 3.785-.281 6.448-.632 10.513a10.029 10.029 0 01-.491 2.523c-.281.981-1.053 1.752-2.036 1.893-1.053.14-2.036-.35-2.528-1.262-.14-.28-.28-.63-.28-.911 0-.841.561-3.505.842-4.976 0 0-.281.63-.351.77-.351.842-.772 1.753-1.264 2.594-.491.84-1.053 1.612-1.755 2.243-.912.84-2.036 1.261-3.44 1.261-1.123 0-2.036-.28-2.878-.91-.843-.772-1.334-1.683-1.545-2.805-.21-.91-.28-1.822-.28-2.733l.07-1.332c.07-1.612.281-3.224.561-4.766.211-1.401.492-2.733.983-4.065.421-1.121.983-1.892 2.247-1.892.561.21 1.123.35 1.614.7zM45.242 39.418c-.35-.21-.631-.49-.772-.841-.28-.7-.35-1.542-.35-2.663.07-3.295.21-6.449.631-9.532a87.672 87.672 0 011.474-8.762l.14-.63c.141-.841.352-1.682.773-2.453.421-.561 1.053-.841 1.966-.841.561 0 1.053.14 1.614.42.492.28.843.771.913 1.402v.14c0 .771-.14 1.542-.351 2.243l-.21.77c-.562 2.734-1.054 5.538-1.405 8.341 1.334-1.261 2.528-2.733 3.721-4.345 1.404-2.033 2.387-3.995 2.878-5.888.211-.63.422-1.331.632-1.962.281-.56.843-.841 1.755-.841.632 0 1.194.21 1.756.63.42.351.631.702.631 1.192 0 .841-.14 1.612-.42 2.453-1.405 4.206-3.651 7.57-6.81 10.023l-.07.07c-.703.56-1.475 1.051-2.247 1.612 1.825 1.402 4.282 3.785 5.476 5.537 1.263 1.892 1.684 2.804.702 3.715-.913.84-2.177-.28-2.598-.771-.421-.56-1.404-1.822-2.036-2.734-.842-1.051-2.387-3.154-3.931-4.275-.07 1.051-.211 2.313-.281 3.715l-.07 1.191c0 .911-.14 1.822-.492 2.593-.28.491-.842.771-1.685.771-.42.14-.912 0-1.334-.28zm69.714-13.878c-.071-.7-.211-2.382-.773-3.364-.631-1.051-2.176-1.191-3.229-.77-1.264.56-1.755 1.822-2.387 2.943-.562 1.122-3.931 7.71-5.055 9.532-.491-1.121-1.053-2.663-1.825-4.696-.491-1.331-.913-2.733-1.404-3.995-.351-.981-.913-2.733-1.404-3.364-.422-.56-1.053-.771-1.826-.771-1.123 0-2.106.49-2.457 1.332-.772 1.822-1.474 4.906-1.614 9.602-.07 1.682-.211 5.467.07 6.308.28.91 1.825 1.331 2.738 1.331.491 0 .912-.21 1.334-.56.14-.14.28-.35.28-.561.211-1.262.281-5.116.352-6.308.21-2.523.35-3.364.42-3.715 0 .07 1.264 3.855 2.037 5.607.631 1.472 1.263 3.294 3.229 3.365.843 0 1.545-.42 2.036-1.332.491-.911 1.193-2.173 1.825-3.294.843-1.542 1.545-2.804 2.036-3.925.281-.49.492-.911.702-1.332.07.701-.07 1.682-.07 2.033-.07 2.102-.421 4.205-.702 6.308-.07.63-.211 1.331-.14 1.962.14 1.122 1.263 1.752 2.316 1.752.351 0 .983 0 1.334-.21.843-.42 1.124-1.682 1.545-4.275.281-1.542.351-3.154.421-4.696.14-1.472.281-3.855.211-4.906zM15.206 3.995c.612.423 1.224.799 1.695 1.081-.189.47-.283.94-.424 1.41a3.449 3.449 0 01-.188.658.58.58 0 00.188.658.76.76 0 00.424.141c.094 0 .188 0 .282-.047.66-.329 1.319-.752 2.072-1.363.282.188.565.376.847.517.377.235.753.47 1.13.752.235.141.518.141.706 0a.632.632 0 00.283-.658c-.095-.611-.283-1.175-.471-1.692a.872.872 0 01-.094-.329 30.584 30.584 0 001.742-1.598.656.656 0 00.14-.705c-.093-.235-.329-.376-.611-.423-.706 0-1.507 0-2.26.047-.188-.705-.424-1.41-.753-2.068C19.82.141 19.584 0 19.302 0a.612.612 0 00-.565.376c-.188.47-.33.846-.518 1.222a6.267 6.267 0 01-.33.846c-.564.047-1.27.188-1.836.282-.188.047-.423.047-.565.094-.282.047-.47.235-.517.47-.095.282 0 .517.235.705zm3.154-.282c.236 0 .471-.188.565-.376.141-.329.236-.611.377-.893.094.282.141.564.235.846.047.329.377.517.706.517.33-.047.707-.047 1.083-.047-.282.235-.518.47-.753.658a.775.775 0 00-.236.705c.095.235.142.47.236.705a6 6 0 01-.895-.611c-.235-.188-.565-.141-.8.047-.282.235-.518.47-.8.658.094-.282.188-.564.33-.846.093-.141.093-.329 0-.517-.048-.141-.189-.282-.377-.376-.189-.047-.377-.188-.612-.329.33-.094.659-.141.941-.141zm-.235 34.169c.424.141.895.188 1.319.188 1.365 0 2.683-.658 3.436-1.786 1.036-1.504.848-3.666-.377-5.029-.706-.799-1.6-1.504-3.248-1.504-1.695 0-4.143 1.222-4.143 3.948.095 2.068 1.177 3.572 3.013 4.183zm1.177-6.439c.942 0 1.46.329 2.025.987.706.799.8 2.115.235 3.008-.612.893-1.836 1.269-2.919.94-1.506-.517-1.836-1.692-1.836-2.632 0-1.88 1.883-2.303 2.495-2.303z" fill="#C4161D"/><path d="M28.953 40.843v-3.478a.793.793 0 00-.8-.799c-.471 0-.8.376-.8.8v2.067c-.424-.282-.848-.564-1.225-.893.189-2.96.377-7.802.471-10.81 0-.235-.094-.517-.33-.658-.188-.14-.47-.235-.705-.14-.142.046-.283.093-.424.093 0-.752-.047-1.55-.047-2.397 0-.61-.047-1.269-.047-2.02a.824.824 0 00-.8-.8h-.66c-.33-1.363-.565-2.726-.847-4.042-.66-3.29-1.318-6.674-2.684-9.964-.14-.329-.423-.517-.8-.517a.805.805 0 00-.753.564c-1.46 4.7-2.73 9.212-3.813 13.818h-.518a.78.78 0 00-.565.235.867.867 0 00-.236.564v4.794c-.188-.047-.33-.047-.518-.094-.235-.047-.47.047-.659.188a.757.757 0 00-.282.611c0 2.632.235 6.11.377 8.883.047.423.047.8.094 1.175-.471.376-.895.705-1.319 1.128v-1.88a.824.824 0 00-.8-.799c-.47 0-.8.376-.8.8l.047 3.665c0 2.021 0 3.525.141 5.03.047.422.377.751.8.751 2.92 0 6.074.094 9.369.141 2.825.047 5.696.141 8.521.141a.78.78 0 00.565-.235.867.867 0 00.235-.564c0-.94 0-1.786-.047-2.632a23.329 23.329 0 01-.14-2.726zM13.983 38.4c-.048-.47-.048-1.034-.095-1.55-.141-2.445-.33-5.359-.376-7.803.47.094.894.188 1.27.282.66.141 1.225.282 1.743.33.235.046.517-.048.706-.236.282-.329.612-.61.941-.893.377-.329.706-.705 1.083-1.08.753.751 1.742 1.644 2.072 1.832.188.094.376.141.564.141a35.094 35.094 0 003.06-.61 500.009 500.009 0 01-.423 9.446c-.565.47-1.271.94-1.93 1.316-.283.188-.518.33-.754.47-.847-.564-1.93-1.269-2.26-1.41-.235-.14-.564-.14-.847 0a8.391 8.391 0 00-.612.33c-.518.281-1.224.657-1.836 1.08-.941-.61-1.742-1.175-2.307-1.645zm5.366-27.683c.8 2.397 1.271 4.841 1.79 7.426.235 1.222.47 2.491.752 3.713-1.741 0-3.577-.047-5.555-.094a215.885 215.885 0 013.013-11.045zm-4.378 12.925v-.235h.377c3.013.047 5.555.094 8.097.094 0 .423.047.846.047 1.27.047.986.047 1.832.047 2.725a9.357 9.357 0 01-1.506.282 70.657 70.657 0 01-2.213-2.068c-.141-.188-.377-.282-.66-.235-.235 0-.47.141-.611.33-.424.563-.942 1.033-1.507 1.55-.235.188-.47.423-.659.658a7.36 7.36 0 01-1.224-.282c-.047 0-.14-.047-.188-.047v-4.042zm4.802 21.761c-3.06-.047-5.932-.14-8.662-.14-.048-1.129-.048-2.257-.048-3.808.33-.282.612-.564.895-.799.377-.329.706-.658 1.083-.987.659.564 1.647 1.222 2.919 2.021a.78.78 0 00.894 0c.706-.47 1.507-.94 2.166-1.316a.357.357 0 01.188-.094c.612.376 1.6 1.034 2.26 1.457a.78.78 0 00.941-.047c.283-.235.706-.47 1.13-.752.518-.329 1.13-.705 1.648-1.128.706.564 1.46 1.081 2.212 1.457 0 .846 0 1.645.048 2.444 0 .564.047 1.175.047 1.786-2.637.047-5.226 0-7.721-.094z" fill="#C4161D"/><path d="M18.925 41.924c-.47 0-.8.376-.8.8v.986c0 .47.377.8.8.8.471 0 .8-.377.8-.8v-.987c.048-.47-.329-.799-.8-.799zm5.979 0c-.47 0-.8.376-.8.8v1.08c0 .47.376.8.8.8.47 0 .8-.377.8-.8v-1.08a.793.793 0 00-.8-.8zm-11.628 0c-.47 0-.8.376-.8.8v1.08c0 .47.376.8.8.8.47 0 .8-.377.8-.8v-1.08a.793.793 0 00-.8-.8zM1.695 30.362c0-7.896 5.367-14.852 12.993-16.92.471-.141.706-.564.612-1.034-.141-.47-.565-.705-1.035-.611C5.885 14.053 0 21.667 0 30.362A19.22 19.22 0 006.403 44.65a.87.87 0 00.565.235.76.76 0 00.612-.282c.33-.329.282-.893-.048-1.175-3.672-3.384-5.837-8.131-5.837-13.066zm22.221-18.659c-.471-.094-.895.141-1.036.611-.094.47.141.893.612 1.034 7.815 1.927 13.276 8.93 13.276 16.967 0 4.982-2.119 9.729-5.838 13.019-.33.329-.377.846-.047 1.175.188.188.377.282.612.282a.87.87 0 00.565-.235 19.22 19.22 0 006.403-14.288c0-8.742-5.98-16.403-14.547-18.565z" fill="#C4161D"/></svg>