<svg width="181" height="47" viewBox="0 0 181 47" fill="none" xmlns="http://www.w3.org/2000/svg">
<path d="M83.995 39.6284C82.8015 39.6284 81.608 39.348 80.3443 38.7172C79.3615 38.1565 78.5892 37.4557 77.9574 36.5445C77.3255 35.5633 76.9745 34.5119 76.9043 33.3204V32.6195C76.9043 30.6571 77.2553 28.6946 77.9574 26.8022C78.7998 24.5594 80.1337 22.9473 81.959 21.9661C83.2227 21.3353 84.4864 20.9849 85.8203 20.9849C86.8031 20.9849 87.7158 21.1951 88.6284 21.5456C89.7517 22.0362 90.5942 22.8072 91.1558 23.7884C91.5068 24.3491 91.6472 24.9098 91.6472 25.5406C91.6472 26.0312 91.577 26.5919 91.3664 27.0826C90.7346 28.5544 89.7517 29.6758 88.3476 30.3767C86.5925 31.358 84.6268 31.9187 82.5207 31.9888H81.8888C81.8888 32.3392 81.8186 32.6896 81.8186 33.0401V33.3905C81.8888 35.2128 82.31 36.3342 83.0823 36.6847C83.4333 36.8249 83.7843 36.965 84.2056 36.965H84.2758C85.4692 36.8949 86.4521 36.0539 87.2946 34.4419L87.786 33.6008C88.137 33.1803 88.5582 32.97 89.1199 32.97C89.6113 32.97 89.9623 33.1102 90.3836 33.3204C90.7346 33.5307 90.9452 33.8811 90.9452 34.2316V34.5119C90.7346 35.5633 90.3134 36.4744 89.6113 37.2454C88.2774 38.8574 86.5223 39.6985 84.346 39.7686H83.995V39.6284ZM82.3802 29.3955L82.8717 29.3254C83.9949 29.1852 85.048 28.8348 86.0309 28.204C86.8031 27.7134 87.435 27.0125 87.786 26.0312C87.8562 25.8911 87.8562 25.6808 87.8562 25.4705C87.8562 24.9098 87.6456 24.5594 87.1542 24.4192C87.084 24.4192 86.9435 24.4192 86.8733 24.4192C85.8905 24.4192 84.9778 24.9098 84.0652 25.821C83.1525 26.8723 82.5207 28.0638 82.2398 29.3955H82.3802Z" fill="#C4161D"/>
<path d="M169.786 38.9975C167.82 37.9462 166.837 36.264 166.837 34.0212C166.837 33.5306 166.907 33.04 166.977 32.4792C167.258 31.1476 167.75 30.0962 168.592 29.1851C169.505 28.2039 170.698 27.7833 172.243 27.7833C173.717 27.7833 175.121 28.344 176.244 29.2552C176.244 29.2552 176.104 27.4329 175.893 26.2414C175.753 25.4704 175.542 24.8396 175.191 24.2088C174.84 23.6481 174.208 23.3677 173.296 23.3677C172.804 23.3677 172.243 23.5079 171.681 23.7883C171.119 24.0686 170.628 24.5592 170.207 25.19C169.926 25.6106 169.575 25.8208 169.013 25.8208C168.592 25.8208 168.171 25.6807 167.82 25.4704C166.907 24.8396 167.399 23.6481 167.96 22.9472C168.592 22.0361 169.645 21.5454 170.628 21.195C171.892 20.7745 173.015 20.5642 173.998 20.5642C175.051 20.5642 176.174 20.8446 177.297 21.3352C178.421 21.8258 179.333 22.807 179.965 24.1387C181.51 27.3628 181.018 31.2177 180.457 34.5819C180.316 35.423 180.106 36.1939 179.895 36.9649C179.684 37.6658 179.263 38.2966 178.772 38.7171C178.35 39.0676 177.929 39.2077 177.508 39.2077C177.227 39.2077 176.946 39.1377 176.666 39.0676C175.612 39.6283 174.489 39.8385 173.296 39.8385C171.892 39.7685 170.768 39.5582 169.786 38.9975ZM175.542 36.4743C175.542 35.8435 175.472 34.7922 175.402 34.0212C175.332 33.1801 174.981 32.3391 174.489 31.6382C174.279 31.2877 173.928 30.9373 173.577 30.7971C173.085 30.5869 172.734 30.9373 172.523 31.3578C172.383 31.5681 172.243 31.8485 172.172 32.1288C171.892 32.7596 171.751 33.3904 171.681 34.0212C171.611 34.3015 171.611 34.5819 171.611 34.8623C171.611 35.6332 171.821 36.6145 172.664 36.7546C173.647 36.9649 174.7 36.8247 175.542 36.4743Z" fill="#C4161D"/>
<path d="M63.2146 45.3052C62.653 45.3052 62.0914 45.0949 61.5999 44.8847C60.9681 44.6043 60.6171 43.9735 60.5469 43.0623C60.5469 42.2914 60.5469 41.5204 60.5469 40.7494C60.5469 36.3339 60.8277 29.1147 61.3191 24.7693C61.3893 23.8581 61.5297 23.0871 61.8808 22.4563C62.302 21.8255 62.8636 21.4751 63.7061 21.4751C64.1975 21.4751 64.6889 21.6153 65.1804 21.8255C65.8824 22.176 66.3036 22.8068 66.3036 23.7179V24.1385C67.0057 23.2273 67.8481 22.5264 68.831 22.0358C69.533 21.6854 70.2351 21.4751 70.9371 21.4751C72.4114 21.4751 73.5347 21.9657 74.3772 22.947C75.5004 24.2085 75.9919 25.8907 75.9919 27.9232C75.9919 29.3951 75.6408 30.7969 74.8686 32.0585C74.0963 33.3201 73.1135 34.3714 71.8498 35.1424C70.4457 36.0535 68.831 36.474 67.0057 36.474C66.4441 36.474 65.8824 36.4039 65.3208 36.3339V41.2401V43.3427C65.3208 44.1137 64.8293 44.8146 64.1273 45.0949C63.8465 45.2351 63.5657 45.3052 63.2146 45.3052ZM66.4441 33.3201C68.48 32.9696 70.3053 31.6379 71.0775 29.6755C71.4286 28.8344 71.569 27.9933 71.569 27.1523C71.569 26.7317 71.4988 26.3112 71.4286 25.7505C71.3584 25.1898 71.1478 24.4188 70.7967 24.2786C70.5159 24.1385 69.7437 24.6992 69.6033 24.8393C68.6906 25.6103 68.129 26.8719 67.6375 27.9933C67.0759 29.2549 66.6547 30.5165 66.2334 31.8482C66.093 32.3388 65.9526 32.8995 65.8122 33.3901C66.0228 33.3901 66.2334 33.3201 66.4441 33.3201Z" fill="#C4161D"/>
<path d="M126.539 22.3167C127.452 23.298 127.873 24.5596 128.154 25.8212C128.505 27.293 128.716 28.7649 128.926 30.2367C129.137 31.8488 129.277 33.4608 129.347 35.0728C129.418 36.1242 129.558 37.3157 129.277 38.2969C128.996 39.2081 128.365 39.6987 127.311 39.6987C126.82 39.6987 126.329 39.5585 125.767 39.2781C125.065 38.9277 124.644 38.2268 124.573 37.4558C124.363 36.1242 124.433 34.7925 124.363 33.4608C124.293 32.4095 124.152 31.3581 124.082 30.3068C123.871 28.835 123.661 27.3631 123.31 25.8912L122.608 26.9426C120.572 30.5171 119.308 34.3019 118.887 38.4371C118.746 39.0679 118.325 39.4183 117.623 39.4183C117.202 39.4183 116.781 39.2781 116.36 39.0679C115.938 38.8576 115.657 38.4371 115.657 37.9465C115.587 37.2456 115.798 36.4746 115.938 35.7737C116.36 33.601 116.921 31.4983 117.764 29.4658C118.817 26.9426 120.08 24.5596 121.765 22.3868C122.397 21.5458 123.169 21.1953 124.082 21.1953C124.995 21.1953 125.837 21.5458 126.539 22.3167Z" fill="#C4161D"/>
<path d="M152.374 39.6983C151.321 39.6983 150.268 39.2077 150.058 38.4367C149.777 37.5256 149.566 36.5444 149.496 35.5631C149.356 33.881 149.145 29.8159 149.566 26.9422C149.847 25.1199 149.917 23.9284 150.549 22.3164C150.9 21.4053 151.672 20.9146 152.725 20.9146C153.498 20.9146 154.13 21.195 154.691 21.6856C155.042 22.036 155.323 22.4566 155.183 22.9472C154.972 23.9985 154.41 25.7507 154.2 29.115C155.534 29.0449 159.746 28.6244 159.886 28.6244C160.097 25.3302 160.799 22.7369 161.08 22.036C161.501 21.1249 162.203 20.6343 163.186 20.6343C163.748 20.6343 164.309 20.8445 164.941 21.1249C165.432 21.4052 165.713 21.8258 165.713 22.3164C165.643 23.7182 165.503 25.1199 165.152 26.5217C164.801 28.2038 164.099 31.9886 164.028 33.9511C163.958 35.8435 164.099 37.3153 163.677 38.4367C163.397 39.2077 162.694 39.4881 161.992 39.4881C161.641 39.4881 161.361 39.418 161.01 39.2077C160.167 38.7872 159.746 37.1051 159.746 34.2314L159.816 32.6895L159.886 31.0074C157.359 31.1475 157.219 31.2877 154.27 31.4279C154.27 32.6194 154.34 33.8109 154.41 34.9323C154.551 36.1939 154.621 37.3153 154.551 38.2966C154.481 39.3479 153.427 39.6983 152.374 39.6983Z" fill="#C4161D"/>
<path d="M136.578 21.6857C137.351 22.1764 137.351 22.8072 137.21 23.6482C136.859 25.821 136.508 27.9937 136.157 30.1665C136.017 31.358 135.947 32.4093 135.947 33.3905C135.947 34.0213 135.947 36.2642 136.368 36.8249C136.859 36.8249 137.561 35.7034 138.544 33.8811C139.878 31.2879 141.633 26.5919 142.827 22.8072C143.037 22.1764 143.388 21.6157 144.09 21.4755C145.354 21.1951 147.179 21.5456 147.601 22.8773C147.811 23.508 147.811 24.2089 147.741 24.8397C147.671 28.6245 147.46 31.2879 147.109 35.353C147.039 36.4043 146.828 37.2454 146.618 37.8762C146.337 38.8574 145.565 39.6284 144.582 39.7686C143.529 39.9088 142.546 39.4181 142.054 38.507C141.914 38.2266 141.774 37.8762 141.774 37.5958C141.774 36.7548 142.335 34.0914 142.616 32.6196C142.616 32.6196 142.335 33.2504 142.265 33.3905C141.914 34.2316 141.493 35.1427 141.001 35.9838C140.51 36.8249 139.948 37.5958 139.246 38.2266C138.334 39.0677 137.21 39.4882 135.806 39.4882C134.683 39.4882 133.77 39.2079 132.928 38.5771C132.085 37.8061 131.594 36.8949 131.383 35.7735C131.173 34.8624 131.103 33.9512 131.103 33.0401L131.173 31.7084C131.243 30.0964 131.454 28.4843 131.734 26.9424C131.945 25.5406 132.226 24.2089 132.717 22.8773C133.138 21.7558 133.7 20.9849 134.964 20.9849C135.525 21.1951 136.087 21.3353 136.578 21.6857Z" fill="#C4161D"/>
<path d="M45.2424 39.418C44.8914 39.2078 44.6106 38.9274 44.4702 38.577C44.1893 37.8761 44.1191 37.035 44.1191 35.9136C44.1893 32.6194 44.3298 29.4655 44.751 26.3816C45.102 23.3678 45.5934 20.4941 46.2253 17.6205L46.3657 16.9897C46.5061 16.1487 46.7167 15.3076 47.1379 14.5366C47.5592 13.9759 48.191 13.6956 49.1037 13.6956C49.6653 13.6956 50.1567 13.8357 50.7184 14.1161C51.2098 14.3964 51.5608 14.8871 51.631 15.5179V15.658C51.631 16.429 51.4906 17.2 51.28 17.9009L51.0694 18.6718C50.5077 21.4053 50.0163 24.2088 49.6653 27.0124C50.9992 25.7508 52.1927 24.2789 53.3861 22.6669C54.7902 20.6343 55.7731 18.6718 56.2645 16.7795C56.4751 16.1487 56.6857 15.4478 56.8964 14.817C57.1772 14.2563 57.7388 13.9759 58.6515 13.9759C59.2833 13.9759 59.8449 14.1862 60.4066 14.6067C60.8278 14.9572 61.0384 15.3076 61.0384 15.7982C61.0384 16.6393 60.898 17.4102 60.6172 18.2513C59.2131 22.4566 56.9666 25.8209 53.8074 28.274L53.7372 28.344C53.0351 28.9047 52.2629 29.3954 51.4906 29.9561C53.3159 31.3578 55.7731 33.7409 56.9666 35.4931C58.2302 37.3855 58.6515 38.2966 57.6686 39.2078C56.7559 40.0488 55.4923 38.9274 55.071 38.4368C54.6498 37.8761 53.667 36.6145 53.0351 35.7033C52.1927 34.652 50.6482 32.5494 49.1037 31.4279C49.0335 32.4793 48.893 33.7409 48.8228 35.1426L48.7526 36.3341C48.7526 37.2453 48.6122 38.1564 48.2612 38.9274C47.9804 39.418 47.4188 39.6984 46.5763 39.6984C46.1551 39.8386 45.6636 39.6984 45.2424 39.418Z" fill="#C4161D"/>
<path d="M114.956 25.5406C114.885 24.8397 114.745 23.1576 114.183 22.1763C113.552 21.125 112.007 20.9848 110.954 21.4054C109.69 21.9661 109.199 23.2277 108.567 24.3491C108.005 25.4705 104.636 32.0588 103.512 33.8811C103.021 32.7597 102.459 31.2178 101.687 29.1852C101.196 27.8535 100.774 26.4517 100.283 25.1901C99.9318 24.2089 99.3702 22.4567 98.8788 21.8259C98.4575 21.2652 97.8257 21.0549 97.0534 21.0549C95.9302 21.0549 94.9473 21.5456 94.5963 22.3866C93.824 24.2089 93.122 27.2928 92.9816 31.9887C92.9114 33.6709 92.771 37.4556 93.0518 38.2967C93.3326 39.2079 94.8771 39.6284 95.7898 39.6284C96.2812 39.6284 96.7024 39.4181 97.1236 39.0677C97.2641 38.9275 97.4045 38.7172 97.4045 38.507C97.6151 37.2454 97.6853 33.3905 97.7555 32.199C97.9661 29.6758 98.1065 28.8348 98.1767 28.4843C98.1767 28.5544 99.4404 32.3392 100.213 34.0914C100.844 35.5633 101.476 37.3855 103.442 37.4556C104.285 37.4556 104.987 37.0351 105.478 36.124C105.969 35.2128 106.671 33.9512 107.303 32.8298C108.146 31.2879 108.848 30.0263 109.339 28.9048C109.62 28.4142 109.831 27.9937 110.041 27.5732C110.111 28.274 109.971 29.2553 109.971 29.6057C109.901 31.7084 109.55 33.811 109.269 35.9137C109.199 36.5445 109.058 37.2454 109.129 37.8762C109.269 38.9976 110.392 39.6284 111.445 39.6284C111.796 39.6284 112.428 39.6284 112.779 39.4181C113.622 38.9976 113.903 37.736 114.324 35.1427C114.605 33.6008 114.675 31.9887 114.745 30.4468C114.885 28.9749 115.026 26.5919 114.956 25.5406Z" fill="#C4161D"/>
<path d="M15.206 3.99499C15.8181 4.41799 16.4301 4.79399 16.9008 5.07599C16.7125 5.54599 16.6184 6.01599 16.4771 6.48599C16.4301 6.72099 16.383 6.90899 16.2888 7.14399C16.1947 7.37899 16.2888 7.66099 16.4771 7.80199C16.6184 7.89599 16.7596 7.94299 16.9008 7.94299C16.995 7.94299 17.0891 7.94299 17.1833 7.89599C17.8424 7.56699 18.5015 7.14399 19.2547 6.53299C19.5372 6.72099 19.8197 6.90899 20.1021 7.04999C20.4787 7.28499 20.8554 7.51999 21.232 7.80199C21.4674 7.94299 21.7498 7.94299 21.9382 7.80199C22.1735 7.66099 22.2677 7.37899 22.2206 7.14399C22.1265 6.53299 21.9382 5.96899 21.7498 5.45199C21.7028 5.35799 21.6557 5.21699 21.6557 5.12299C22.2677 4.60599 22.9268 3.99499 23.3976 3.525C23.5859 3.337 23.633 3.055 23.5388 2.82C23.4446 2.585 23.2093 2.444 22.9268 2.397C22.2206 2.397 21.4203 2.397 20.6671 2.444C20.4787 1.739 20.2434 1.034 19.9138 0.376C19.8197 0.141 19.5843 0 19.3018 0C19.0664 0 18.831 0.141 18.7369 0.376C18.5486 0.845999 18.4073 1.222 18.219 1.598C18.1249 1.88 18.0307 2.162 17.8895 2.444C17.3245 2.491 16.6184 2.632 16.0534 2.726C15.8651 2.773 15.6297 2.773 15.4885 2.82C15.206 2.867 15.0177 3.055 14.9707 3.29C14.8765 3.572 14.9707 3.80699 15.206 3.99499ZM18.3602 3.713C18.5956 3.713 18.831 3.525 18.9252 3.337C19.0664 3.008 19.1606 2.726 19.3018 2.444C19.396 2.726 19.443 3.008 19.5372 3.29C19.5843 3.61899 19.9138 3.80699 20.2434 3.80699C20.5729 3.75999 20.9495 3.75999 21.3261 3.75999C21.0437 3.99499 20.8083 4.22999 20.5729 4.41799C20.3846 4.60599 20.2904 4.84099 20.3375 5.12299C20.4317 5.35799 20.4787 5.59299 20.5729 5.82799C20.2434 5.63999 19.9609 5.45199 19.6784 5.21699C19.443 5.02899 19.1135 5.07599 18.8781 5.26399C18.5956 5.49899 18.3602 5.73399 18.0778 5.92199C18.1719 5.63999 18.2661 5.35799 18.4073 5.07599C18.5015 4.93499 18.5015 4.74699 18.4073 4.55899C18.3602 4.41799 18.219 4.27699 18.0307 4.18299C17.8424 4.13599 17.6541 3.99499 17.4187 3.854C17.7482 3.76 18.0778 3.713 18.3602 3.713Z" fill="#C4161D"/>
<path d="M18.1253 37.882C18.549 38.023 19.0198 38.07 19.4435 38.07C20.8087 38.07 22.1269 37.412 22.8801 36.284C23.9158 34.78 23.7275 32.618 22.5035 31.255C21.7973 30.456 20.9029 29.751 19.2551 29.751C17.5603 29.751 15.1123 30.973 15.1123 33.699C15.2065 35.767 16.2892 37.271 18.1253 37.882ZM19.3022 31.443C20.2438 31.443 20.7616 31.772 21.3266 32.43C22.0327 33.229 22.1269 34.545 21.562 35.438C20.9499 36.331 19.7259 36.707 18.6431 36.378C17.1366 35.861 16.8071 34.686 16.8071 33.746C16.8071 31.866 18.6902 31.443 19.3022 31.443Z" fill="#C4161D"/>
<path d="M28.9531 40.8431V37.3651C28.9531 36.8951 28.5765 36.5661 28.1528 36.5661C27.682 36.5661 27.3524 36.9421 27.3524 37.3651V39.4331C26.9287 39.1511 26.505 38.8691 26.1284 38.5401C26.3167 35.5791 26.505 30.7381 26.5992 27.7301C26.5992 27.4951 26.505 27.2131 26.2696 27.0721C26.0813 26.9311 25.7989 26.8371 25.5635 26.9311C25.4222 26.9781 25.281 27.0251 25.1398 27.0251C25.1398 26.2731 25.0927 25.4741 25.0927 24.6281C25.0927 24.0171 25.0456 23.3591 25.0456 22.6071C25.0456 22.1841 24.669 21.8081 24.2453 21.8081C24.0099 21.8081 23.8216 21.8081 23.5862 21.8081C23.2567 20.4451 23.0213 19.0821 22.7388 17.7661C22.0797 14.4761 21.4206 11.0922 20.0554 7.80216C19.9141 7.47316 19.6317 7.28516 19.2551 7.28516C18.9255 7.28516 18.596 7.52016 18.5018 7.84916C17.0424 12.5491 15.7713 17.0611 14.6885 21.6671C14.5002 21.6671 14.359 21.6671 14.1707 21.6671C13.9353 21.6671 13.747 21.7611 13.6057 21.9021C13.4645 22.0431 13.3703 22.2781 13.3703 22.4661V23.5471C13.3703 24.8161 13.3703 26.0381 13.3703 27.2601C13.182 27.2131 13.0408 27.2131 12.8525 27.1661C12.6171 27.1191 12.3817 27.2131 12.1934 27.3541C12.0051 27.4951 11.9109 27.7301 11.9109 27.9651C11.9109 30.5971 12.1463 34.0751 12.2876 36.8481C12.3346 37.2711 12.3346 37.6471 12.3817 38.0231C11.9109 38.3991 11.4872 38.7281 11.0635 39.1511V37.2711C11.0635 36.8481 10.6869 36.4721 10.2632 36.4721C9.79243 36.4721 9.46289 36.8481 9.46289 37.2711L9.50997 40.9371C9.50997 42.9581 9.50997 44.4621 9.6512 45.9661C9.69828 46.3891 10.0278 46.7181 10.4515 46.7181C13.3703 46.7181 16.5246 46.8121 19.82 46.8591C22.6447 46.9061 25.5164 47.0001 28.3411 47.0001C28.5764 47.0001 28.7648 46.9061 28.906 46.7651C29.0472 46.6241 29.1414 46.3891 29.1414 46.2011C29.1414 45.2611 29.1414 44.4151 29.0943 43.5691C29.0002 42.7701 28.9531 41.8771 28.9531 40.8431ZM13.9824 38.3991C13.9353 37.9291 13.9353 37.3651 13.8882 36.8481C13.747 34.4041 13.5587 31.4901 13.5116 29.0461C13.9824 29.1401 14.4061 29.2341 14.7827 29.3281C15.4418 29.4691 16.0067 29.6101 16.5246 29.6571C16.7599 29.7041 17.0424 29.6101 17.2307 29.4221C17.5132 29.0931 17.8427 28.8111 18.1723 28.5291C18.5489 28.2001 18.8784 27.8241 19.2551 27.4481C20.0083 28.2001 20.9969 29.0931 21.3265 29.2811C21.5148 29.3751 21.7031 29.4221 21.8914 29.4221C22.833 29.2811 23.7745 29.0931 24.9515 28.8111C24.8573 31.6781 24.669 35.6731 24.5278 38.2581C23.9628 38.7281 23.2567 39.1981 22.5976 39.5741C22.3151 39.7621 22.0797 39.9031 21.8443 40.0441C20.9969 39.4801 19.9141 38.7751 19.5846 38.6341C19.3492 38.4931 19.0197 38.4931 18.7372 38.6341C18.5489 38.7281 18.3606 38.8221 18.1252 38.9631C17.6073 39.2451 16.9012 39.6211 16.2892 40.0441C15.3476 39.4331 14.5473 38.8691 13.9824 38.3991ZM19.3492 10.7162C20.1495 13.1131 20.6203 15.5571 21.1382 18.1421C21.3736 19.3641 21.6089 20.6331 21.8914 21.8551C20.1495 21.8551 18.3135 21.8081 16.3362 21.7611C17.2307 18.0951 18.2193 14.4761 19.3492 10.7162ZM14.971 23.6411V23.4061C15.0651 23.4061 15.2064 23.4061 15.3005 23.4061C15.3005 23.4061 15.3005 23.4061 15.3476 23.4061C18.3606 23.4531 20.9028 23.5001 23.445 23.5001C23.445 23.9231 23.4921 24.3461 23.4921 24.7691C23.5391 25.7561 23.5391 26.6021 23.5391 27.4951C23.0213 27.6361 22.5034 27.7301 22.0326 27.7771C21.5619 27.3541 20.4791 26.3671 19.82 25.7091C19.6788 25.5211 19.4434 25.4271 19.1609 25.4741C18.9255 25.4741 18.6901 25.6151 18.5489 25.8031C18.1252 26.3671 17.6073 26.8371 17.0424 27.3541C16.807 27.5421 16.5716 27.7771 16.3833 28.0121C16.0067 27.9651 15.6301 27.8711 15.1593 27.7301C15.1122 27.7301 15.0181 27.6831 14.971 27.6831C14.971 26.3671 14.971 25.0511 14.971 23.6411ZM19.7729 45.4021C16.7129 45.3551 13.8411 45.2611 11.1106 45.2611C11.0635 44.1331 11.0635 43.0051 11.0635 41.4541C11.3931 41.1721 11.6755 40.8901 11.958 40.6551C12.3346 40.3261 12.6642 39.9971 13.0408 39.6681C13.6999 40.2321 14.6885 40.8901 15.9596 41.6891C16.2421 41.8771 16.5716 41.8771 16.8541 41.6891C17.5603 41.2191 18.3606 40.7491 19.0197 40.3731C19.0667 40.3261 19.1609 40.2791 19.208 40.2791C19.82 40.6551 20.8086 41.3131 21.4677 41.7361C21.7502 41.9241 22.1268 41.9241 22.4093 41.6891C22.6917 41.4541 23.1154 41.2191 23.5391 40.9371C24.057 40.6081 24.669 40.2321 25.1869 39.8091C25.893 40.3731 26.6463 40.8901 27.3995 41.2661C27.3995 42.1121 27.3995 42.9111 27.4466 43.7101C27.4466 44.2741 27.4937 44.8851 27.4937 45.4961C24.8573 45.5431 22.268 45.4961 19.7729 45.4021Z" fill="#C4161D"/>
<path d="M18.9253 41.9241C18.4545 41.9241 18.125 42.3001 18.125 42.7231V43.7101C18.125 44.1801 18.5016 44.5091 18.9253 44.5091C19.3961 44.5091 19.7256 44.1331 19.7256 43.7101V42.7231C19.7727 42.2531 19.3961 41.9241 18.9253 41.9241Z" fill="#C4161D"/>
<path d="M24.9038 41.9241C24.4331 41.9241 24.1035 42.3001 24.1035 42.7231V43.8041C24.1035 44.2741 24.4801 44.6031 24.9038 44.6031C25.3746 44.6031 25.7042 44.2271 25.7042 43.8041V42.7231C25.7042 42.2531 25.3275 41.9241 24.9038 41.9241Z" fill="#C4161D"/>
<path d="M13.2759 41.9241C12.8051 41.9241 12.4756 42.3001 12.4756 42.7231V43.8041C12.4756 44.2741 12.8522 44.6031 13.2759 44.6031C13.7467 44.6031 14.0762 44.2271 14.0762 43.8041V42.7231C14.0762 42.2531 13.6996 41.9241 13.2759 41.9241Z" fill="#C4161D"/>
<path d="M1.6948 30.362C1.6948 22.466 7.06166 15.51 14.6883 13.442C15.159 13.301 15.3944 12.878 15.3003 12.408C15.159 11.938 14.7353 11.703 14.2646 11.797C5.88472 14.053 0 21.667 0 30.362C0 35.814 2.35389 41.031 6.40258 44.65C6.54381 44.791 6.7792 44.885 6.96751 44.885C7.2029 44.885 7.43829 44.791 7.57952 44.603C7.90907 44.274 7.86198 43.71 7.53244 43.428C3.86038 40.044 1.6948 35.297 1.6948 30.362Z" fill="#C4161D"/>
<path d="M23.9155 11.703C23.4448 11.609 23.0211 11.844 22.8798 12.314C22.7857 12.784 23.0211 13.207 23.4918 13.348C31.3067 15.275 36.7678 22.278 36.7678 30.315C36.7678 35.297 34.6493 40.044 30.9301 43.334C30.6006 43.663 30.5535 44.18 30.883 44.509C31.0714 44.697 31.2597 44.791 31.4951 44.791C31.6834 44.791 31.9188 44.697 32.06 44.556C36.1087 40.937 38.4626 35.72 38.4626 30.268C38.4626 21.526 32.4837 13.865 23.9155 11.703Z" fill="#C4161D"/>
</svg>
