<svg width="105" height="80" viewBox="0 0 105 80" fill="none" xmlns="http://www.w3.org/2000/svg">
<path d="M30.5886 74.7246C29.6731 74.7246 28.7576 74.5099 27.7882 74.0267C27.0343 73.5973 26.4419 73.0605 25.9572 72.3626C25.4725 71.6111 25.2033 70.8058 25.1494 69.8933V69.3564C25.1494 67.8534 25.4187 66.3503 25.9572 64.9009C26.6034 63.1831 27.6267 61.9484 29.0268 61.1969C29.9962 60.7137 30.9655 60.4453 31.9888 60.4453C32.7427 60.4453 33.4428 60.6064 34.1429 60.8748C35.0045 61.2505 35.6508 61.841 36.0816 62.5926C36.3509 63.022 36.4586 63.4515 36.4586 63.9346C36.4586 64.3104 36.4047 64.7398 36.2431 65.1156C35.7585 66.2429 35.0045 67.1018 33.9275 67.6386C32.5811 68.3902 31.0732 68.8196 29.4577 68.8733H28.973C28.973 69.1417 28.9191 69.4101 28.9191 69.6785V69.9469C28.973 71.3427 29.2961 72.2016 29.8885 72.47C30.1577 72.5773 30.427 72.6847 30.7501 72.6847H30.804C31.7195 72.631 32.4734 71.9868 33.1197 70.7522L33.4966 70.108C33.7659 69.7859 34.089 69.6249 34.5198 69.6249C34.8968 69.6249 35.1661 69.7322 35.4892 69.8933C35.7585 70.0543 35.92 70.3227 35.92 70.5911V70.8058C35.7585 71.6111 35.4353 72.3089 34.8968 72.8994C33.8736 74.1341 32.5273 74.7783 30.8578 74.832H30.5886V74.7246ZM29.35 66.8871L29.7269 66.8334C30.5886 66.7261 31.3964 66.4576 32.1503 65.9745C32.7427 65.5987 33.2274 65.0619 33.4966 64.3104C33.5505 64.203 33.5505 64.042 33.5505 63.8809C33.5505 63.4515 33.3889 63.1831 33.012 63.0757C32.9581 63.0757 32.8504 63.0757 32.7965 63.0757C32.0426 63.0757 31.3425 63.4515 30.6424 64.1493C29.9423 64.9546 29.4577 65.8671 29.2422 66.8871H29.35Z" fill="white"/>
<path d="M96.3966 74.2415C94.8887 73.4363 94.1348 72.148 94.1348 70.4301C94.1348 70.0544 94.1886 69.6786 94.2425 69.2492C94.4579 68.2292 94.8349 67.424 95.4811 66.7261C96.1812 65.9746 97.0967 65.6525 98.2814 65.6525C99.4124 65.6525 100.489 66.0819 101.351 66.7798C101.351 66.7798 101.243 65.3841 101.082 64.4715C100.974 63.881 100.813 63.3979 100.543 62.9147C100.274 62.4853 99.7893 62.2706 99.0892 62.2706C98.7123 62.2706 98.2814 62.3779 97.8506 62.5926C97.4198 62.8074 97.0428 63.1831 96.7197 63.6663C96.5043 63.9884 96.235 64.1494 95.8042 64.1494C95.4811 64.1494 95.158 64.042 94.8887 63.881C94.1886 63.3979 94.5656 62.4853 94.9964 61.9485C95.4811 61.2506 96.2889 60.8748 97.0428 60.6064C98.0122 60.2843 98.8738 60.1233 99.6278 60.1233C100.436 60.1233 101.297 60.338 102.159 60.7138C103.021 61.0896 103.721 61.8411 104.205 62.861C105.39 65.3304 105.013 68.2829 104.582 70.8596C104.475 71.5038 104.313 72.0943 104.151 72.6848C103.99 73.2216 103.667 73.7047 103.29 74.0268C102.967 74.2952 102.644 74.4026 102.32 74.4026C102.105 74.4026 101.89 74.3489 101.674 74.2952C100.866 74.7247 100.005 74.8857 99.0892 74.8857C98.0122 74.832 97.1505 74.671 96.3966 74.2415ZM100.813 72.309C100.813 71.8259 100.759 71.0206 100.705 70.4301C100.651 69.786 100.382 69.1418 100.005 68.605C99.8432 68.3366 99.5739 68.0682 99.3047 67.9608C98.9277 67.7997 98.6584 68.0682 98.4969 68.3902C98.3892 68.5513 98.2814 68.766 98.2276 68.9807C98.0122 69.4639 97.9045 69.947 97.8506 70.4301C97.7968 70.6449 97.7968 70.8596 97.7968 71.0743C97.7968 71.6648 97.9583 72.4164 98.6046 72.5237C99.3585 72.6848 100.166 72.5774 100.813 72.309Z" fill="white"/>
<path d="M14.648 79.0728C14.2172 79.0728 13.7863 78.9117 13.4094 78.7507C12.9247 78.5359 12.6554 78.0528 12.6016 77.355C12.6016 76.7645 12.6016 76.174 12.6016 75.5835C12.6016 72.2015 12.817 66.6723 13.1939 63.3441C13.2478 62.6462 13.3555 62.0557 13.6248 61.5726C13.9479 61.0895 14.3787 60.821 15.025 60.821C15.4019 60.821 15.7789 60.9284 16.1559 61.0895C16.6944 61.3579 17.0175 61.841 17.0175 62.5389V62.8609C17.556 62.1631 18.2023 61.6263 18.9562 61.2505C19.4948 60.9821 20.0333 60.821 20.5718 60.821C21.7027 60.821 22.5644 61.1968 23.2106 61.9484C24.0723 62.9146 24.4492 64.203 24.4492 65.7597C24.4492 66.8871 24.18 67.9607 23.5876 68.927C22.9952 69.8932 22.2413 70.6985 21.2719 71.2889C20.1948 71.9868 18.9562 72.3089 17.556 72.3089C17.1252 72.3089 16.6944 72.2552 16.2636 72.2015V75.9592V77.5697C16.2636 78.1602 15.8866 78.697 15.3481 78.9117C15.1327 79.0191 14.9172 79.0728 14.648 79.0728ZM17.1252 69.8932C18.687 69.6248 20.0871 68.6049 20.6795 67.1018C20.9488 66.4576 21.0565 65.8134 21.0565 65.1692C21.0565 64.8472 21.0026 64.5251 20.9488 64.0956C20.8949 63.6662 20.7334 63.0757 20.4641 62.9683C20.2487 62.8609 19.6563 63.2904 19.5486 63.3978C18.8485 63.9883 18.4177 64.9545 18.0407 65.8134C17.6099 66.7797 17.2868 67.746 16.9637 68.7659C16.856 69.1417 16.7482 69.5711 16.6405 69.9469C16.8021 69.9469 16.9637 69.8932 17.1252 69.8932Z" fill="white"/>
<path d="M63.2232 61.4652C63.9232 62.2168 64.2464 63.183 64.4618 64.1493C64.731 65.2766 64.8926 66.4039 65.0542 67.5312C65.2157 68.7659 65.3234 70.0006 65.3773 71.2353C65.4311 72.0405 65.5388 72.9531 65.3234 73.7046C65.108 74.4025 64.6233 74.7783 63.8155 74.7783C63.4386 74.7783 63.0616 74.6709 62.6308 74.4562C62.0922 74.1878 61.7691 73.6509 61.7153 73.0604C61.5537 72.0405 61.6076 71.0205 61.5537 70.0006C61.4999 69.1954 61.3921 68.3901 61.3383 67.5849C61.1767 66.4576 61.0152 65.3303 60.7459 64.203L60.2074 65.0082C58.6456 67.746 57.6763 70.6448 57.3532 73.812C57.2455 74.2951 56.9223 74.5635 56.3838 74.5635C56.0607 74.5635 55.7376 74.4562 55.4145 74.2951C55.0913 74.1341 54.8759 73.812 54.8759 73.4362C54.8221 72.8994 54.9836 72.3089 55.0913 71.7721C55.4145 70.108 55.8453 68.4975 56.4915 66.9407C57.2993 65.0082 58.2687 63.183 59.5611 61.5189C60.0458 60.8747 60.6382 60.6063 61.3383 60.6063C62.0384 60.6063 62.6846 60.8747 63.2232 61.4652Z" fill="white"/>
<path d="M83.0413 74.7783C82.2335 74.7783 81.4257 74.4025 81.2641 73.812C81.0487 73.1141 80.8872 72.3626 80.8333 71.611C80.7256 70.3227 80.5641 67.2092 80.8872 65.0082C81.1026 63.6125 81.1564 62.6999 81.6411 61.4652C81.9104 60.7674 82.5028 60.3916 83.3106 60.3916C83.903 60.3916 84.3876 60.6063 84.8185 60.9821C85.0877 61.2505 85.3031 61.5726 85.1954 61.9484C85.0339 62.7536 84.603 64.0956 84.4415 66.6723C85.4647 66.6187 88.6959 66.2966 88.8036 66.2966C88.9651 63.7735 89.5037 61.7873 89.7191 61.2505C90.0422 60.5527 90.5807 60.1769 91.3347 60.1769C91.7655 60.1769 92.1963 60.3379 92.681 60.5526C93.058 60.7674 93.2734 61.0895 93.2734 61.4652C93.2195 62.5389 93.1118 63.6125 92.8426 64.6861C92.5733 65.9745 92.0348 68.8733 91.9809 70.3764C91.9271 71.8258 92.0348 72.9531 91.7116 73.812C91.4962 74.4025 90.9577 74.6172 90.4192 74.6172C90.1499 74.6172 89.9345 74.5635 89.6652 74.4025C89.019 74.0804 88.6959 72.792 88.6959 70.5911L88.7497 69.4101L88.8036 68.1217C86.8649 68.2291 86.7572 68.3365 84.4953 68.4438C84.4953 69.3564 84.5492 70.269 84.603 71.1279C84.7108 72.0942 84.7646 72.9531 84.7107 73.7046C84.6569 74.5099 83.8491 74.7783 83.0413 74.7783Z" fill="white"/>
<path d="M70.9242 60.9821C71.5166 61.3579 71.5166 61.841 71.4089 62.4852C71.1396 64.1493 70.8703 65.8135 70.6011 67.4776C70.4934 68.3902 70.4395 69.1954 70.4395 69.9469C70.4395 70.4301 70.4395 72.1479 70.7626 72.5773C71.1396 72.5773 71.6781 71.7184 72.4321 70.3227C73.4553 68.3365 74.8016 64.7398 75.7171 61.841C75.8787 61.3579 76.1479 60.9284 76.6864 60.8211C77.6558 60.6064 79.056 60.8748 79.3791 61.8947C79.5407 62.3778 79.5407 62.9147 79.4868 63.3978C79.433 66.2966 79.2714 68.3365 79.0021 71.45C78.9483 72.2552 78.7867 72.8994 78.6252 73.3826C78.4097 74.1341 77.8174 74.7246 77.0634 74.832C76.2556 74.9393 75.5017 74.5635 75.1247 73.8657C75.017 73.651 74.9093 73.3826 74.9093 73.1678C74.9093 72.5237 75.3401 70.4838 75.5555 69.3564C75.5555 69.3564 75.3401 69.8396 75.2863 69.9469C75.017 70.5911 74.6939 71.289 74.3169 71.9332C73.9399 72.5773 73.5091 73.1678 72.9706 73.651C72.2705 74.2951 71.4089 74.6172 70.3318 74.6172C69.4701 74.6172 68.7701 74.4025 68.1238 73.9194C67.4776 73.3289 67.1006 72.631 66.939 71.7721C66.7775 71.0743 66.7236 70.3764 66.7236 69.6785L66.7775 68.6586C66.8313 67.4239 66.9929 66.1892 67.2083 65.0082C67.3699 63.9346 67.5853 62.9147 67.9623 61.8947C68.2854 61.0358 68.7162 60.4453 69.6856 60.4453C70.1164 60.6064 70.5472 60.7137 70.9242 60.9821Z" fill="white"/>
<path d="M0.861649 74.5635C0.592384 74.4025 0.376971 74.1878 0.269265 73.9194C0.053853 73.3826 0 72.7384 0 71.8795C0.0538531 69.3564 0.161559 66.9408 0.484677 64.5788C0.753943 62.2705 1.13091 60.0695 1.61559 57.8686L1.7233 57.3855C1.831 56.7413 1.99256 56.0971 2.31568 55.5066C2.6388 55.0772 3.12348 54.8624 3.82357 54.8624C4.25439 54.8624 4.63136 54.9698 5.06219 55.1845C5.43916 55.3992 5.70842 55.775 5.76228 56.2581V56.3655C5.76228 56.956 5.65457 57.5465 5.49301 58.0833L5.33145 58.6738C4.90063 60.7674 4.52366 62.9147 4.25439 65.0619C5.2776 64.0956 6.1931 62.9683 7.1086 61.7337C8.18566 60.1769 8.93961 58.6738 9.31658 57.2244C9.47814 56.7413 9.6397 56.2045 9.80126 55.7213C10.0167 55.2919 10.4475 55.0772 11.1476 55.0772C11.6323 55.0772 12.0631 55.2382 12.4939 55.5603C12.817 55.8287 12.9786 56.0971 12.9786 56.4729C12.9786 57.1171 12.8709 57.7075 12.6555 58.3517C11.5784 61.5726 9.85511 64.1493 7.43172 66.0282L7.37787 66.0819C6.83934 66.5113 6.24695 66.8871 5.65457 67.3165C7.05475 68.3902 8.93961 70.2153 9.85511 71.5574C10.8245 73.0068 11.1476 73.7046 10.3936 74.4025C9.69355 75.0467 8.72419 74.1878 8.40108 73.812C8.07796 73.3826 7.32402 72.4163 6.83934 71.7184C6.1931 70.9132 5.00833 69.3028 3.82357 68.4439C3.76971 69.2491 3.66201 70.2153 3.60816 71.289L3.5543 72.2016C3.5543 72.8994 3.4466 73.5973 3.17733 74.1878C2.96192 74.5635 2.53109 74.7783 1.88486 74.7783C1.56174 74.8856 1.18477 74.7783 0.861649 74.5635Z" fill="white"/>
<path d="M54.3373 63.9346C54.2834 63.3978 54.1757 62.1095 53.7449 61.3579C53.2602 60.5527 52.0754 60.4453 51.2676 60.7674C50.2983 61.1969 49.9213 62.1631 49.4366 63.0221C49.0058 63.881 46.4209 68.927 45.5592 70.3227C45.1823 69.4638 44.7514 68.2828 44.159 66.7261C43.7821 65.7061 43.459 64.6325 43.082 63.6662C42.8127 62.9147 42.3819 61.5727 42.0049 61.0895C41.6818 60.6601 41.1971 60.499 40.6047 60.499C39.7431 60.499 38.9892 60.8748 38.7199 61.519C38.1275 62.9147 37.589 65.2767 37.4813 68.8733C37.4274 70.1617 37.3197 73.0605 37.5351 73.7047C37.7505 74.4025 38.9353 74.7246 39.6354 74.7246C40.0124 74.7246 40.3355 74.5636 40.6586 74.2952C40.7663 74.1878 40.874 74.0268 40.874 73.8657C41.0356 72.8995 41.0894 69.947 41.1433 69.0344C41.3048 67.1018 41.4125 66.4577 41.4664 66.1893C41.4664 66.2429 42.4357 69.1418 43.0281 70.4838C43.5128 71.6111 43.9975 73.0068 45.5054 73.0605C46.1516 73.0605 46.6901 72.7384 47.0671 72.0406C47.4441 71.3427 47.9826 70.3764 48.4673 69.5175C49.1135 68.3365 49.6521 67.3703 50.029 66.5114C50.2444 66.1356 50.406 65.8135 50.5676 65.4914C50.6214 66.0282 50.5137 66.7798 50.5137 67.0482C50.4599 68.6586 50.1906 70.2691 49.9752 71.8795C49.9213 72.3626 49.8136 72.8995 49.8675 73.3826C49.9752 74.2415 50.8368 74.7246 51.6446 74.7246C51.9139 74.7246 52.3986 74.7246 52.6678 74.5636C53.3141 74.2415 53.5295 73.2752 53.8526 71.289C54.068 70.108 54.1219 68.8733 54.1757 67.6923C54.2834 66.565 54.3911 64.7399 54.3373 63.9346Z" fill="white"/>
<path d="M47.9287 4.56293C48.6288 5.04606 49.3289 5.47552 49.8674 5.79761C49.652 6.33442 49.5443 6.87124 49.3827 7.40805C49.3289 7.67646 49.275 7.89118 49.1673 8.15959C49.0596 8.428 49.1673 8.75009 49.3827 8.91113C49.5443 9.0185 49.7059 9.07218 49.8674 9.07218C49.9751 9.07218 50.0828 9.07218 50.1905 9.0185C50.9445 8.64273 51.6984 8.15959 52.5601 7.46173C52.8832 7.67646 53.2063 7.89118 53.5294 8.05223C53.9602 8.32064 54.3911 8.58904 54.8219 8.91113C55.0912 9.07218 55.4143 9.07218 55.6297 8.91113C55.899 8.75009 56.0067 8.428 55.9528 8.15959C55.8451 7.46173 55.6297 6.81755 55.4143 6.22706C55.3604 6.11969 55.3066 5.95865 55.3066 5.85129C56.0067 5.26079 56.7606 4.56293 57.2991 4.02611C57.5145 3.81139 57.5684 3.4893 57.4607 3.22089C57.353 2.95248 57.0837 2.79144 56.7606 2.73776C55.9528 2.73776 55.0373 2.73776 54.1757 2.79144C53.9602 1.98622 53.691 1.18099 53.314 0.429452C53.2063 0.161045 52.937 0 52.6139 0C52.3447 0 52.0754 0.161045 51.9677 0.429452C51.7523 0.966268 51.5907 1.39572 51.3753 1.82517C51.2676 2.14726 51.1599 2.46935 50.9983 2.79144C50.3521 2.84512 49.5443 3.00617 48.8981 3.11353C48.6826 3.16721 48.4134 3.16721 48.2518 3.22089C47.9287 3.27457 47.7133 3.4893 47.6594 3.75771C47.5517 4.0798 47.6594 4.3482 47.9287 4.56293ZM51.5369 4.24084C51.8061 4.24084 52.0754 4.02611 52.1831 3.81139C52.3447 3.43562 52.4524 3.11353 52.6139 2.79144C52.7216 3.11353 52.7755 3.43562 52.8832 3.75771C52.937 4.13348 53.314 4.3482 53.691 4.3482C54.0679 4.29452 54.4988 4.29452 54.9296 4.29452C54.6065 4.56293 54.3372 4.83134 54.068 5.04606C53.8525 5.26079 53.7448 5.5292 53.7987 5.85129C53.9064 6.11969 53.9602 6.3881 54.068 6.65651C53.691 6.44178 53.3679 6.22706 53.0447 5.95865C52.7755 5.74392 52.3985 5.79761 52.1292 6.01233C51.8061 6.28074 51.5369 6.54915 51.2137 6.76387C51.3214 6.44178 51.4292 6.11969 51.5907 5.79761C51.6984 5.63656 51.6984 5.42183 51.5907 5.20711C51.5369 5.04606 51.3753 4.88502 51.1599 4.77766C50.9445 4.72397 50.7291 4.56293 50.4598 4.40189C50.8368 4.29452 51.2137 4.24084 51.5369 4.24084Z" fill="white"/>
<path d="M51.2679 43.2674C51.7526 43.4284 52.2911 43.4821 52.7758 43.4821C54.3375 43.4821 55.8454 42.7306 56.707 41.4422C57.8918 39.7244 57.6764 37.255 56.2762 35.6983C55.4684 34.7857 54.4452 33.9805 52.5604 33.9805C50.6216 33.9805 47.8213 35.3762 47.8213 38.4897C47.929 40.8517 49.1676 42.5695 51.2679 43.2674ZM52.6142 35.913C53.6913 35.913 54.2837 36.2888 54.9299 37.0403C55.7377 37.9529 55.8454 39.456 55.1992 40.4759C54.4991 41.4959 53.0989 41.9253 51.8603 41.5496C50.137 40.9591 49.76 39.617 49.76 38.5434C49.76 36.3961 51.9141 35.913 52.6142 35.913Z" fill="white"/>
<path d="M63.6536 46.6493V42.6769C63.6536 42.14 63.2227 41.7643 62.7381 41.7643C62.1995 41.7643 61.8226 42.1937 61.8226 42.6769V45.0388C61.3379 44.7167 60.8532 44.3947 60.4224 44.0189C60.6378 40.637 60.8532 35.1078 60.9609 31.6721C60.9609 31.4037 60.8532 31.0816 60.5839 30.9206C60.3685 30.7596 60.0454 30.6522 59.7761 30.7596C59.6146 30.8132 59.453 30.8669 59.2915 30.8669C59.2915 30.008 59.2376 29.0954 59.2376 28.1292C59.2376 27.4313 59.1838 26.6798 59.1838 25.8209C59.1838 25.3377 58.7529 24.9083 58.2683 24.9083C57.999 24.9083 57.7836 24.9083 57.5143 24.9083C57.1373 23.3515 56.8681 21.7947 56.545 20.2917C55.791 16.534 55.0371 12.6689 53.4753 8.91118C53.3138 8.53541 52.9907 8.32068 52.5598 8.32068C52.1829 8.32068 51.8059 8.58909 51.6982 8.96486C50.0287 14.333 48.5747 19.4864 47.3361 24.7472C47.1207 24.7472 46.9591 24.7472 46.7437 24.7472C46.4744 24.7472 46.259 24.8546 46.0975 25.0156C45.9359 25.1767 45.8282 25.4451 45.8282 25.6598V26.8945C45.8282 28.3439 45.8282 29.7396 45.8282 31.1353C45.6128 31.0816 45.4512 31.0816 45.2358 31.028C44.9666 30.9743 44.6973 31.0816 44.4819 31.2427C44.2665 31.4037 44.1588 31.6721 44.1588 31.9405C44.1588 34.9467 44.428 38.9191 44.5896 42.0864C44.6434 42.5695 44.6434 42.9989 44.6973 43.4284C44.1588 43.8578 43.6741 44.2336 43.1894 44.7168V42.5695C43.1894 42.0864 42.7586 41.6569 42.2739 41.6569C41.7354 41.6569 41.3584 42.0864 41.3584 42.5695L41.4123 46.7567C41.4123 49.065 41.4122 50.7828 41.5738 52.5006C41.6277 52.9837 42.0046 53.3595 42.4893 53.3595C45.8282 53.3595 49.4364 53.4668 53.2061 53.5205C56.4373 53.5742 59.7223 53.6816 62.9535 53.6816C63.2227 53.6816 63.4382 53.5742 63.5997 53.4132C63.7613 53.2521 63.869 52.9837 63.869 52.769C63.869 51.6954 63.869 50.7291 63.8151 49.7628C63.7074 48.8502 63.6536 47.8303 63.6536 46.6493ZM46.5283 43.8578C46.4744 43.321 46.4744 42.6769 46.4206 42.0864C46.259 39.2949 46.0436 35.9667 45.9898 33.1752C46.5283 33.2826 47.013 33.3899 47.4438 33.4973C48.1977 33.6584 48.844 33.8194 49.4364 33.8731C49.7056 33.9268 50.0287 33.8194 50.2442 33.6047C50.5673 33.2289 50.9442 32.9068 51.3212 32.5847C51.752 32.209 52.129 31.7795 52.5598 31.35C53.4215 32.209 54.5524 33.2289 54.9294 33.4436C55.1448 33.551 55.3602 33.6047 55.5756 33.6047C56.6527 33.4436 57.7297 33.2289 59.0761 32.9068C58.9683 36.1814 58.7529 40.7443 58.5914 43.6968C57.9451 44.2336 57.1373 44.7704 56.3834 45.1999C56.0603 45.4146 55.791 45.5757 55.5218 45.7367C54.5524 45.0925 53.3138 44.2873 52.9368 44.1263C52.6675 43.9652 52.2906 43.9652 51.9674 44.1263C51.752 44.2336 51.5366 44.341 51.2674 44.502C50.675 44.8241 49.8672 45.2536 49.1671 45.7367C48.09 45.0388 47.1745 44.3947 46.5283 43.8578ZM52.6675 12.2394C53.583 14.9772 54.1216 17.7686 54.714 20.7211C54.9832 22.1168 55.2525 23.5662 55.5756 24.962C53.583 24.962 51.4828 24.9083 49.2209 24.8546C50.2442 20.6674 51.3751 16.534 52.6675 12.2394ZM47.6592 27.0018V26.7334C47.7669 26.7334 47.9285 26.7334 48.0362 26.7334C48.0362 26.7334 48.0362 26.7334 48.09 26.7334C51.5366 26.7871 54.4447 26.8408 57.3528 26.8408C57.3528 27.3239 57.4066 27.8071 57.4066 28.2902C57.4605 29.4175 57.4605 30.3838 57.4605 31.4037C56.8681 31.5648 56.2757 31.6721 55.7372 31.7258C55.1986 31.2427 53.96 30.1154 53.2061 29.3638C53.0445 29.1491 52.7752 29.0417 52.4521 29.0954C52.1829 29.0954 51.9136 29.2565 51.752 29.4712C51.2674 30.1154 50.675 30.6522 50.0287 31.2427C49.7595 31.4574 49.4902 31.7258 49.2748 31.9942C48.844 31.9405 48.4131 31.8332 47.8746 31.6721C47.8208 31.6721 47.7131 31.6185 47.6592 31.6185C47.6592 30.1154 47.6592 28.6123 47.6592 27.0018ZM53.1522 51.8564C49.6518 51.8027 46.3667 51.6954 43.2433 51.6954C43.1894 50.407 43.1894 49.1186 43.1894 47.3471C43.5664 47.0251 43.8895 46.703 44.2126 46.4346C44.6434 46.0588 45.0204 45.683 45.4512 45.3072C46.2052 45.9514 47.3361 46.703 48.7901 47.6156C49.1132 47.8303 49.4902 47.8303 49.8133 47.6156C50.6211 47.0787 51.5366 46.5419 52.2906 46.1125C52.3444 46.0588 52.4521 46.0051 52.506 46.0051C53.2061 46.4346 54.337 47.1861 55.0909 47.6692C55.414 47.884 55.8449 47.884 56.168 47.6156C56.4911 47.3471 56.9758 47.0787 57.4605 46.7567C58.0528 46.3809 58.7529 45.9514 59.3453 45.4683C60.1531 46.1125 61.0148 46.703 61.8764 47.1324C61.8764 48.0987 61.8764 49.0113 61.9303 49.9239C61.9303 50.568 61.9841 51.2659 61.9841 51.9638C58.9683 52.0174 56.0064 51.9638 53.1522 51.8564Z" fill="white"/>
<path d="M52.1831 47.8839C51.6446 47.8839 51.2676 48.3134 51.2676 48.7965V49.9238C51.2676 50.4606 51.6984 50.8364 52.1831 50.8364C52.7216 50.8364 53.0986 50.4069 53.0986 49.9238V48.7965C53.1524 48.2597 52.7216 47.8839 52.1831 47.8839Z" fill="white"/>
<path d="M59.0229 47.8839C58.4844 47.8839 58.1074 48.3134 58.1074 48.7965V50.0312C58.1074 50.568 58.5382 50.9438 59.0229 50.9438C59.5615 50.9438 59.9384 50.5143 59.9384 50.0312V48.7965C59.9384 48.2597 59.5076 47.8839 59.0229 47.8839Z" fill="white"/>
<path d="M45.7212 47.8839C45.1826 47.8839 44.8057 48.3134 44.8057 48.7965V50.0312C44.8057 50.568 45.2365 50.9438 45.7212 50.9438C46.2597 50.9438 46.6367 50.5143 46.6367 50.0312V48.7965C46.6367 48.2597 46.2058 47.8839 45.7212 47.8839Z" fill="white"/>
<path d="M32.4729 34.6783C32.4729 25.6598 38.6121 17.715 47.3363 15.353C47.8749 15.1919 48.1441 14.7088 48.0364 14.172C47.8749 13.6352 47.3902 13.3668 46.8517 13.4741C37.2658 16.0508 30.5342 24.7473 30.5342 34.6783C30.5342 40.9054 33.2268 46.864 37.8582 50.9975C38.0198 51.1586 38.289 51.2659 38.5044 51.2659C38.7737 51.2659 39.043 51.1586 39.2045 50.9438C39.5815 50.5681 39.5276 49.9239 39.1507 49.6018C34.9501 45.7367 32.4729 40.3149 32.4729 34.6783Z" fill="white"/>
<path d="M57.8918 13.3667C57.3532 13.2594 56.8686 13.5278 56.707 14.0646C56.5993 14.6014 56.8686 15.0845 57.4071 15.2456C66.3467 17.4465 72.5936 25.4451 72.5936 34.6246C72.5936 40.3148 70.1703 45.7367 65.9159 49.4944C65.5389 49.8701 65.485 50.4606 65.862 50.8364C66.0774 51.0511 66.2928 51.1585 66.5621 51.1585C66.7775 51.1585 67.0468 51.0511 67.2083 50.8901C71.8397 46.7566 74.5324 40.798 74.5324 34.5709C74.5324 24.5861 67.693 15.8361 57.8918 13.3667Z" fill="white"/>
</svg>
