<svg width="118" height="31" fill="none" xmlns="http://www.w3.org/2000/svg"><path d="M54.759 26.138c-.778 0-1.556-.185-2.38-.601a4.651 4.651 0 01-1.556-1.433 4.33 4.33 0 01-.687-2.127v-.462c0-1.294.23-2.589.687-3.837.549-1.48 1.419-2.543 2.609-3.19.823-.416 1.647-.647 2.517-.647.64 0 1.236.139 1.83.37a3.457 3.457 0 011.648 1.48c.23.37.32.739.32 1.155 0 .324-.045.693-.182 1.017-.412.97-1.053 1.71-1.968 2.173a8.218 8.218 0 01-3.8 1.063h-.411c0 .231-.046.462-.046.693v.232c.046 1.201.32 1.941.824 2.172.229.093.458.185.732.185h.046c.778-.046 1.419-.6 1.968-1.664l.32-.555c.23-.277.504-.416.87-.416.32 0 .55.093.824.231.229.139.366.37.366.601v.185c-.137.694-.412 1.295-.87 1.803-.87 1.063-2.014 1.618-3.432 1.664h-.23v-.092zm-1.053-6.75l.32-.046a4.82 4.82 0 002.06-.74 2.767 2.767 0 001.144-1.432c.046-.093.046-.232.046-.37 0-.37-.137-.601-.458-.694h-.183c-.64 0-1.235.324-1.83.925-.595.693-1.007 1.48-1.19 2.358h.091zm56.983 6.334c-1.282-.694-1.922-1.803-1.922-3.283 0-.323.045-.647.091-1.017.183-.878.504-1.571 1.053-2.172.595-.647 1.373-.925 2.38-.925.961 0 1.876.37 2.609.971 0 0-.092-1.202-.229-1.988a4.222 4.222 0 00-.458-1.34c-.229-.37-.641-.555-1.236-.555-.32 0-.686.092-1.052.277-.367.185-.687.509-.961.925-.184.277-.412.416-.779.416a1.54 1.54 0 01-.778-.231c-.595-.416-.274-1.202.092-1.665.412-.6 1.098-.924 1.739-1.155.824-.278 1.556-.416 2.197-.416.687 0 1.419.185 2.151.508.732.324 1.327.971 1.739 1.85 1.007 2.126.687 4.668.321 6.887a15.944 15.944 0 01-.366 1.572 2.508 2.508 0 01-.733 1.156c-.274.231-.549.323-.824.323-.183 0-.366-.046-.549-.092-.686.37-1.419.508-2.197.508-.915-.046-1.647-.184-2.288-.554zm3.753-1.665c0-.415-.046-1.109-.092-1.617-.045-.555-.274-1.11-.595-1.572-.137-.231-.366-.462-.595-.555-.32-.139-.549.093-.686.37a1.71 1.71 0 00-.229.508 4.163 4.163 0 00-.32 1.248c-.046.186-.046.37-.046.555 0 .509.137 1.156.686 1.248a3.214 3.214 0 001.877-.184zm-73.23 5.825c-.366 0-.732-.139-1.053-.277-.412-.185-.64-.601-.686-1.202v-1.526c0-2.912.183-7.674.503-10.54.046-.6.137-1.11.366-1.525.275-.416.641-.647 1.19-.647.32 0 .641.092.961.23.458.232.733.648.733 1.249v.277a4.744 4.744 0 011.647-1.387c.458-.23.916-.37 1.373-.37.962 0 1.694.324 2.243.971.732.832 1.053 1.942 1.053 3.283 0 .97-.23 1.895-.733 2.727-.503.832-1.144 1.526-1.968 2.034-.915.601-1.968.878-3.158.878-.366 0-.732-.046-1.098-.092v4.623c0 .508-.32.97-.778 1.155a1.256 1.256 0 01-.595.14zm2.105-7.905c1.328-.231 2.517-1.11 3.021-2.404a4.3 4.3 0 00.32-1.664c0-.277-.045-.555-.091-.925s-.183-.878-.412-.97c-.183-.093-.687.277-.778.37-.595.508-.961 1.34-1.282 2.08-.366.832-.64 1.664-.915 2.542-.092.324-.183.694-.275 1.017.138 0 .275-.046.412-.046zm39.178-7.257c.595.647.87 1.479 1.053 2.31.229.972.366 1.942.504 2.913a37.5 37.5 0 01.274 3.19c.046.694.137 1.48-.046 2.127-.183.6-.595.924-1.281.924-.32 0-.641-.092-1.007-.277-.458-.231-.732-.694-.778-1.202-.138-.878-.092-1.757-.138-2.635-.045-.694-.137-1.387-.183-2.08-.137-.971-.274-1.942-.503-2.913l-.458.694c-1.327 2.357-2.15 4.854-2.425 7.581-.092.416-.367.647-.824.647-.275 0-.55-.092-.824-.23a.824.824 0 01-.458-.74c-.046-.463.092-.971.183-1.434.275-1.433.641-2.82 1.19-4.16.687-1.664 1.51-3.236 2.61-4.67.411-.554.914-.785 1.51-.785.594 0 1.144.231 1.601.74zm16.843 11.464c-.686 0-1.373-.324-1.51-.832a8.684 8.684 0 01-.366-1.895c-.092-1.11-.23-3.791.045-5.687.183-1.201.23-1.987.641-3.05.23-.602.733-.925 1.419-.925.503 0 .915.185 1.282.508.228.231.411.509.32.832-.137.694-.504 1.85-.641 4.069.87-.047 3.616-.324 3.707-.324.138-2.173.595-3.883.779-4.345.274-.601.732-.925 1.373-.925.366 0 .732.139 1.144.324.32.184.503.462.503.785-.046.925-.137 1.85-.366 2.774-.229 1.11-.686 3.606-.732 4.9-.046 1.248.046 2.22-.229 2.959-.183.508-.641.693-1.098.693-.229 0-.412-.046-.641-.185-.549-.277-.824-1.386-.824-3.282l.046-1.017.045-1.11c-1.647.093-1.739.186-3.661.278 0 .786.046 1.572.091 2.312.092.832.138 1.571.092 2.218-.046.694-.732.925-1.419.925zM89.04 14.303c.504.324.504.74.412 1.295l-.686 4.299c-.092.786-.138 1.48-.138 2.127 0 .416 0 1.895.275 2.265.32 0 .778-.74 1.419-1.942.87-1.71 2.013-4.808 2.792-7.304.137-.416.366-.786.823-.878.824-.185 2.014.046 2.289.924.137.416.137.879.091 1.295-.045 2.496-.183 4.253-.411 6.934a6.672 6.672 0 01-.32 1.664c-.184.647-.687 1.156-1.328 1.248a1.596 1.596 0 01-1.648-.832c-.091-.185-.183-.416-.183-.6 0-.555.366-2.312.55-3.283 0 0-.184.416-.23.508a14.57 14.57 0 01-.823 1.711c-.32.555-.687 1.063-1.145 1.48-.595.554-1.327.831-2.242.831-.733 0-1.328-.185-1.877-.6a3.223 3.223 0 01-1.007-1.85 8.04 8.04 0 01-.183-1.803l.046-.878c.046-1.063.183-2.127.366-3.144.137-.924.32-1.802.64-2.68.275-.74.642-1.249 1.465-1.249.367.139.733.231 1.053.462zM29.495 26c-.229-.14-.412-.325-.504-.556-.183-.462-.228-1.017-.228-1.756.045-2.173.137-4.253.412-6.287.229-1.988.549-3.884.96-5.779l.092-.416c.092-.555.23-1.11.504-1.618.274-.37.686-.555 1.281-.555.366 0 .687.093 1.053.278.32.185.55.508.595.924v.093c0 .508-.092 1.017-.229 1.479l-.137.508a72.504 72.504 0 00-.916 5.502c.87-.832 1.648-1.803 2.426-2.867.915-1.34 1.556-2.634 1.877-3.883.137-.416.274-.878.412-1.294.183-.37.549-.555 1.144-.555.412 0 .778.139 1.144.416.275.231.412.463.412.786a5.01 5.01 0 01-.275 1.618c-.915 2.774-2.38 4.993-4.44 6.61l-.045.047c-.458.37-.961.694-1.465 1.063 1.19.925 2.792 2.497 3.57 3.652.824 1.248 1.099 1.85.458 2.45-.595.555-1.419-.184-1.693-.508-.275-.37-.916-1.202-1.328-1.803-.549-.693-1.556-2.08-2.563-2.82-.046.694-.137 1.526-.183 2.45l-.046.786c0 .601-.091 1.202-.32 1.71-.183.324-.55.51-1.098.51-.275.091-.595 0-.87-.186zm45.448-9.154c-.046-.462-.137-1.572-.503-2.22-.412-.692-1.42-.785-2.106-.508-.824.37-1.144 1.202-1.556 1.942-.366.74-2.563 5.085-3.295 6.287-.32-.74-.687-1.757-1.19-3.097-.32-.879-.595-1.803-.916-2.635-.228-.647-.595-1.803-.915-2.22-.275-.369-.687-.508-1.19-.508-.732 0-1.373.324-1.602.879-.503 1.202-.961 3.236-1.053 6.333-.045 1.11-.137 3.606.046 4.16.183.601 1.19.879 1.785.879.32 0 .595-.139.87-.37.091-.092.183-.231.183-.37.137-.832.183-3.375.229-4.16.137-1.665.229-2.22.274-2.45 0 .046.824 2.542 1.328 3.698.412.97.824 2.172 2.105 2.219.55 0 1.007-.278 1.327-.879.32-.6.778-1.433 1.19-2.172.55-1.017 1.007-1.85 1.328-2.59.183-.323.32-.6.457-.878.046.463-.046 1.11-.046 1.341-.045 1.387-.274 2.774-.457 4.16-.046.417-.138.88-.092 1.295.092.74.824 1.156 1.51 1.156.23 0 .641 0 .87-.139.55-.277.733-1.11 1.007-2.82.183-1.017.229-2.08.275-3.097.091-.97.183-2.543.137-3.236zM9.913 2.635c.4.279.798.527 1.105.713-.123.31-.184.62-.276.93a2.3 2.3 0 01-.123.434.386.386 0 00.123.434.492.492 0 00.276.093c.062 0 .123 0 .184-.031a7.2 7.2 0 001.35-.899c.185.124.37.248.553.341.246.155.491.31.737.496.153.093.337.093.46 0a.419.419 0 00.184-.434 5.913 5.913 0 00-.307-1.116.579.579 0 01-.06-.217c.398-.341.828-.744 1.135-1.054a.436.436 0 00.092-.465c-.062-.155-.215-.248-.4-.279-.46 0-.981 0-1.473.031a7.228 7.228 0 00-.49-1.364C12.92.093 12.768 0 12.582 0a.399.399 0 00-.368.248c-.123.31-.215.558-.337.806a4.165 4.165 0 01-.215.558c-.369.031-.829.124-1.197.186-.123.031-.276.031-.368.062a.395.395 0 00-.338.31c-.062.186 0 .341.153.465zm2.057-.186c.153 0 .307-.124.368-.248.092-.217.153-.403.246-.589.06.186.091.372.153.558.03.217.245.341.46.341.215-.031.46-.031.706-.031-.184.155-.337.31-.49.434a.515.515 0 00-.154.465c.061.155.092.31.153.465a3.912 3.912 0 01-.583-.403c-.154-.124-.368-.093-.522.031-.184.155-.337.31-.521.434A3.99 3.99 0 0112 3.348c.062-.093.062-.217 0-.341a.478.478 0 00-.245-.248c-.123-.031-.246-.124-.4-.217.216-.062.43-.093.615-.093zm-.154 22.537c.276.093.583.124.86.124.89 0 1.75-.434 2.24-1.178.675-.992.553-2.418-.245-3.317-.46-.527-1.044-.992-2.118-.992-1.105 0-2.701.806-2.701 2.604.061 1.364.767 2.356 1.964 2.759zm.768-4.247c.613 0 .951.217 1.32.651.46.527.521 1.395.153 1.984-.4.589-1.197.837-1.903.62-.982-.341-1.197-1.116-1.197-1.736 0-1.24 1.228-1.519 1.627-1.519z" fill="#fff"/><path d="M18.875 26.94v-2.295a.52.52 0 00-.521-.527.52.52 0 00-.522.527v1.364a7.602 7.602 0 01-.798-.589c.123-1.953.245-5.146.307-7.13 0-.155-.062-.34-.215-.434-.123-.093-.307-.155-.46-.093-.093.031-.185.062-.277.062 0-.496-.03-1.023-.03-1.58 0-.404-.031-.838-.031-1.334a.54.54 0 00-.522-.527h-.43c-.214-.899-.368-1.798-.552-2.666-.43-2.17-.86-4.402-1.75-6.572a.537.537 0 00-.521-.34.526.526 0 00-.491.371c-.952 3.1-1.78 6.076-2.486 9.114h-.338a.506.506 0 00-.368.155.575.575 0 00-.154.372v3.163c-.122-.032-.214-.032-.337-.063-.154-.03-.307.031-.43.124a.502.502 0 00-.184.403c0 1.736.153 4.03.245 5.86.031.278.031.526.062.774-.307.248-.583.465-.86.744v-1.24a.54.54 0 00-.521-.527.52.52 0 00-.522.527l.03 2.418c0 1.333 0 2.325.093 3.317.03.28.245.496.521.496 1.903 0 3.96.062 6.108.093 1.842.031 3.714.093 5.555.093a.506.506 0 00.369-.155.575.575 0 00.153-.372c0-.62 0-1.178-.03-1.736a15.553 15.553 0 01-.093-1.798zm-9.76-1.613c-.03-.31-.03-.682-.061-1.023-.092-1.612-.215-3.534-.246-5.146.307.062.584.124.83.186.429.093.797.186 1.135.217a.531.531 0 00.46-.155 5.53 5.53 0 01.614-.589c.245-.217.46-.465.706-.713.49.496 1.135 1.085 1.35 1.21a.81.81 0 00.368.092 22.647 22.647 0 001.995-.403 333.11 333.11 0 01-.276 6.231c-.368.31-.828.62-1.258.868-.184.124-.338.217-.491.31-.553-.372-1.258-.837-1.473-.93a.58.58 0 00-.553 0 5.511 5.511 0 00-.399.217c-.337.186-.798.434-1.197.713a16.716 16.716 0 01-1.504-1.085zm3.5-18.259c.52 1.581.828 3.193 1.165 4.898.154.806.307 1.643.492 2.45-1.136 0-2.333-.032-3.622-.063a143.805 143.805 0 011.964-7.285zM9.76 15.593v-.155h.245c1.965.031 3.622.062 5.28.062 0 .28.03.558.03.837.03.651.03 1.21.03 1.798a6.037 6.037 0 01-.981.186 46.253 46.253 0 01-1.443-1.364c-.092-.124-.245-.186-.43-.155a.523.523 0 00-.399.217c-.276.372-.613.682-.982 1.023a2.858 2.858 0 00-.43.434 4.805 4.805 0 01-.797-.186c-.031 0-.092-.03-.123-.03v-2.667zm3.13 14.353c-1.995-.03-3.867-.093-5.647-.093-.03-.744-.03-1.488-.03-2.51.214-.187.398-.373.583-.528.245-.217.46-.434.705-.65.43.371 1.075.805 1.903 1.332a.503.503 0 00.584 0c.46-.31.982-.62 1.411-.868a.232.232 0 01.123-.062c.4.248 1.044.682 1.473.961.184.124.43.124.614-.03.184-.156.46-.31.737-.497.337-.217.736-.465 1.074-.744.46.372.951.713 1.442.961 0 .558 0 1.085.031 1.612 0 .372.03.775.03 1.178-1.718.031-3.406 0-5.033-.062z" fill="#fff"/><path d="M12.338 27.652a.52.52 0 00-.522.527v.651c0 .31.246.527.522.527a.52.52 0 00.522-.527v-.651c.03-.31-.215-.527-.522-.527zm3.898 0a.52.52 0 00-.522.527v.713c0 .31.245.527.522.527a.52.52 0 00.521-.527v-.713a.52.52 0 00-.521-.527zm-7.581 0a.52.52 0 00-.522.527v.713c0 .31.246.527.522.527a.52.52 0 00.522-.527v-.713a.52.52 0 00-.522-.527zm-7.55-7.626c0-5.208 3.499-9.796 8.47-11.16.308-.093.461-.372.4-.682a.56.56 0 00-.675-.403C3.836 9.269 0 14.291 0 20.026c0 3.596 1.535 7.037 4.174 9.424a.563.563 0 00.368.155.493.493 0 00.4-.186.546.546 0 00-.031-.775c-2.394-2.232-3.806-5.363-3.806-8.618zM15.591 7.719a.56.56 0 00-.675.403c-.061.31.092.589.4.682 5.094 1.271 8.654 5.89 8.654 11.191 0 3.286-1.38 6.417-3.806 8.587-.214.217-.245.558-.03.775.122.124.245.186.399.186a.563.563 0 00.368-.155 12.743 12.743 0 004.174-9.424c0-5.766-3.898-10.819-9.484-12.245z" fill="#fff"/></svg>