<svg width="105" height="80" fill="none" xmlns="http://www.w3.org/2000/svg"><path d="M30.589 74.725c-.916 0-1.831-.215-2.8-.698a5.444 5.444 0 01-1.832-1.664 4.983 4.983 0 01-.808-2.47v-.537c0-1.503.27-3.006.808-4.455.646-1.718 1.67-2.953 3.07-3.704.97-.483 1.938-.752 2.962-.752.754 0 1.454.161 2.154.43a4.049 4.049 0 011.939 1.718c.269.429.377.858.377 1.342 0 .375-.054.805-.216 1.18-.485 1.128-1.239 1.987-2.316 2.524a9.768 9.768 0 01-4.47 1.234h-.484c0 .269-.054.537-.054.805v.269c.054 1.396.377 2.255.97 2.523.269.107.538.215.861.215h.054c.916-.054 1.67-.698 2.316-1.933l.377-.644a1.251 1.251 0 011.023-.483c.377 0 .646.107.97.268.268.161.43.43.43.698v.215c-.162.805-.485 1.503-1.023 2.093-1.023 1.235-2.37 1.88-4.04 1.933h-.268v-.107zm-1.239-7.838l.377-.054a5.72 5.72 0 002.423-.858 3.22 3.22 0 001.347-1.665c.053-.107.053-.268.053-.43 0-.428-.161-.697-.538-.804h-.215c-.754 0-1.454.376-2.155 1.073-.7.806-1.184 1.718-1.4 2.738h.108zm67.047 7.355c-1.508-.806-2.262-2.094-2.262-3.812 0-.376.054-.751.108-1.18.215-1.02.592-1.826 1.238-2.524.7-.751 1.616-1.073 2.8-1.073 1.131 0 2.208.429 3.07 1.127 0 0-.108-1.396-.269-2.308-.108-.591-.269-1.074-.539-1.557-.269-.43-.754-.644-1.454-.644-.377 0-.808.107-1.238.322-.431.214-.808.59-1.131 1.073-.216.322-.485.483-.916.483a1.82 1.82 0 01-.915-.268c-.7-.483-.323-1.396.107-1.932.485-.698 1.293-1.074 2.047-1.343.97-.322 1.83-.483 2.585-.483.808 0 1.669.215 2.531.59.862.377 1.562 1.128 2.046 2.148 1.185 2.47.808 5.422.377 7.999-.107.644-.269 1.234-.431 1.825a2.9 2.9 0 01-.861 1.342c-.323.268-.646.376-.97.376-.215 0-.43-.054-.646-.108-.808.43-1.669.59-2.585.59-1.077-.053-1.939-.214-2.692-.644zm4.416-1.933c0-.483-.054-1.288-.108-1.879-.054-.644-.323-1.288-.7-1.825-.162-.268-.431-.537-.7-.644-.377-.161-.647.107-.808.43a1.981 1.981 0 00-.27.59 4.811 4.811 0 00-.376 1.45c-.054.214-.054.429-.054.643 0 .59.161 1.342.808 1.45a3.829 3.829 0 002.208-.215zm-86.165 6.764c-.43 0-.862-.161-1.239-.322-.484-.215-.754-.698-.807-1.396v-1.772c0-3.382.215-8.91.592-12.239.054-.698.161-1.288.43-1.771.324-.483.755-.752 1.401-.752.377 0 .754.107 1.13.269.54.268.862.751.862 1.449v.322a5.566 5.566 0 011.94-1.61c.538-.269 1.076-.43 1.615-.43 1.13 0 1.992.376 2.639 1.127.861.967 1.238 2.255 1.238 3.812 0 1.127-.269 2.2-.861 3.167-.593.966-1.347 1.771-2.316 2.362-1.077.698-2.316 1.02-3.716 1.02-.43 0-.862-.054-1.292-.108v5.368c0 .591-.377 1.128-.916 1.343-.215.107-.43.16-.7.16zm2.477-9.18c1.562-.268 2.962-1.288 3.555-2.791a4.944 4.944 0 00.377-1.933c0-.322-.054-.644-.108-1.073-.054-.43-.216-1.02-.485-1.128-.215-.107-.808.322-.915.43-.7.59-1.131 1.556-1.508 2.415-.431.967-.754 1.933-1.077 2.953-.108.376-.216.805-.323 1.18.161 0 .323-.053.484-.053zm46.098-8.428c.7.752 1.023 1.718 1.239 2.684.269 1.128.43 2.255.592 3.382.162 1.235.27 2.47.323 3.704.054.805.162 1.718-.054 2.47-.215.698-.7 1.073-1.507 1.073-.377 0-.754-.107-1.185-.322-.539-.268-.862-.805-.916-1.396-.161-1.02-.107-2.04-.161-3.06-.054-.805-.162-1.61-.216-2.415-.161-1.127-.323-2.255-.592-3.382l-.539.805c-1.561 2.738-2.53 5.637-2.854 8.804-.108.483-.43.752-.97.752-.322 0-.645-.108-.969-.269a.956.956 0 01-.538-.859c-.054-.537.108-1.127.215-1.664.323-1.664.754-3.275 1.4-4.831.808-1.933 1.778-3.758 3.07-5.422.485-.644 1.077-.913 1.777-.913s1.347.269 1.885.86zm19.818 13.313c-.807 0-1.615-.376-1.777-.966a9.964 9.964 0 01-.43-2.201c-.108-1.288-.27-4.402.053-6.603.216-1.395.27-2.308.754-3.543.27-.698.862-1.073 1.67-1.073.592 0 1.077.214 1.507.59.27.269.485.59.377.966-.161.806-.592 2.148-.753 4.724 1.023-.053 4.254-.375 4.362-.375.161-2.523.7-4.51.915-5.046.323-.698.862-1.074 1.616-1.074.43 0 .861.16 1.346.376.377.214.592.537.592.912-.053 1.074-.161 2.147-.43 3.221-.27 1.288-.808 4.187-.862 5.69-.054 1.45.054 2.577-.27 3.436-.215.59-.753.805-1.292.805a1.35 1.35 0 01-.754-.215c-.646-.322-.97-1.61-.97-3.81l.055-1.182.054-1.288c-1.94.107-2.047.215-4.309.322 0 .912.054 1.825.108 2.684.108.966.162 1.825.108 2.577-.054.805-.862 1.073-1.67 1.073zM70.924 60.982c.593.376.593.859.485 1.503l-.808 4.993a21.018 21.018 0 00-.162 2.469c0 .483 0 2.2.324 2.63.377 0 .915-.859 1.67-2.254 1.022-1.986 2.369-5.583 3.284-8.482.162-.483.43-.913.97-1.02.969-.215 2.369.054 2.692 1.074.162.483.162 1.02.108 1.503-.054 2.899-.216 4.938-.485 8.052a7.657 7.657 0 01-.377 1.933c-.215.751-.808 1.342-1.562 1.449-.807.107-1.561-.268-1.938-.966-.108-.215-.216-.483-.216-.698 0-.644.431-2.684.646-3.812 0 0-.215.484-.269.59a16.578 16.578 0 01-.97 1.987c-.376.644-.807 1.235-1.345 1.718-.7.644-1.562.966-2.64.966-.86 0-1.56-.215-2.207-.698-.646-.59-1.023-1.288-1.185-2.147a9.22 9.22 0 01-.215-2.094l.053-1.02c.054-1.234.216-2.469.431-3.65.162-1.073.377-2.093.754-3.113.323-.86.754-1.45 1.724-1.45.43.161.861.269 1.238.537zM.862 74.564c-.27-.161-.485-.376-.593-.645C.054 73.383 0 72.74 0 71.88c.054-2.523.162-4.938.485-7.3.269-2.308.646-4.51 1.13-6.71l.108-.483c.108-.645.27-1.289.593-1.88.323-.429.807-.644 1.508-.644.43 0 .807.108 1.238.322.377.215.646.591.7 1.074v.107c0 .591-.107 1.181-.269 1.718l-.162.59a83.195 83.195 0 00-1.077 6.389c1.024-.966 1.94-2.094 2.855-3.328 1.077-1.557 1.83-3.06 2.208-4.51.161-.483.323-1.02.484-1.503.216-.43.646-.644 1.347-.644.484 0 .915.161 1.346.483.323.269.485.537.485.913 0 .644-.108 1.235-.323 1.879-1.078 3.22-2.8 5.797-5.224 7.676l-.054.054c-.539.43-1.131.805-1.723 1.235 1.4 1.073 3.285 2.898 4.2 4.24.97 1.45 1.293 2.148.539 2.846-.7.644-1.67-.215-1.993-.591-.323-.43-1.077-1.396-1.562-2.094-.646-.805-1.83-2.415-3.015-3.274-.054.805-.162 1.771-.216 2.845l-.054.913c0 .697-.107 1.395-.377 1.986-.215.376-.646.59-1.292.59-.323.108-.7 0-1.023-.215zm53.475-10.629c-.054-.537-.161-1.826-.592-2.577-.485-.805-1.67-.913-2.477-.59-.97.429-1.347 1.395-1.831 2.254-.431.859-3.016 5.905-3.878 7.3-.377-.858-.808-2.04-1.4-3.596-.377-1.02-.7-2.094-1.077-3.06-.27-.751-.7-2.093-1.077-2.576-.323-.43-.808-.591-1.4-.591-.862 0-1.616.376-1.885 1.02-.593 1.396-1.131 3.758-1.239 7.354-.054 1.289-.161 4.188.054 4.832.216.698 1.4 1.02 2.1 1.02.377 0 .7-.161 1.024-.43.107-.107.215-.268.215-.43.162-.965.215-3.918.27-4.83.16-1.933.269-2.577.322-2.846 0 .054.97 2.953 1.562 4.295.485 1.127.97 2.523 2.477 2.577.647 0 1.185-.323 1.562-1.02.377-.698.916-1.665 1.4-2.523.647-1.181 1.185-2.148 1.562-3.007.215-.375.377-.697.539-1.02.053.537-.054 1.289-.054 1.557-.054 1.61-.323 3.221-.539 4.831-.054.484-.161 1.02-.108 1.504.108.859.97 1.342 1.778 1.342.269 0 .754 0 1.023-.161.646-.322.861-1.289 1.185-3.275.215-1.181.269-2.416.323-3.597.107-1.127.215-2.952.161-3.757zM47.929 4.563c.7.483 1.4.913 1.938 1.235-.215.536-.323 1.073-.484 1.61a3.941 3.941 0 01-.216.752c-.107.268 0 .59.216.751a.87.87 0 00.484.161c.108 0 .216 0 .324-.053.753-.376 1.507-.86 2.37-1.557.322.214.645.43.968.59.431.269.862.537 1.293.86.27.16.592.16.808 0a.72.72 0 00.323-.752c-.108-.698-.323-1.342-.539-1.933a.992.992 0 01-.107-.376 34.93 34.93 0 001.992-1.825.748.748 0 00.162-.805c-.108-.269-.377-.43-.7-.483-.808 0-1.724 0-2.585.053-.216-.805-.485-1.61-.862-2.362-.108-.268-.377-.429-.7-.429a.7.7 0 00-.646.43c-.216.536-.377.966-.593 1.395a7.15 7.15 0 01-.377.966c-.646.054-1.454.215-2.1.323-.215.053-.485.053-.646.107-.323.054-.539.268-.593.537-.107.322 0 .59.27.805zm3.608-.322c.27 0 .538-.215.646-.43.162-.375.27-.697.43-1.02.109.323.163.645.27.967.054.375.431.59.808.59.377-.053.808-.053 1.239-.053-.324.268-.593.536-.862.751a.884.884 0 00-.27.805c.108.269.162.537.27.806-.377-.215-.7-.43-1.023-.698-.27-.215-.647-.161-.916.053-.323.269-.592.537-.915.752.107-.322.215-.644.377-.966.107-.161.107-.376 0-.59-.054-.162-.216-.323-.431-.43-.215-.054-.43-.215-.7-.376a4.034 4.034 0 011.077-.161zm-.269 39.026c.485.161 1.023.215 1.508.215 1.561 0 3.07-.751 3.931-2.04 1.185-1.718.97-4.187-.43-5.744-.809-.912-1.832-1.718-3.717-1.718-1.938 0-4.739 1.396-4.739 4.51.108 2.362 1.347 4.08 3.447 4.777zm1.346-7.354c1.077 0 1.67.376 2.316 1.127.808.913.915 2.416.27 3.436-.7 1.02-2.101 1.45-3.34 1.074-1.723-.59-2.1-1.933-2.1-3.007 0-2.147 2.154-2.63 2.854-2.63z" fill="#fff"/><path d="M63.654 46.65v-3.973a.906.906 0 00-.916-.913.906.906 0 00-.915.913v2.362c-.485-.322-.97-.644-1.4-1.02.215-3.382.43-8.911.538-12.347 0-.268-.108-.59-.377-.751-.216-.161-.539-.269-.808-.161-.161.053-.323.107-.485.107 0-.859-.053-1.772-.053-2.738 0-.698-.054-1.45-.054-2.308 0-.483-.431-.913-.916-.913h-.754c-.377-1.556-.646-3.113-.969-4.616-.754-3.758-1.508-7.623-3.07-11.38-.161-.377-.484-.591-.915-.591a.921.921 0 00-.862.644c-1.67 5.368-3.123 10.521-4.362 15.782h-.592a.893.893 0 00-.647.269.989.989 0 00-.269.644v5.475c-.215-.053-.377-.053-.592-.107-.27-.054-.539.054-.754.215-.215.16-.323.43-.323.698 0 3.006.269 6.978.43 10.145.054.483.054.913.108 1.342-.538.43-1.023.806-1.508 1.289v-2.148c0-.483-.43-.912-.915-.912a.906.906 0 00-.916.913l.054 4.187c0 2.308 0 4.026.162 5.744.054.483.43.858.915.858 3.34 0 6.947.108 10.717.161 3.231.054 6.516.162 9.747.162.27 0 .485-.108.647-.269a.989.989 0 00.269-.644c0-1.074 0-2.04-.054-3.006a26.592 26.592 0 01-.161-3.114zm-17.126-2.792c-.054-.537-.054-1.181-.107-1.772-.162-2.791-.377-6.12-.431-8.91.538.107 1.023.214 1.454.321.754.161 1.4.322 1.992.376.27.054.593-.054.808-.268.323-.376.7-.698 1.077-1.02.431-.376.808-.806 1.239-1.235.861.859 1.992 1.879 2.37 2.094.215.107.43.16.646.16a40.219 40.219 0 003.5-.697 570.746 570.746 0 01-.485 10.79 15.961 15.961 0 01-2.208 1.503 20.06 20.06 0 01-.861.537c-.97-.645-2.208-1.45-2.585-1.61-.27-.162-.646-.162-.97 0-.215.107-.43.214-.7.375-.592.322-1.4.752-2.1 1.235-1.077-.698-1.992-1.342-2.639-1.88zm6.14-31.619c.915 2.738 1.454 5.53 2.046 8.482.27 1.396.538 2.845.862 4.241-1.993 0-4.093-.054-6.355-.107a246.505 246.505 0 013.447-12.616zm-5.009 14.763v-.269h.431c3.447.054 6.355.108 9.263.108 0 .483.054.966.054 1.45.054 1.127.054 2.093.054 3.113-.593.16-1.185.268-1.724.322-.538-.483-1.777-1.61-2.53-2.362-.163-.215-.432-.322-.755-.269-.27 0-.538.162-.7.376-.485.644-1.077 1.181-1.723 1.772-.27.214-.539.483-.754.751-.431-.053-.862-.16-1.4-.322-.054 0-.162-.053-.216-.053v-4.617zm5.493 24.854c-3.5-.053-6.785-.16-9.909-.16-.054-1.289-.054-2.577-.054-4.349.377-.322.7-.644 1.024-.912.43-.376.807-.752 1.238-1.128.754.644 1.885 1.396 3.34 2.309.322.214.7.214 1.022 0a43.714 43.714 0 012.478-1.504.408.408 0 01.215-.107c.7.43 1.831 1.181 2.585 1.664a.894.894 0 001.077-.053c.323-.269.808-.537 1.293-.86.592-.375 1.292-.805 1.884-1.288.808.644 1.67 1.235 2.531 1.664 0 .967 0 1.88.054 2.792 0 .644.054 1.342.054 2.04-3.016.053-5.978 0-8.832-.108z" fill="#fff"/><path d="M52.183 47.884a.906.906 0 00-.915.913v1.127c0 .537.43.912.915.912.539 0 .916-.43.916-.912v-1.127c.053-.537-.377-.913-.916-.913zm6.84 0a.906.906 0 00-.916.913v1.234c0 .537.431.913.916.913.538 0 .915-.43.915-.913v-1.234a.906.906 0 00-.915-.913zm-13.302 0a.906.906 0 00-.915.913v1.234c0 .537.43.913.915.913.539 0 .916-.43.916-.913v-1.234a.906.906 0 00-.916-.913zM32.473 34.678c0-9.018 6.14-16.963 14.863-19.325.539-.161.808-.644.7-1.181-.161-.537-.646-.805-1.184-.698-9.586 2.577-16.318 11.273-16.318 21.204 0 6.227 2.693 12.186 7.324 16.32.162.16.431.268.646.268.27 0 .539-.107.7-.322.377-.376.324-1.02-.053-1.342-4.2-3.865-6.678-9.287-6.678-14.924zm25.419-21.311c-.539-.108-1.023.16-1.185.698-.108.536.162 1.02.7 1.18a19.943 19.943 0 0115.187 19.38c0 5.69-2.424 11.112-6.678 14.87-.377.375-.431.966-.054 1.341.215.215.43.322.7.322a.995.995 0 00.646-.268 21.934 21.934 0 007.324-16.32c0-9.984-6.839-18.734-16.64-21.203z" fill="#fff"/></svg>