<svg width="136" height="136" viewBox="0 0 136 136" fill="none" xmlns="http://www.w3.org/2000/svg">
<g clip-path="url(#clip0_34_242)">
<path d="M136 0H0V136H136V0Z" fill="white"/>
<path d="M11.0506 7.37622H7.37646V11.0504H11.0506V7.37622Z" fill="#4C3B3C"/>
<path d="M14.7248 7.37622H11.0506V11.0504H14.7248V7.37622Z" fill="#4C3B3C"/>
<path d="M18.399 7.37622H14.7248V11.0504H18.399V7.37622Z" fill="#4C3B3C"/>
<path d="M22.0731 7.37622H18.399V11.0504H22.0731V7.37622Z" fill="#4C3B3C"/>
<path d="M25.7473 7.37622H22.0731V11.0504H25.7473V7.37622Z" fill="#4C3B3C"/>
<path d="M29.4215 7.37622H25.7473V11.0504H29.4215V7.37622Z" fill="#4C3B3C"/>
<path d="M33.0956 7.37622H29.4215V11.0504H33.0956V7.37622Z" fill="#4C3B3C"/>
<path d="M40.444 7.37622H36.7698V11.0504H40.444V7.37622Z" fill="#4C3B3C"/>
<path d="M44.1181 7.37622H40.444V11.0504H44.1181V7.37622Z" fill="#4C3B3C"/>
<path d="M47.7923 7.37622H44.1181V11.0504H47.7923V7.37622Z" fill="#4C3B3C"/>
<path d="M58.8148 7.37622H55.1406V11.0504H58.8148V7.37622Z" fill="#4C3B3C"/>
<path d="M62.4889 7.37622H58.8148V11.0504H62.4889V7.37622Z" fill="#4C3B3C"/>
<path d="M66.1631 7.37622H62.4889V11.0504H66.1631V7.37622Z" fill="#4C3B3C"/>
<path d="M69.8373 7.37622H66.1631V11.0504H69.8373V7.37622Z" fill="#4C3B3C"/>
<path d="M73.5114 7.37622H69.8373V11.0504H73.5114V7.37622Z" fill="#4C3B3C"/>
<path d="M77.1856 7.37622H73.5114V11.0504H77.1856V7.37622Z" fill="#4C3B3C"/>
<path d="M80.8598 7.37622H77.1856V11.0504H80.8598V7.37622Z" fill="#4C3B3C"/>
<path d="M84.5339 7.37622H80.8598V11.0504H84.5339V7.37622Z" fill="#4C3B3C"/>
<path d="M88.2081 7.37622H84.5339V11.0504H88.2081V7.37622Z" fill="#4C3B3C"/>
<path d="M99.2306 7.37622H95.5564V11.0504H99.2306V7.37622Z" fill="#4C3B3C"/>
<path d="M106.579 7.37622H102.905V11.0504H106.579V7.37622Z" fill="#4C3B3C"/>
<path d="M110.253 7.37622H106.579V11.0504H110.253V7.37622Z" fill="#4C3B3C"/>
<path d="M113.927 7.37622H110.253V11.0504H113.927V7.37622Z" fill="#4C3B3C"/>
<path d="M117.601 7.37622H113.927V11.0504H117.601V7.37622Z" fill="#4C3B3C"/>
<path d="M121.276 7.37622H117.601V11.0504H121.276V7.37622Z" fill="#4C3B3C"/>
<path d="M124.95 7.37622H121.276V11.0504H124.95V7.37622Z" fill="#4C3B3C"/>
<path d="M128.624 7.37622H124.95V11.0504H128.624V7.37622Z" fill="#4C3B3C"/>
<path d="M11.0506 11.0504H7.37646V14.7246H11.0506V11.0504Z" fill="#4C3B3C"/>
<path d="M33.0956 11.0504H29.4215V14.7246H33.0956V11.0504Z" fill="#4C3B3C"/>
<path d="M44.1181 11.0504H40.444V14.7246H44.1181V11.0504Z" fill="#4C3B3C"/>
<path d="M47.7923 11.0504H44.1181V14.7246H47.7923V11.0504Z" fill="#4C3B3C"/>
<path d="M51.4665 11.0504H47.7923V14.7246H51.4665V11.0504Z" fill="#4C3B3C"/>
<path d="M55.1406 11.0504H51.4665V14.7246H55.1406V11.0504Z" fill="#4C3B3C"/>
<path d="M62.4889 11.0504H58.8148V14.7246H62.4889V11.0504Z" fill="#4C3B3C"/>
<path d="M66.1631 11.0504H62.4889V14.7246H66.1631V11.0504Z" fill="#4C3B3C"/>
<path d="M73.5114 11.0504H69.8373V14.7246H73.5114V11.0504Z" fill="#4C3B3C"/>
<path d="M80.8598 11.0504H77.1856L77.1856 14.7246H80.8598V11.0504Z" fill="#4C3B3C"/>
<path d="M88.2081 11.0504H84.5339V14.7246H88.2081V11.0504Z" fill="#4C3B3C"/>
<path d="M95.5564 11.0504H91.8823V14.7246H95.5564V11.0504Z" fill="#4C3B3C"/>
<path d="M106.579 11.0504H102.905V14.7246H106.579V11.0504Z" fill="#4C3B3C"/>
<path d="M128.624 11.0504H124.95V14.7246H128.624V11.0504Z" fill="#4C3B3C"/>
<path d="M11.0506 14.7246H7.37646V18.3987H11.0506V14.7246Z" fill="#4C3B3C"/>
<path d="M18.399 14.7246H14.7248V18.3987H18.399V14.7246Z" fill="#4C3B3C"/>
<path d="M22.0731 14.7246H18.399V18.3987H22.0731V14.7246Z" fill="#4C3B3C"/>
<path d="M25.7473 14.7246H22.0731V18.3987H25.7473V14.7246Z" fill="#4C3B3C"/>
<path d="M33.0956 14.7246H29.4215V18.3987H33.0956V14.7246Z" fill="#4C3B3C"/>
<path d="M40.444 14.7246H36.7698V18.3987H40.444V14.7246Z" fill="#4C3B3C"/>
<path d="M51.4665 14.7246H47.7923V18.3987H51.4665V14.7246Z" fill="#4C3B3C"/>
<path d="M58.8148 14.7246H55.1406V18.3987H58.8148V14.7246Z" fill="#4C3B3C"/>
<path d="M73.5114 14.7246H69.8373V18.3987H73.5114V14.7246Z" fill="#4C3B3C"/>
<path d="M77.1856 14.7246H73.5114V18.3987H77.1856L77.1856 14.7246Z" fill="#4C3B3C"/>
<path d="M84.5339 14.7246H80.8598V18.3987H84.5339V14.7246Z" fill="#4C3B3C"/>
<path d="M88.2081 14.7246H84.5339V18.3987H88.2081V14.7246Z" fill="#4C3B3C"/>
<path d="M91.8823 14.7246H88.2081V18.3987H91.8823V14.7246Z" fill="#4C3B3C"/>
<path d="M106.579 14.7246H102.905V18.3987H106.579V14.7246Z" fill="#4C3B3C"/>
<path d="M113.927 14.7246H110.253V18.3987H113.927V14.7246Z" fill="#4C3B3C"/>
<path d="M117.601 14.7246H113.927V18.3987H117.601V14.7246Z" fill="#4C3B3C"/>
<path d="M121.276 14.7246H117.601V18.3987H121.276V14.7246Z" fill="#4C3B3C"/>
<path d="M128.624 14.7246H124.95V18.3987H128.624V14.7246Z" fill="#4C3B3C"/>
<path d="M11.0506 18.3987H7.37646V22.0729H11.0506V18.3987Z" fill="#4C3B3C"/>
<path d="M18.399 18.3987H14.7248V22.0729H18.399V18.3987Z" fill="#4C3B3C"/>
<path d="M22.0731 18.3987H18.399V22.0729H22.0731V18.3987Z" fill="#4C3B3C"/>
<path d="M25.7473 18.3987H22.0731V22.0729H25.7473V18.3987Z" fill="#4C3B3C"/>
<path d="M33.0956 18.3987H29.4215V22.0729H33.0956V18.3987Z" fill="#4C3B3C"/>
<path d="M40.444 18.3987H36.7698V22.0729H40.444V18.3987Z" fill="#4C3B3C"/>
<path d="M44.1181 18.3987H40.444V22.0729H44.1181V18.3987Z" fill="#4C3B3C"/>
<path d="M51.4665 18.3987H47.7923V22.0729H51.4665V18.3987Z" fill="#4C3B3C"/>
<path d="M62.4889 18.3987H58.8148V22.0729H62.4889V18.3987Z" fill="#4C3B3C"/>
<path d="M66.1631 18.3987H62.4889V22.0729H66.1631V18.3987Z" fill="#4C3B3C"/>
<path d="M69.8373 18.3987H66.1631V22.0729H69.8373V18.3987Z" fill="#4C3B3C"/>
<path d="M73.5114 18.3987H69.8373V22.0729H73.5114V18.3987Z" fill="#4C3B3C"/>
<path d="M84.5339 18.3987H80.8598V22.0729H84.5339V18.3987Z" fill="#4C3B3C"/>
<path d="M91.8823 18.3987H88.2081V22.0729H91.8823V18.3987Z" fill="#4C3B3C"/>
<path d="M95.5564 18.3987H91.8823V22.0729H95.5564V18.3987Z" fill="#4C3B3C"/>
<path d="M99.2306 18.3987H95.5564V22.0729H99.2306V18.3987Z" fill="#4C3B3C"/>
<path d="M106.579 18.3987H102.905V22.0729H106.579V18.3987Z" fill="#4C3B3C"/>
<path d="M113.927 18.3987H110.253V22.0729H113.927V18.3987Z" fill="#4C3B3C"/>
<path d="M117.601 18.3987H113.927V22.0729H117.601V18.3987Z" fill="#4C3B3C"/>
<path d="M121.276 18.3987H117.601V22.0729H121.276V18.3987Z" fill="#4C3B3C"/>
<path d="M128.624 18.3987H124.95V22.0729H128.624V18.3987Z" fill="#4C3B3C"/>
<path d="M11.0506 22.0729H7.37646V25.747H11.0506V22.0729Z" fill="#4C3B3C"/>
<path d="M18.399 22.0729H14.7248V25.747H18.399V22.0729Z" fill="#4C3B3C"/>
<path d="M22.0731 22.0729H18.399V25.747H22.0731V22.0729Z" fill="#4C3B3C"/>
<path d="M25.7473 22.0729H22.0731V25.747H25.7473V22.0729Z" fill="#4C3B3C"/>
<path d="M33.0956 22.0729H29.4215V25.747H33.0956V22.0729Z" fill="#4C3B3C"/>
<path d="M44.1181 22.0729H40.444V25.747H44.1181V22.0729Z" fill="#4C3B3C"/>
<path d="M55.1406 22.0729H51.4665V25.747H55.1406V22.0729Z" fill="#4C3B3C"/>
<path d="M62.4889 22.0729H58.8148V25.747H62.4889V22.0729Z" fill="#4C3B3C"/>
<path d="M69.8373 22.0729H66.1631V25.747H69.8373V22.0729Z" fill="#4C3B3C"/>
<path d="M73.5114 22.0729H69.8373V25.747H73.5114V22.0729Z" fill="#4C3B3C"/>
<path d="M88.2081 22.0729H84.5339V25.747H88.2081V22.0729Z" fill="#4C3B3C"/>
<path d="M91.8823 22.0729H88.2081V25.747H91.8823V22.0729Z" fill="#4C3B3C"/>
<path d="M95.5564 22.0729H91.8823V25.747H95.5564V22.0729Z" fill="#4C3B3C"/>
<path d="M106.579 22.0729H102.905V25.747H106.579V22.0729Z" fill="#4C3B3C"/>
<path d="M113.927 22.0729H110.253V25.747H113.927V22.0729Z" fill="#4C3B3C"/>
<path d="M117.601 22.0729H113.927V25.747H117.601V22.0729Z" fill="#4C3B3C"/>
<path d="M121.276 22.0729H117.601V25.747H121.276V22.0729Z" fill="#4C3B3C"/>
<path d="M128.624 22.0729H124.95V25.747H128.624V22.0729Z" fill="#4C3B3C"/>
<path d="M11.0506 25.747H7.37646V29.4212H11.0506V25.747Z" fill="#4C3B3C"/>
<path d="M33.0956 25.747H29.4215V29.4212H33.0956V25.747Z" fill="#4C3B3C"/>
<path d="M40.444 25.747H36.7698V29.4212H40.444V25.747Z" fill="#4C3B3C"/>
<path d="M44.1181 25.747H40.444V29.4212H44.1181V25.747Z" fill="#4C3B3C"/>
<path d="M47.7923 25.747H44.1181V29.4212H47.7923V25.747Z" fill="#4C3B3C"/>
<path d="M51.4665 25.747H47.7923V29.4212H51.4665V25.747Z" fill="#4C3B3C"/>
<path d="M66.1631 25.747H62.4889V29.4212H66.1631V25.747Z" fill="#4C3B3C"/>
<path d="M69.8373 25.747H66.1631V29.4212H69.8373V25.747Z" fill="#4C3B3C"/>
<path d="M73.5114 25.747H69.8373V29.4212H73.5114V25.747Z" fill="#4C3B3C"/>
<path d="M77.1856 25.747H73.5114V29.4212H77.1856V25.747Z" fill="#4C3B3C"/>
<path d="M84.5339 25.747H80.8598V29.4212H84.5339V25.747Z" fill="#4C3B3C"/>
<path d="M88.2081 25.747H84.5339V29.4212H88.2081V25.747Z" fill="#4C3B3C"/>
<path d="M95.5564 25.747H91.8823V29.4212H95.5564V25.747Z" fill="#4C3B3C"/>
<path d="M106.579 25.747H102.905V29.4212H106.579V25.747Z" fill="#4C3B3C"/>
<path d="M128.624 25.747H124.95V29.4212H128.624V25.747Z" fill="#4C3B3C"/>
<path d="M11.0506 29.4212H7.37646V33.0954H11.0506V29.4212Z" fill="#4C3B3C"/>
<path d="M14.7248 29.4212H11.0506V33.0954H14.7248V29.4212Z" fill="#4C3B3C"/>
<path d="M18.399 29.4212H14.7248V33.0954H18.399V29.4212Z" fill="#4C3B3C"/>
<path d="M22.0731 29.4212H18.399V33.0954H22.0731V29.4212Z" fill="#4C3B3C"/>
<path d="M25.7473 29.4212H22.0731V33.0954H25.7473V29.4212Z" fill="#4C3B3C"/>
<path d="M29.4215 29.4212H25.7473V33.0954H29.4215V29.4212Z" fill="#4C3B3C"/>
<path d="M33.0956 29.4212H29.4215V33.0954H33.0956V29.4212Z" fill="#4C3B3C"/>
<path d="M40.444 29.4212H36.7698V33.0954H40.444V29.4212Z" fill="#4C3B3C"/>
<path d="M47.7923 29.4212H44.1181V33.0954H47.7923V29.4212Z" fill="#4C3B3C"/>
<path d="M55.1406 29.4212H51.4665V33.0954H55.1406V29.4212Z" fill="#4C3B3C"/>
<path d="M62.4889 29.4212H58.8148V33.0954H62.4889V29.4212Z" fill="#4C3B3C"/>
<path d="M69.8373 29.4212H66.1631V33.0954H69.8373V29.4212Z" fill="#4C3B3C"/>
<path d="M77.1856 29.4212H73.5114V33.0954H77.1856V29.4212Z" fill="#4C3B3C"/>
<path d="M84.5339 29.4212H80.8598V33.0954H84.5339V29.4212Z" fill="#4C3B3C"/>
<path d="M91.8823 29.4212H88.2081V33.0954H91.8823V29.4212Z" fill="#4C3B3C"/>
<path d="M99.2306 29.4212H95.5564V33.0954H99.2306V29.4212Z" fill="#4C3B3C"/>
<path d="M106.579 29.4212H102.905V33.0954H106.579V29.4212Z" fill="#4C3B3C"/>
<path d="M110.253 29.4212H106.579V33.0954H110.253V29.4212Z" fill="#4C3B3C"/>
<path d="M113.927 29.4212H110.253V33.0954H113.927V29.4212Z" fill="#4C3B3C"/>
<path d="M117.601 29.4212H113.927V33.0954H117.601V29.4212Z" fill="#4C3B3C"/>
<path d="M121.276 29.4212H117.601V33.0954H121.276V29.4212Z" fill="#4C3B3C"/>
<path d="M124.95 29.4212H121.276V33.0954H124.95V29.4212Z" fill="#4C3B3C"/>
<path d="M128.624 29.4212H124.95V33.0954H128.624V29.4212Z" fill="#4C3B3C"/>
<path d="M40.444 33.0954H36.7698V36.7695H40.444V33.0954Z" fill="#4C3B3C"/>
<path d="M44.1181 33.0954H40.444V36.7695H44.1181V33.0954Z" fill="#4C3B3C"/>
<path d="M51.4665 33.0954H47.7923V36.7695H51.4665V33.0954Z" fill="#4C3B3C"/>
<path d="M66.1631 33.0954H62.4889V36.7695H66.1631V33.0954Z" fill="#4C3B3C"/>
<path d="M69.8373 33.0954H66.1631V36.7695H69.8373V33.0954Z" fill="#4C3B3C"/>
<path d="M73.5114 33.0954H69.8373V36.7695H73.5114V33.0954Z" fill="#4C3B3C"/>
<path d="M80.8598 33.0954H77.1856L77.1856 36.7695H80.8598V33.0954Z" fill="#4C3B3C"/>
<path d="M84.5339 33.0954H80.8598V36.7695H84.5339V33.0954Z" fill="#4C3B3C"/>
<path d="M88.2081 33.0954H84.5339V36.7695H88.2081V33.0954Z" fill="#4C3B3C"/>
<path d="M11.0506 36.7695H7.37646V40.4437H11.0506V36.7695Z" fill="#4C3B3C"/>
<path d="M14.7248 36.7695H11.0506V40.4437H14.7248V36.7695Z" fill="#4C3B3C"/>
<path d="M22.0731 36.7695H18.399V40.4437H22.0731V36.7695Z" fill="#4C3B3C"/>
<path d="M33.0956 36.7695H29.4215V40.4437H33.0956V36.7695Z" fill="#4C3B3C"/>
<path d="M36.7698 36.7695H33.0956V40.4437H36.7698V36.7695Z" fill="#4C3B3C"/>
<path d="M51.4665 36.7695H47.7923V40.4437H51.4665V36.7695Z" fill="#4C3B3C"/>
<path d="M58.8148 36.7695H55.1406V40.4437H58.8148V36.7695Z" fill="#4C3B3C"/>
<path d="M62.4889 36.7695H58.8148V40.4437H62.4889V36.7695Z" fill="#4C3B3C"/>
<path d="M69.8373 36.7695H66.1631V40.4437H69.8373V36.7695Z" fill="#4C3B3C"/>
<path d="M73.5114 36.7695H69.8373V40.4437H73.5114V36.7695Z" fill="#4C3B3C"/>
<path d="M84.5339 36.7695H80.8598V40.4437H84.5339V36.7695Z" fill="#4C3B3C"/>
<path d="M88.2081 36.7695H84.5339V40.4437H88.2081V36.7695Z" fill="#4C3B3C"/>
<path d="M99.2306 36.7695H95.5564V40.4437H99.2306V36.7695Z" fill="#4C3B3C"/>
<path d="M102.905 36.7695H99.2306V40.4437H102.905V36.7695Z" fill="#4C3B3C"/>
<path d="M106.579 36.7695H102.905V40.4437H106.579V36.7695Z" fill="#4C3B3C"/>
<path d="M110.253 36.7695H106.579V40.4437H110.253V36.7695Z" fill="#4C3B3C"/>
<path d="M117.601 36.7695H113.927V40.4437H117.601V36.7695Z" fill="#4C3B3C"/>
<path d="M121.276 36.7695H117.601V40.4437H121.276V36.7695Z" fill="#4C3B3C"/>
<path d="M128.624 36.7695H124.95V40.4437H128.624V36.7695Z" fill="#4C3B3C"/>
<path d="M11.0506 40.4437H7.37646V44.1179H11.0506V40.4437Z" fill="#4C3B3C"/>
<path d="M14.7248 40.4437H11.0506V44.1179H14.7248V40.4437Z" fill="#4C3B3C"/>
<path d="M18.399 40.4437H14.7248V44.1179H18.399V40.4437Z" fill="#4C3B3C"/>
<path d="M29.4215 40.4437H25.7473V44.1179H29.4215V40.4437Z" fill="#4C3B3C"/>
<path d="M36.7698 40.4437H33.0956V44.1179H36.7698V40.4437Z" fill="#4C3B3C"/>
<path d="M44.1181 40.4437H40.444V44.1179H44.1181V40.4437Z" fill="#4C3B3C"/>
<path d="M58.8148 40.4437H55.1406V44.1179H58.8148V40.4437Z" fill="#4C3B3C"/>
<path d="M62.4889 40.4437H58.8148V44.1179H62.4889V40.4437Z" fill="#4C3B3C"/>
<path d="M80.8598 40.4437H77.1856V44.1179H80.8598V40.4437Z" fill="#4C3B3C"/>
<path d="M84.5339 40.4437H80.8598V44.1179H84.5339V40.4437Z" fill="#4C3B3C"/>
<path d="M88.2081 40.4437H84.5339V44.1179H88.2081V40.4437Z" fill="#4C3B3C"/>
<path d="M95.5564 40.4437H91.8823V44.1179H95.5564V40.4437Z" fill="#4C3B3C"/>
<path d="M99.2306 40.4437H95.5564V44.1179H99.2306V40.4437Z" fill="#4C3B3C"/>
<path d="M110.253 40.4437H106.579V44.1179H110.253V40.4437Z" fill="#4C3B3C"/>
<path d="M113.927 40.4437H110.253V44.1179H113.927V40.4437Z" fill="#4C3B3C"/>
<path d="M121.276 40.4437H117.601V44.1179H121.276V40.4437Z" fill="#4C3B3C"/>
<path d="M128.624 40.4437H124.95V44.1179H128.624V40.4437Z" fill="#4C3B3C"/>
<path d="M11.0506 44.1179H7.37646V47.792H11.0506V44.1179Z" fill="#4C3B3C"/>
<path d="M18.399 44.1179H14.7248V47.792H18.399V44.1179Z" fill="#4C3B3C"/>
<path d="M22.0731 44.1179H18.399V47.792H22.0731V44.1179Z" fill="#4C3B3C"/>
<path d="M29.4215 44.1179H25.7473V47.792H29.4215V44.1179Z" fill="#4C3B3C"/>
<path d="M33.0956 44.1179H29.4215V47.792H33.0956V44.1179Z" fill="#4C3B3C"/>
<path d="M40.444 44.1179H36.7698V47.792H40.444V44.1179Z" fill="#4C3B3C"/>
<path d="M51.4665 44.1179H47.7923V47.792H51.4665V44.1179Z" fill="#4C3B3C"/>
<path d="M58.8148 44.1179H55.1406V47.792H58.8148V44.1179Z" fill="#4C3B3C"/>
<path d="M62.4889 44.1179H58.8148V47.792H62.4889V44.1179Z" fill="#4C3B3C"/>
<path d="M69.8373 44.1179H66.1631V47.792H69.8373V44.1179Z" fill="#4C3B3C"/>
<path d="M73.5114 44.1179H69.8373V47.792H73.5114V44.1179Z" fill="#4C3B3C"/>
<path d="M80.8598 44.1179H77.1856V47.792H80.8598V44.1179Z" fill="#4C3B3C"/>
<path d="M84.5339 44.1179H80.8598V47.792H84.5339V44.1179Z" fill="#4C3B3C"/>
<path d="M99.2306 44.1179H95.5564V47.792H99.2306V44.1179Z" fill="#4C3B3C"/>
<path d="M102.905 44.1179H99.2306V47.792H102.905V44.1179Z" fill="#4C3B3C"/>
<path d="M110.253 44.1179H106.579V47.792H110.253V44.1179Z" fill="#4C3B3C"/>
<path d="M117.601 44.1179H113.927V47.792H117.601V44.1179Z" fill="#4C3B3C"/>
<path d="M121.276 44.1179H117.601V47.792H121.276V44.1179Z" fill="#4C3B3C"/>
<path d="M124.95 44.1179H121.276V47.792H124.95V44.1179Z" fill="#4C3B3C"/>
<path d="M18.399 47.792H14.7248V51.4662H18.399V47.792Z" fill="#4C3B3C"/>
<path d="M29.4215 47.792H25.7473V51.4662H29.4215V47.792Z" fill="#4C3B3C"/>
<path d="M36.7698 47.792H33.0956V51.4662H36.7698V47.792Z" fill="#4C3B3C"/>
<path d="M44.1181 47.792H40.444V51.4662H44.1181V47.792Z" fill="#4C3B3C"/>
<path d="M47.7923 47.792H44.1181V51.4662H47.7923V47.792Z" fill="#4C3B3C"/>
<path d="M51.4665 47.792H47.7923V51.4662H51.4665V47.792Z" fill="#4C3B3C"/>
<path d="M66.1631 47.792H62.4889V51.4662H66.1631V47.792Z" fill="#4C3B3C"/>
<path d="M73.5114 47.792H69.8373V51.4662H73.5114V47.792Z" fill="#4C3B3C"/>
<path d="M88.2081 47.792H84.5339V51.4662H88.2081V47.792Z" fill="#4C3B3C"/>
<path d="M91.8823 47.792H88.2081V51.4662H91.8823V47.792Z" fill="#4C3B3C"/>
<path d="M95.5564 47.792H91.8823V51.4662H95.5564V47.792Z" fill="#4C3B3C"/>
<path d="M99.2306 47.792H95.5564V51.4662H99.2306V47.792Z" fill="#4C3B3C"/>
<path d="M106.579 47.792H102.905V51.4662H106.579V47.792Z" fill="#4C3B3C"/>
<path d="M113.927 47.792H110.253V51.4662H113.927V47.792Z" fill="#4C3B3C"/>
<path d="M117.601 47.792H113.927V51.4662H117.601V47.792Z" fill="#4C3B3C"/>
<path d="M124.95 47.792H121.276V51.4662H124.95V47.792Z" fill="#4C3B3C"/>
<path d="M11.0506 51.4662H7.37646V55.1404H11.0506V51.4662Z" fill="#4C3B3C"/>
<path d="M18.399 51.4662H14.7248V55.1404H18.399V51.4662Z" fill="#4C3B3C"/>
<path d="M22.0731 51.4662H18.399V55.1404H22.0731V51.4662Z" fill="#4C3B3C"/>
<path d="M33.0956 51.4662H29.4215V55.1404H33.0956V51.4662Z" fill="#4C3B3C"/>
<path d="M40.444 51.4662H36.7698V55.1404H40.444V51.4662Z" fill="#4C3B3C"/>
<path d="M44.1181 51.4662H40.444V55.1404H44.1181V51.4662Z" fill="#4C3B3C"/>
<path d="M47.7923 51.4662H44.1181V55.1404H47.7923V51.4662Z" fill="#4C3B3C"/>
<path d="M51.4665 51.4662H47.7923V55.1404H51.4665V51.4662Z" fill="#4C3B3C"/>
<path d="M55.1406 51.4662H51.4665V55.1404H55.1406V51.4662Z" fill="#4C3B3C"/>
<path d="M66.1631 51.4662H62.4889V55.1404H66.1631V51.4662Z" fill="#4C3B3C"/>
<path d="M69.8373 51.4662H66.1631V55.1404H69.8373V51.4662Z" fill="#4C3B3C"/>
<path d="M77.1856 51.4662H73.5114V55.1404H77.1856V51.4662Z" fill="#4C3B3C"/>
<path d="M91.8823 51.4662H88.2081V55.1404H91.8823V51.4662Z" fill="#4C3B3C"/>
<path d="M110.253 51.4662H106.579V55.1404H110.253V51.4662Z" fill="#4C3B3C"/>
<path d="M113.927 51.4662H110.253V55.1404H113.927V51.4662Z" fill="#4C3B3C"/>
<path d="M117.601 51.4662H113.927V55.1404H117.601V51.4662Z" fill="#4C3B3C"/>
<path d="M121.276 51.4662H117.601V55.1404H121.276V51.4662Z" fill="#4C3B3C"/>
<path d="M18.399 55.1404H14.7248V58.8145H18.399V55.1404Z" fill="#4C3B3C"/>
<path d="M29.4215 55.1404H25.7473V58.8145H29.4215V55.1404Z" fill="#4C3B3C"/>
<path d="M36.7698 55.1404H33.0956V58.8145H36.7698V55.1404Z" fill="#4C3B3C"/>
<path d="M40.444 55.1404H36.7698V58.8145H40.444V55.1404Z" fill="#4C3B3C"/>
<path d="M44.1181 55.1404H40.444V58.8145H44.1181V55.1404Z" fill="#4C3B3C"/>
<path d="M47.7923 55.1404H44.1181V58.8145H47.7923V55.1404Z" fill="#4C3B3C"/>
<path d="M62.4889 55.1404H58.8148V58.8145H62.4889V55.1404Z" fill="#4C3B3C"/>
<path d="M66.1631 55.1404H62.4889V58.8145H66.1631V55.1404Z" fill="#4C3B3C"/>
<path d="M73.5114 55.1404H69.8373V58.8145H73.5114V55.1404Z" fill="#4C3B3C"/>
<path d="M77.1856 55.1404H73.5114V58.8145H77.1856V55.1404Z" fill="#4C3B3C"/>
<path d="M80.8598 55.1404H77.1856V58.8145H80.8598V55.1404Z" fill="#4C3B3C"/>
<path d="M84.5339 55.1404H80.8598V58.8145H84.5339V55.1404Z" fill="#4C3B3C"/>
<path d="M91.8823 55.1404H88.2081V58.8145H91.8823V55.1404Z" fill="#4C3B3C"/>
<path d="M99.2306 55.1404H95.5564V58.8145H99.2306V55.1404Z" fill="#4C3B3C"/>
<path d="M102.905 55.1404H99.2306V58.8145H102.905V55.1404Z" fill="#4C3B3C"/>
<path d="M106.579 55.1404H102.905V58.8145H106.579V55.1404Z" fill="#4C3B3C"/>
<path d="M110.253 55.1404H106.579V58.8145H110.253V55.1404Z" fill="#4C3B3C"/>
<path d="M117.601 55.1404H113.927V58.8145H117.601V55.1404Z" fill="#4C3B3C"/>
<path d="M121.276 55.1404H117.601V58.8145H121.276V55.1404Z" fill="#4C3B3C"/>
<path d="M124.95 55.1404H121.276V58.8145H124.95V55.1404Z" fill="#4C3B3C"/>
<path d="M14.7248 58.8145H11.0506V62.4887H14.7248V58.8145Z" fill="#4C3B3C"/>
<path d="M25.7473 58.8145H22.0731V62.4887H25.7473V58.8145Z" fill="#4C3B3C"/>
<path d="M29.4215 58.8145H25.7473V62.4887H29.4215V58.8145Z" fill="#4C3B3C"/>
<path d="M33.0956 58.8145H29.4215V62.4887H33.0956V58.8145Z" fill="#4C3B3C"/>
<path d="M36.7698 58.8145H33.0956V62.4887H36.7698V58.8145Z" fill="#4C3B3C"/>
<path d="M40.444 58.8145H36.7698V62.4887H40.444V58.8145Z" fill="#4C3B3C"/>
<path d="M44.1181 58.8145H40.444V62.4887H44.1181V58.8145Z" fill="#4C3B3C"/>
<path d="M55.1406 58.8145H51.4665V62.4887H55.1406V58.8145Z" fill="#4C3B3C"/>
<path d="M58.8148 58.8145H55.1406V62.4887H58.8148V58.8145Z" fill="#4C3B3C"/>
<path d="M73.5114 58.8145H69.8373V62.4887H73.5114V58.8145Z" fill="#4C3B3C"/>
<path d="M88.2081 58.8145H84.5339V62.4887H88.2081V58.8145Z" fill="#4C3B3C"/>
<path d="M99.2306 58.8145H95.5564V62.4887H99.2306V58.8145Z" fill="#4C3B3C"/>
<path d="M102.905 58.8145H99.2306V62.4887H102.905V58.8145Z" fill="#4C3B3C"/>
<path d="M110.253 58.8145H106.579V62.4887H110.253V58.8145Z" fill="#4C3B3C"/>
<path d="M11.0506 62.4887H7.37646V66.1629H11.0506V62.4887Z" fill="#4C3B3C"/>
<path d="M14.7248 62.4887H11.0506V66.1629H14.7248V62.4887Z" fill="#4C3B3C"/>
<path d="M22.0731 62.4887H18.399V66.1629H22.0731V62.4887Z" fill="#4C3B3C"/>
<path d="M29.4215 62.4887H25.7473V66.1629H29.4215V62.4887Z" fill="#4C3B3C"/>
<path d="M44.1181 62.4887H40.444V66.1629H44.1181V62.4887Z" fill="#4C3B3C"/>
<path d="M47.7923 62.4887H44.1181V66.1629H47.7923V62.4887Z" fill="#4C3B3C"/>
<path d="M55.1406 62.4887H51.4665V66.1629H55.1406V62.4887Z" fill="#4C3B3C"/>
<path d="M62.4889 62.4887H58.8148V66.1629H62.4889V62.4887Z" fill="#4C3B3C"/>
<path d="M66.1631 62.4887H62.4889V66.1629H66.1631V62.4887Z" fill="#4C3B3C"/>
<path d="M69.8373 62.4887H66.1631V66.1629H69.8373V62.4887Z" fill="#4C3B3C"/>
<path d="M73.5114 62.4887H69.8373V66.1629H73.5114V62.4887Z" fill="#4C3B3C"/>
<path d="M77.1856 62.4887H73.5114V66.1629H77.1856V62.4887Z" fill="#4C3B3C"/>
<path d="M80.8598 62.4887H77.1856V66.1629H80.8598V62.4887Z" fill="#4C3B3C"/>
<path d="M84.5339 62.4887H80.8598V66.1629H84.5339V62.4887Z" fill="#4C3B3C"/>
<path d="M88.2081 62.4887H84.5339V66.1629H88.2081V62.4887Z" fill="#4C3B3C"/>
<path d="M91.8823 62.4887H88.2081V66.1629H91.8823V62.4887Z" fill="#4C3B3C"/>
<path d="M99.2306 62.4887H95.5564V66.1629H99.2306V62.4887Z" fill="#4C3B3C"/>
<path d="M106.579 62.4887H102.905V66.1629H106.579V62.4887Z" fill="#4C3B3C"/>
<path d="M110.253 62.4887H106.579V66.1629H110.253V62.4887Z" fill="#4C3B3C"/>
<path d="M128.624 62.4887H124.95V66.1629H128.624V62.4887Z" fill="#4C3B3C"/>
<path d="M14.7248 66.1629H11.0506V69.837H14.7248V66.1629Z" fill="#4C3B3C"/>
<path d="M18.399 66.1629H14.7248V69.837H18.399V66.1629Z" fill="#4C3B3C"/>
<path d="M22.0731 66.1629H18.399V69.837H22.0731V66.1629Z" fill="#4C3B3C"/>
<path d="M29.4215 66.1629H25.7473V69.837H29.4215V66.1629Z" fill="#4C3B3C"/>
<path d="M33.0956 66.1629H29.4215V69.837H33.0956V66.1629Z" fill="#4C3B3C"/>
<path d="M44.1181 66.1629H40.444V69.837H44.1181V66.1629Z" fill="#4C3B3C"/>
<path d="M51.4665 66.1629H47.7923V69.837H51.4665V66.1629Z" fill="#4C3B3C"/>
<path d="M55.1406 66.1629H51.4665V69.837H55.1406V66.1629Z" fill="#4C3B3C"/>
<path d="M58.8148 66.1629H55.1406V69.837H58.8148V66.1629Z" fill="#4C3B3C"/>
<path d="M66.1631 66.1629H62.4889V69.837H66.1631V66.1629Z" fill="#4C3B3C"/>
<path d="M73.5114 66.1629H69.8373V69.837H73.5114V66.1629Z" fill="#4C3B3C"/>
<path d="M77.1856 66.1629H73.5114V69.837H77.1856V66.1629Z" fill="#4C3B3C"/>
<path d="M80.8598 66.1629H77.1856V69.837H80.8598V66.1629Z" fill="#4C3B3C"/>
<path d="M95.5564 66.1629H91.8823V69.837H95.5564V66.1629Z" fill="#4C3B3C"/>
<path d="M113.927 66.1629H110.253V69.837H113.927V66.1629Z" fill="#4C3B3C"/>
<path d="M11.0506 69.837H7.37646V73.5112H11.0506V69.837Z" fill="#4C3B3C"/>
<path d="M14.7248 69.837H11.0506V73.5112H14.7248V69.837Z" fill="#4C3B3C"/>
<path d="M18.399 69.837H14.7248V73.5112H18.399V69.837Z" fill="#4C3B3C"/>
<path d="M25.7473 69.837H22.0731V73.5112H25.7473V69.837Z" fill="#4C3B3C"/>
<path d="M40.444 69.837H36.7698V73.5112H40.444V69.837Z" fill="#4C3B3C"/>
<path d="M47.7923 69.837H44.1181V73.5112H47.7923V69.837Z" fill="#4C3B3C"/>
<path d="M51.4665 69.837H47.7923V73.5112H51.4665V69.837Z" fill="#4C3B3C"/>
<path d="M62.4889 69.837H58.8148V73.5112H62.4889V69.837Z" fill="#4C3B3C"/>
<path d="M66.1631 69.837H62.4889V73.5112H66.1631V69.837Z" fill="#4C3B3C"/>
<path d="M69.8373 69.837H66.1631V73.5112H69.8373V69.837Z" fill="#4C3B3C"/>
<path d="M73.5114 69.837H69.8373V73.5112H73.5114V69.837Z" fill="#4C3B3C"/>
<path d="M77.1856 69.837H73.5114V73.5112H77.1856V69.837Z" fill="#4C3B3C"/>
<path d="M91.8823 69.837H88.2081V73.5112H91.8823V69.837Z" fill="#4C3B3C"/>
<path d="M95.5564 69.837H91.8823V73.5112H95.5564V69.837Z" fill="#4C3B3C"/>
<path d="M99.2306 69.837H95.5564V73.5112H99.2306V69.837Z" fill="#4C3B3C"/>
<path d="M102.905 69.837H99.2306V73.5112H102.905V69.837Z" fill="#4C3B3C"/>
<path d="M110.253 69.837H106.579V73.5112H110.253V69.837Z" fill="#4C3B3C"/>
<path d="M113.927 69.837H110.253V73.5112H113.927V69.837Z" fill="#4C3B3C"/>
<path d="M14.7248 73.5112H11.0506V77.1854H14.7248V73.5112Z" fill="#4C3B3C"/>
<path d="M25.7473 73.5112H22.0731V77.1854H25.7473V73.5112Z" fill="#4C3B3C"/>
<path d="M33.0956 73.5112H29.4215V77.1854H33.0956V73.5112Z" fill="#4C3B3C"/>
<path d="M55.1406 73.5112H51.4665V77.1854H55.1406V73.5112Z" fill="#4C3B3C"/>
<path d="M58.8148 73.5112H55.1406V77.1854H58.8148V73.5112Z" fill="#4C3B3C"/>
<path d="M66.1631 73.5112H62.4889V77.1854H66.1631V73.5112Z" fill="#4C3B3C"/>
<path d="M69.8373 73.5112H66.1631V77.1854H69.8373V73.5112Z" fill="#4C3B3C"/>
<path d="M73.5114 73.5112H69.8373V77.1854H73.5114V73.5112Z" fill="#4C3B3C"/>
<path d="M77.1856 73.5112H73.5114V77.1854H77.1856V73.5112Z" fill="#4C3B3C"/>
<path d="M80.8598 73.5112H77.1856V77.1854H80.8598V73.5112Z" fill="#4C3B3C"/>
<path d="M84.5339 73.5112H80.8598V77.1854H84.5339V73.5112Z" fill="#4C3B3C"/>
<path d="M99.2306 73.5112H95.5564V77.1854H99.2306V73.5112Z" fill="#4C3B3C"/>
<path d="M102.905 73.5112H99.2306V77.1854H102.905V73.5112Z" fill="#4C3B3C"/>
<path d="M110.253 73.5112H106.579V77.1854H110.253V73.5112Z" fill="#4C3B3C"/>
<path d="M117.601 73.5112H113.927V77.1854H117.601V73.5112Z" fill="#4C3B3C"/>
<path d="M121.276 73.5112H117.601V77.1854H121.276V73.5112Z" fill="#4C3B3C"/>
<path d="M128.624 73.5112H124.95V77.1854H128.624V73.5112Z" fill="#4C3B3C"/>
<path d="M14.7248 77.1854H11.0506V80.8595H14.7248V77.1854Z" fill="#4C3B3C"/>
<path d="M18.399 77.1854L14.7248 77.1854V80.8595H18.399V77.1854Z" fill="#4C3B3C"/>
<path d="M40.444 77.1854H36.7698V80.8595H40.444V77.1854Z" fill="#4C3B3C"/>
<path d="M47.7923 77.1854H44.1181V80.8595H47.7923V77.1854Z" fill="#4C3B3C"/>
<path d="M51.4665 77.1854L47.7923 77.1854V80.8595H51.4665V77.1854Z" fill="#4C3B3C"/>
<path d="M73.5114 77.1854H69.8373V80.8595H73.5114V77.1854Z" fill="#4C3B3C"/>
<path d="M77.1856 77.1854H73.5114V80.8595H77.1856V77.1854Z" fill="#4C3B3C"/>
<path d="M84.5339 77.1854H80.8598V80.8595H84.5339V77.1854Z" fill="#4C3B3C"/>
<path d="M91.8823 77.1854H88.2081V80.8595H91.8823V77.1854Z" fill="#4C3B3C"/>
<path d="M95.5564 77.1854L91.8823 77.1854V80.8595H95.5564V77.1854Z" fill="#4C3B3C"/>
<path d="M117.601 77.1854H113.927V80.8595H117.601V77.1854Z" fill="#4C3B3C"/>
<path d="M121.276 77.1854H117.601V80.8595H121.276V77.1854Z" fill="#4C3B3C"/>
<path d="M128.624 77.1854H124.95V80.8595H128.624V77.1854Z" fill="#4C3B3C"/>
<path d="M11.0506 80.8595H7.37646V84.5337H11.0506V80.8595Z" fill="#4C3B3C"/>
<path d="M22.0731 80.8595H18.399V84.5337H22.0731V80.8595Z" fill="#4C3B3C"/>
<path d="M25.7473 80.8595H22.0731V84.5337H25.7473V80.8595Z" fill="#4C3B3C"/>
<path d="M33.0956 80.8595H29.4215V84.5337H33.0956V80.8595Z" fill="#4C3B3C"/>
<path d="M36.7698 80.8595H33.0956V84.5337H36.7698V80.8595Z" fill="#4C3B3C"/>
<path d="M55.1406 80.8595H51.4665V84.5337H55.1406V80.8595Z" fill="#4C3B3C"/>
<path d="M62.4889 80.8595H58.8148V84.5337H62.4889V80.8595Z" fill="#4C3B3C"/>
<path d="M66.1631 80.8595H62.4889V84.5337H66.1631V80.8595Z" fill="#4C3B3C"/>
<path d="M73.5114 80.8595H69.8373V84.5337H73.5114V80.8595Z" fill="#4C3B3C"/>
<path d="M80.8598 80.8595H77.1856L77.1856 84.5337H80.8598V80.8595Z" fill="#4C3B3C"/>
<path d="M84.5339 80.8595H80.8598V84.5337H84.5339V80.8595Z" fill="#4C3B3C"/>
<path d="M91.8823 80.8595H88.2081V84.5337H91.8823V80.8595Z" fill="#4C3B3C"/>
<path d="M102.905 80.8595H99.2306V84.5337H102.905V80.8595Z" fill="#4C3B3C"/>
<path d="M106.579 80.8595H102.905V84.5337H106.579V80.8595Z" fill="#4C3B3C"/>
<path d="M117.601 80.8595H113.927V84.5337H117.601V80.8595Z" fill="#4C3B3C"/>
<path d="M124.95 80.8595H121.276V84.5337H124.95V80.8595Z" fill="#4C3B3C"/>
<path d="M128.624 80.8595H124.95V84.5337H128.624V80.8595Z" fill="#4C3B3C"/>
<path d="M14.7248 84.5337H11.0506V88.2079H14.7248V84.5337Z" fill="#4C3B3C"/>
<path d="M18.399 84.5337H14.7248V88.2079H18.399V84.5337Z" fill="#4C3B3C"/>
<path d="M22.0731 84.5337H18.399V88.2079H22.0731V84.5337Z" fill="#4C3B3C"/>
<path d="M36.7698 84.5337H33.0956V88.2079H36.7698V84.5337Z" fill="#4C3B3C"/>
<path d="M44.1181 84.5337H40.444V88.2079H44.1181V84.5337Z" fill="#4C3B3C"/>
<path d="M51.4665 84.5337H47.7923V88.2079H51.4665V84.5337Z" fill="#4C3B3C"/>
<path d="M55.1406 84.5337H51.4665V88.2079H55.1406V84.5337Z" fill="#4C3B3C"/>
<path d="M62.4889 84.5337H58.8148V88.2079H62.4889V84.5337Z" fill="#4C3B3C"/>
<path d="M73.5114 84.5337H69.8373V88.2079H73.5114V84.5337Z" fill="#4C3B3C"/>
<path d="M80.8598 84.5337H77.1856V88.2079H80.8598V84.5337Z" fill="#4C3B3C"/>
<path d="M88.2081 84.5337H84.5339V88.2079H88.2081V84.5337Z" fill="#4C3B3C"/>
<path d="M95.5564 84.5337H91.8823V88.2079H95.5564V84.5337Z" fill="#4C3B3C"/>
<path d="M113.927 84.5337H110.253V88.2079H113.927V84.5337Z" fill="#4C3B3C"/>
<path d="M121.276 84.5337H117.601V88.2079H121.276V84.5337Z" fill="#4C3B3C"/>
<path d="M124.95 84.5337H121.276V88.2079H124.95V84.5337Z" fill="#4C3B3C"/>
<path d="M11.0506 88.2079H7.37646V91.882H11.0506V88.2079Z" fill="#4C3B3C"/>
<path d="M22.0731 88.2079H18.399V91.882H22.0731V88.2079Z" fill="#4C3B3C"/>
<path d="M25.7473 88.2079H22.0731V91.882H25.7473V88.2079Z" fill="#4C3B3C"/>
<path d="M29.4215 88.2079H25.7473V91.882H29.4215V88.2079Z" fill="#4C3B3C"/>
<path d="M33.0956 88.2079H29.4215V91.882H33.0956V88.2079Z" fill="#4C3B3C"/>
<path d="M36.7698 88.2079H33.0956V91.882H36.7698V88.2079Z" fill="#4C3B3C"/>
<path d="M40.444 88.2079H36.7698V91.882H40.444V88.2079Z" fill="#4C3B3C"/>
<path d="M51.4665 88.2079H47.7923V91.882H51.4665V88.2079Z" fill="#4C3B3C"/>
<path d="M58.8148 88.2079H55.1406V91.882H58.8148V88.2079Z" fill="#4C3B3C"/>
<path d="M62.4889 88.2079H58.8148V91.882H62.4889V88.2079Z" fill="#4C3B3C"/>
<path d="M69.8373 88.2079H66.1631V91.882H69.8373V88.2079Z" fill="#4C3B3C"/>
<path d="M88.2081 88.2079H84.5339V91.882H88.2081V88.2079Z" fill="#4C3B3C"/>
<path d="M95.5564 88.2079H91.8823V91.882H95.5564V88.2079Z" fill="#4C3B3C"/>
<path d="M102.905 88.2079H99.2306V91.882H102.905V88.2079Z" fill="#4C3B3C"/>
<path d="M106.579 88.2079H102.905V91.882H106.579V88.2079Z" fill="#4C3B3C"/>
<path d="M117.601 88.2079H113.927V91.882H117.601V88.2079Z" fill="#4C3B3C"/>
<path d="M121.276 88.2079H117.601V91.882H121.276V88.2079Z" fill="#4C3B3C"/>
<path d="M124.95 88.2079H121.276V91.882H124.95V88.2079Z" fill="#4C3B3C"/>
<path d="M22.0731 91.882H18.399V95.5562H22.0731V91.882Z" fill="#4C3B3C"/>
<path d="M29.4215 91.882H25.7473V95.5562H29.4215V91.882Z" fill="#4C3B3C"/>
<path d="M44.1181 91.882H40.444V95.5562H44.1181V91.882Z" fill="#4C3B3C"/>
<path d="M58.8148 91.882H55.1406V95.5562H58.8148V91.882Z" fill="#4C3B3C"/>
<path d="M62.4889 91.882H58.8148V95.5562H62.4889V91.882Z" fill="#4C3B3C"/>
<path d="M69.8373 91.882H66.1631V95.5562H69.8373V91.882Z" fill="#4C3B3C"/>
<path d="M77.1856 91.882H73.5114V95.5562H77.1856V91.882Z" fill="#4C3B3C"/>
<path d="M80.8598 91.882H77.1856V95.5562H80.8598V91.882Z" fill="#4C3B3C"/>
<path d="M88.2081 91.882H84.5339V95.5562H88.2081V91.882Z" fill="#4C3B3C"/>
<path d="M91.8823 91.882H88.2081V95.5562H91.8823V91.882Z" fill="#4C3B3C"/>
<path d="M106.579 91.882H102.905V95.5562H106.579V91.882Z" fill="#4C3B3C"/>
<path d="M22.0731 95.5562H18.399V99.2304H22.0731V95.5562Z" fill="#4C3B3C"/>
<path d="M33.0956 95.5562H29.4215V99.2304H33.0956V95.5562Z" fill="#4C3B3C"/>
<path d="M40.444 95.5562H36.7698V99.2304H40.444V95.5562Z" fill="#4C3B3C"/>
<path d="M44.1181 95.5562H40.444V99.2304H44.1181V95.5562Z" fill="#4C3B3C"/>
<path d="M55.1406 95.5562H51.4665V99.2304H55.1406V95.5562Z" fill="#4C3B3C"/>
<path d="M58.8148 95.5562H55.1406V99.2304H58.8148V95.5562Z" fill="#4C3B3C"/>
<path d="M66.1631 95.5562H62.4889V99.2304H66.1631V95.5562Z" fill="#4C3B3C"/>
<path d="M69.8373 95.5562H66.1631V99.2304H69.8373V95.5562Z" fill="#4C3B3C"/>
<path d="M73.5114 95.5562H69.8373V99.2304H73.5114V95.5562Z" fill="#4C3B3C"/>
<path d="M77.1856 95.5562H73.5114V99.2304H77.1856V95.5562Z" fill="#4C3B3C"/>
<path d="M80.8598 95.5562H77.1856V99.2304H80.8598V95.5562Z" fill="#4C3B3C"/>
<path d="M88.2081 95.5562H84.5339V99.2304H88.2081V95.5562Z" fill="#4C3B3C"/>
<path d="M99.2306 95.5562H95.5564V99.2304H99.2306V95.5562Z" fill="#4C3B3C"/>
<path d="M102.905 95.5562H99.2306V99.2304H102.905V95.5562Z" fill="#4C3B3C"/>
<path d="M106.579 95.5562H102.905V99.2304H106.579V95.5562Z" fill="#4C3B3C"/>
<path d="M110.253 95.5562H106.579V99.2304H110.253V95.5562Z" fill="#4C3B3C"/>
<path d="M113.927 95.5562H110.253V99.2304H113.927V95.5562Z" fill="#4C3B3C"/>
<path d="M121.276 95.5562H117.601V99.2304H121.276V95.5562Z" fill="#4C3B3C"/>
<path d="M124.95 95.5562H121.276V99.2304H124.95V95.5562Z" fill="#4C3B3C"/>
<path d="M128.624 95.5562H124.95V99.2304H128.624V95.5562Z" fill="#4C3B3C"/>
<path d="M44.1181 99.2304H40.444V102.905H44.1181V99.2304Z" fill="#4C3B3C"/>
<path d="M51.4665 99.2304H47.7923V102.905H51.4665V99.2304Z" fill="#4C3B3C"/>
<path d="M58.8148 99.2304H55.1406V102.905H58.8148V99.2304Z" fill="#4C3B3C"/>
<path d="M62.4889 99.2304H58.8148V102.905H62.4889V99.2304Z" fill="#4C3B3C"/>
<path d="M88.2081 99.2304H84.5339V102.905H88.2081V99.2304Z" fill="#4C3B3C"/>
<path d="M91.8823 99.2304H88.2081V102.905H91.8823V99.2304Z" fill="#4C3B3C"/>
<path d="M99.2306 99.2304H95.5564V102.905H99.2306V99.2304Z" fill="#4C3B3C"/>
<path d="M113.927 99.2304H110.253V102.905H113.927V99.2304Z" fill="#4C3B3C"/>
<path d="M121.276 99.2304H117.601V102.905H121.276V99.2304Z" fill="#4C3B3C"/>
<path d="M128.624 99.2304H124.95V102.905H128.624V99.2304Z" fill="#4C3B3C"/>
<path d="M11.0506 102.905H7.37646V106.579H11.0506V102.905Z" fill="#4C3B3C"/>
<path d="M14.7248 102.905H11.0506V106.579H14.7248V102.905Z" fill="#4C3B3C"/>
<path d="M18.399 102.905H14.7248V106.579H18.399V102.905Z" fill="#4C3B3C"/>
<path d="M22.0731 102.905H18.399V106.579H22.0731V102.905Z" fill="#4C3B3C"/>
<path d="M25.7473 102.905H22.0731V106.579H25.7473V102.905Z" fill="#4C3B3C"/>
<path d="M29.4215 102.905H25.7473V106.579H29.4215V102.905Z" fill="#4C3B3C"/>
<path d="M33.0956 102.905H29.4215V106.579H33.0956V102.905Z" fill="#4C3B3C"/>
<path d="M40.444 102.905H36.7698V106.579H40.444V102.905Z" fill="#4C3B3C"/>
<path d="M47.7923 102.905H44.1181V106.579H47.7923V102.905Z" fill="#4C3B3C"/>
<path d="M55.1406 102.905H51.4665V106.579H55.1406V102.905Z" fill="#4C3B3C"/>
<path d="M73.5114 102.905H69.8373V106.579H73.5114V102.905Z" fill="#4C3B3C"/>
<path d="M77.1856 102.905H73.5114V106.579H77.1856V102.905Z" fill="#4C3B3C"/>
<path d="M84.5339 102.905H80.8598V106.579H84.5339V102.905Z" fill="#4C3B3C"/>
<path d="M99.2306 102.905H95.5564V106.579H99.2306V102.905Z" fill="#4C3B3C"/>
<path d="M106.579 102.905H102.905V106.579H106.579V102.905Z" fill="#4C3B3C"/>
<path d="M113.927 102.905H110.253V106.579H113.927V102.905Z" fill="#4C3B3C"/>
<path d="M117.601 102.905H113.927V106.579H117.601V102.905Z" fill="#4C3B3C"/>
<path d="M124.95 102.905H121.276V106.579H124.95V102.905Z" fill="#4C3B3C"/>
<path d="M11.0506 106.579H7.37646V110.253H11.0506V106.579Z" fill="#4C3B3C"/>
<path d="M33.0956 106.579H29.4215V110.253H33.0956V106.579Z" fill="#4C3B3C"/>
<path d="M51.4665 106.579H47.7923V110.253H51.4665V106.579Z" fill="#4C3B3C"/>
<path d="M58.8148 106.579H55.1406V110.253H58.8148V106.579Z" fill="#4C3B3C"/>
<path d="M66.1631 106.579H62.4889V110.253H66.1631V106.579Z" fill="#4C3B3C"/>
<path d="M69.8373 106.579H66.1631V110.253H69.8373V106.579Z" fill="#4C3B3C"/>
<path d="M77.1856 106.579H73.5114V110.253H77.1856V106.579Z" fill="#4C3B3C"/>
<path d="M84.5339 106.579H80.8598V110.253H84.5339V106.579Z" fill="#4C3B3C"/>
<path d="M88.2081 106.579H84.5339V110.253H88.2081V106.579Z" fill="#4C3B3C"/>
<path d="M99.2306 106.579H95.5564V110.253H99.2306V106.579Z" fill="#4C3B3C"/>
<path d="M113.927 106.579H110.253V110.253H113.927V106.579Z" fill="#4C3B3C"/>
<path d="M117.601 106.579H113.927V110.253H117.601V106.579Z" fill="#4C3B3C"/>
<path d="M11.0506 110.253H7.37646V113.927H11.0506V110.253Z" fill="#4C3B3C"/>
<path d="M18.399 110.253H14.7248V113.927H18.399V110.253Z" fill="#4C3B3C"/>
<path d="M22.0731 110.253H18.399V113.927H22.0731V110.253Z" fill="#4C3B3C"/>
<path d="M25.7473 110.253H22.0731V113.927H25.7473V110.253Z" fill="#4C3B3C"/>
<path d="M33.0956 110.253H29.4215V113.927H33.0956V110.253Z" fill="#4C3B3C"/>
<path d="M44.1181 110.253H40.444V113.927H44.1181V110.253Z" fill="#4C3B3C"/>
<path d="M47.7923 110.253H44.1181V113.927H47.7923V110.253Z" fill="#4C3B3C"/>
<path d="M58.8148 110.253H55.1406V113.927H58.8148V110.253Z" fill="#4C3B3C"/>
<path d="M62.4889 110.253H58.8148V113.927H62.4889V110.253Z" fill="#4C3B3C"/>
<path d="M66.1631 110.253H62.4889V113.927H66.1631V110.253Z" fill="#4C3B3C"/>
<path d="M69.8373 110.253H66.1631V113.927H69.8373V110.253Z" fill="#4C3B3C"/>
<path d="M88.2081 110.253H84.5339V113.927H88.2081V110.253Z" fill="#4C3B3C"/>
<path d="M95.5564 110.253H91.8823V113.927H95.5564V110.253Z" fill="#4C3B3C"/>
<path d="M99.2306 110.253H95.5564V113.927H99.2306V110.253Z" fill="#4C3B3C"/>
<path d="M102.905 110.253H99.2306V113.927H102.905V110.253Z" fill="#4C3B3C"/>
<path d="M106.579 110.253H102.905V113.927H106.579V110.253Z" fill="#4C3B3C"/>
<path d="M110.253 110.253H106.579V113.927H110.253V110.253Z" fill="#4C3B3C"/>
<path d="M113.927 110.253H110.253V113.927H113.927V110.253Z" fill="#4C3B3C"/>
<path d="M117.601 110.253H113.927V113.927H117.601V110.253Z" fill="#4C3B3C"/>
<path d="M121.276 110.253H117.601V113.927H121.276V110.253Z" fill="#4C3B3C"/>
<path d="M124.95 110.253H121.276V113.927H124.95V110.253Z" fill="#4C3B3C"/>
<path d="M11.0506 113.927H7.37646V117.601H11.0506V113.927Z" fill="#4C3B3C"/>
<path d="M18.399 113.927H14.7248V117.601H18.399V113.927Z" fill="#4C3B3C"/>
<path d="M22.0731 113.927H18.399V117.601H22.0731V113.927Z" fill="#4C3B3C"/>
<path d="M25.7473 113.927H22.0731V117.601H25.7473V113.927Z" fill="#4C3B3C"/>
<path d="M33.0956 113.927H29.4215V117.601H33.0956V113.927Z" fill="#4C3B3C"/>
<path d="M40.444 113.927H36.7698V117.601H40.444V113.927Z" fill="#4C3B3C"/>
<path d="M55.1406 113.927H51.4665V117.601H55.1406V113.927Z" fill="#4C3B3C"/>
<path d="M58.8148 113.927H55.1406V117.601H58.8148V113.927Z" fill="#4C3B3C"/>
<path d="M62.4889 113.927H58.8148V117.601H62.4889V113.927Z" fill="#4C3B3C"/>
<path d="M66.1631 113.927H62.4889V117.601H66.1631V113.927Z" fill="#4C3B3C"/>
<path d="M73.5114 113.927H69.8373V117.601H73.5114V113.927Z" fill="#4C3B3C"/>
<path d="M77.1856 113.927H73.5114V117.601H77.1856V113.927Z" fill="#4C3B3C"/>
<path d="M84.5339 113.927H80.8598V117.601H84.5339V113.927Z" fill="#4C3B3C"/>
<path d="M102.905 113.927H99.2306V117.601H102.905V113.927Z" fill="#4C3B3C"/>
<path d="M128.624 113.927H124.95V117.601H128.624V113.927Z" fill="#4C3B3C"/>
<path d="M11.0506 117.601H7.37646V121.275H11.0506V117.601Z" fill="#4C3B3C"/>
<path d="M18.399 117.601H14.7248V121.275H18.399V117.601Z" fill="#4C3B3C"/>
<path d="M22.0731 117.601H18.399V121.275H22.0731V117.601Z" fill="#4C3B3C"/>
<path d="M25.7473 117.601H22.0731V121.275H25.7473V117.601Z" fill="#4C3B3C"/>
<path d="M33.0956 117.601H29.4215V121.275H33.0956V117.601Z" fill="#4C3B3C"/>
<path d="M47.7923 117.601H44.1181V121.275H47.7923V117.601Z" fill="#4C3B3C"/>
<path d="M51.4665 117.601H47.7923V121.275H51.4665V117.601Z" fill="#4C3B3C"/>
<path d="M73.5114 117.601H69.8373V121.275H73.5114V117.601Z" fill="#4C3B3C"/>
<path d="M80.8598 117.601H77.1856L77.1856 121.275H80.8598V117.601Z" fill="#4C3B3C"/>
<path d="M88.2081 117.601H84.5339V121.275H88.2081V117.601Z" fill="#4C3B3C"/>
<path d="M95.5564 117.601H91.8823V121.275H95.5564V117.601Z" fill="#4C3B3C"/>
<path d="M99.2306 117.601H95.5564V121.275H99.2306V117.601Z" fill="#4C3B3C"/>
<path d="M121.276 117.601H117.601V121.275H121.276V117.601Z" fill="#4C3B3C"/>
<path d="M124.95 117.601H121.276V121.275H124.95V117.601Z" fill="#4C3B3C"/>
<path d="M11.0506 121.275H7.37646V124.95H11.0506V121.275Z" fill="#4C3B3C"/>
<path d="M33.0956 121.275H29.4215V124.95H33.0956V121.275Z" fill="#4C3B3C"/>
<path d="M40.444 121.275H36.7698V124.95H40.444V121.275Z" fill="#4C3B3C"/>
<path d="M44.1181 121.275H40.444V124.95H44.1181V121.275Z" fill="#4C3B3C"/>
<path d="M51.4665 121.275H47.7923V124.95H51.4665V121.275Z" fill="#4C3B3C"/>
<path d="M58.8148 121.275H55.1406V124.95H58.8148V121.275Z" fill="#4C3B3C"/>
<path d="M62.4889 121.275H58.8148V124.95H62.4889V121.275Z" fill="#4C3B3C"/>
<path d="M66.1631 121.275H62.4889V124.95H66.1631V121.275Z" fill="#4C3B3C"/>
<path d="M69.8373 121.275H66.1631V124.95H69.8373V121.275Z" fill="#4C3B3C"/>
<path d="M77.1856 121.275H73.5114V124.95H77.1856L77.1856 121.275Z" fill="#4C3B3C"/>
<path d="M84.5339 121.275H80.8598V124.95H84.5339V121.275Z" fill="#4C3B3C"/>
<path d="M91.8823 121.275H88.2081V124.95H91.8823V121.275Z" fill="#4C3B3C"/>
<path d="M99.2306 121.275H95.5564V124.95H99.2306V121.275Z" fill="#4C3B3C"/>
<path d="M102.905 121.275H99.2306V124.95H102.905V121.275Z" fill="#4C3B3C"/>
<path d="M106.579 121.275H102.905V124.95H106.579V121.275Z" fill="#4C3B3C"/>
<path d="M11.0506 124.95H7.37646V128.624H11.0506V124.95Z" fill="#4C3B3C"/>
<path d="M14.7248 124.95H11.0506V128.624H14.7248V124.95Z" fill="#4C3B3C"/>
<path d="M18.399 124.95H14.7248V128.624H18.399V124.95Z" fill="#4C3B3C"/>
<path d="M22.0731 124.95H18.399V128.624H22.0731V124.95Z" fill="#4C3B3C"/>
<path d="M25.7473 124.95H22.0731V128.624H25.7473V124.95Z" fill="#4C3B3C"/>
<path d="M29.4215 124.95H25.7473V128.624H29.4215V124.95Z" fill="#4C3B3C"/>
<path d="M33.0956 124.95H29.4215V128.624H33.0956V124.95Z" fill="#4C3B3C"/>
<path d="M40.444 124.95H36.7698V128.624H40.444V124.95Z" fill="#4C3B3C"/>
<path d="M44.1181 124.95H40.444V128.624H44.1181V124.95Z" fill="#4C3B3C"/>
<path d="M62.4889 124.95H58.8148V128.624H62.4889V124.95Z" fill="#4C3B3C"/>
<path d="M66.1631 124.95H62.4889V128.624H66.1631V124.95Z" fill="#4C3B3C"/>
<path d="M77.1856 124.95H73.5114V128.624H77.1856V124.95Z" fill="#4C3B3C"/>
<path d="M80.8598 124.95H77.1856V128.624H80.8598V124.95Z" fill="#4C3B3C"/>
<path d="M88.2081 124.95H84.5339V128.624H88.2081V124.95Z" fill="#4C3B3C"/>
<path d="M99.2306 124.95H95.5564V128.624H99.2306V124.95Z" fill="#4C3B3C"/>
<path d="M106.579 124.95H102.905V128.624H106.579V124.95Z" fill="#4C3B3C"/>
<path d="M113.927 124.95H110.253V128.624H113.927V124.95Z" fill="#4C3B3C"/>
<path d="M117.601 124.95H113.927V128.624H117.601V124.95Z" fill="#4C3B3C"/>
<path d="M124.95 124.95H121.276V128.624H124.95V124.95Z" fill="#4C3B3C"/>
</g>
<defs>
<clipPath id="clip0_34_242">
<rect width="136" height="136" rx="5" fill="white"/>
</clipPath>
</defs>
</svg>
