<svg width="136" height="136" fill="none" xmlns="http://www.w3.org/2000/svg"><g clip-path="url(#clip0_34_242)"><path d="M136 0H0v136h136V0z" fill="#fff"/><path d="M11.05 7.376H7.377v3.674h3.675V7.376z" fill="#4C3B3C"/><path d="M14.725 7.376H11.05v3.674h3.674V7.376zm3.674 0h-3.674v3.674h3.674V7.376zm3.674 0H18.4v3.674h3.674V7.376z" fill="#4C3B3C"/><path d="M25.747 7.376h-3.674v3.674h3.674V7.376zm3.675 0h-3.675v3.674h3.675V7.376z" fill="#4C3B3C"/><path d="M33.096 7.376h-3.674v3.674h3.674V7.376zm7.348 0H36.77v3.674h3.674V7.376zm3.674 0h-3.674v3.674h3.674V7.376zm3.674 0h-3.674v3.674h3.674V7.376zm11.023 0H55.14v3.674h3.674V7.376zm3.674 0h-3.674v3.674h3.674V7.376zm3.674 0H62.49v3.674h3.674V7.376z" fill="#4C3B3C"/><path d="M69.837 7.376h-3.674v3.674h3.674V7.376z" fill="#4C3B3C"/><path d="M73.511 7.376h-3.674v3.674h3.674V7.376z" fill="#4C3B3C"/><path d="M77.186 7.376H73.51v3.674h3.675V7.376z" fill="#4C3B3C"/><path d="M80.86 7.376h-3.674v3.674h3.674V7.376zm3.674 0H80.86v3.674h3.674V7.376z" fill="#4C3B3C"/><path d="M88.208 7.376h-3.674v3.674h3.674V7.376zm11.022 0h-3.674v3.674h3.675V7.376zm7.349 0h-3.674v3.674h3.674V7.376zm3.674 0h-3.674v3.674h3.674V7.376zm3.674 0h-3.674v3.674h3.674V7.376z" fill="#4C3B3C"/><path d="M117.601 7.376h-3.674v3.674h3.674V7.376zm3.675 0h-3.675v3.674h3.675V7.376zm3.674 0h-3.674v3.674h3.674V7.376z" fill="#4C3B3C"/><path d="M128.624 7.376h-3.674v3.674h3.674V7.376zM11.05 11.05H7.377v3.675h3.675V11.05zm22.046 0h-3.674v3.675h3.674V11.05zm11.022 0h-3.674v3.675h3.674V11.05zm3.674 0h-3.674v3.675h3.674V11.05zm3.675 0h-3.675v3.675h3.675V11.05zm3.673 0h-3.673v3.675h3.674V11.05zm7.349 0h-3.674v3.675h3.674V11.05zm3.674 0H62.49v3.675h3.674V11.05zm7.348 0h-3.674v3.675h3.674V11.05zm7.349 0h-3.674v3.675h3.674V11.05zm7.348 0h-3.674v3.675h3.674V11.05zm7.348 0h-3.674v3.675h3.674V11.05zm11.023 0h-3.674v3.675h3.674V11.05zm22.045 0h-3.674v3.675h3.674V11.05z" fill="#4C3B3C"/><path d="M11.05 14.725H7.377v3.674h3.675v-3.674zm7.349 0h-3.674v3.674h3.674v-3.674zm3.674 0H18.4v3.674h3.674v-3.674z" fill="#4C3B3C"/><path d="M25.747 14.725h-3.674v3.674h3.674v-3.674zm7.349 0h-3.674v3.674h3.674v-3.674zm7.348 0H36.77v3.674h3.674v-3.674zm11.023 0h-3.675v3.674h3.675v-3.674zm7.348 0H55.14v3.674h3.674v-3.674zm14.696 0h-3.674v3.674h3.674v-3.674z" fill="#4C3B3C"/><path d="M77.186 14.725H73.51v3.674h3.675v-3.674zm7.348 0H80.86v3.674h3.674v-3.674z" fill="#4C3B3C"/><path d="M88.208 14.725h-3.674v3.674h3.674v-3.674zm3.674 0h-3.674v3.674h3.674v-3.674zm14.697 0h-3.674v3.674h3.674v-3.674zm7.348 0h-3.674v3.674h3.674v-3.674z" fill="#4C3B3C"/><path d="M117.601 14.725h-3.674v3.674h3.674v-3.674zm3.675 0h-3.675v3.674h3.675v-3.674zm7.348 0h-3.674v3.674h3.674v-3.674zM11.05 18.399H7.377v3.674h3.675v-3.674zm7.349 0h-3.674v3.674h3.674v-3.674zm3.674 0H18.4v3.674h3.674v-3.674z" fill="#4C3B3C"/><path d="M25.747 18.399h-3.674v3.674h3.674v-3.674zm7.349 0h-3.674v3.674h3.674v-3.674zm7.348 0H36.77v3.674h3.674v-3.674zm3.674 0h-3.674v3.674h3.674v-3.674zm7.349 0h-3.675v3.674h3.675v-3.674zm11.022 0h-3.674v3.674h3.674v-3.674zm3.674 0H62.49v3.674h3.674v-3.674z" fill="#4C3B3C"/><path d="M69.837 18.399h-3.674v3.674h3.674v-3.674z" fill="#4C3B3C"/><path d="M73.511 18.399h-3.674v3.674h3.674v-3.674zm11.023 0H80.86v3.674h3.674v-3.674zm7.348 0h-3.674v3.674h3.674v-3.674zm3.674 0h-3.674v3.674h3.674v-3.674zm3.674 0h-3.674v3.674h3.675v-3.674zm7.349 0h-3.674v3.674h3.674v-3.674zm7.348 0h-3.674v3.674h3.674v-3.674z" fill="#4C3B3C"/><path d="M117.601 18.399h-3.674v3.674h3.674v-3.674zm3.675 0h-3.675v3.674h3.675v-3.674zm7.348 0h-3.674v3.674h3.674v-3.674zM11.05 22.073H7.377v3.674h3.675v-3.674zm7.349 0h-3.674v3.674h3.674v-3.674zm3.674 0H18.4v3.674h3.674v-3.674z" fill="#4C3B3C"/><path d="M25.747 22.073h-3.674v3.674h3.674v-3.674zm7.349 0h-3.674v3.674h3.674v-3.674zm11.022 0h-3.674v3.674h3.674v-3.674zm11.022 0h-3.673v3.674h3.674v-3.674zm7.349 0h-3.674v3.674h3.674v-3.674zm7.348 0h-3.674v3.674h3.674v-3.674z" fill="#4C3B3C"/><path d="M73.511 22.073h-3.674v3.674h3.674v-3.674zm14.697 0h-3.674v3.674h3.674v-3.674zm3.674 0h-3.674v3.674h3.674v-3.674z" fill="#4C3B3C"/><path d="M95.556 22.073h-3.674v3.674h3.674v-3.674zm11.023 0h-3.674v3.674h3.674v-3.674zm7.348 0h-3.674v3.674h3.674v-3.674zm3.674 0h-3.674v3.674h3.674v-3.674zm3.675 0h-3.675v3.674h3.675v-3.674zm7.348 0h-3.674v3.674h3.674v-3.674zM11.05 25.747H7.377v3.674h3.675v-3.674zm22.046 0h-3.674v3.674h3.674v-3.674zm7.348 0H36.77v3.674h3.674v-3.674zm3.674 0h-3.674v3.674h3.674v-3.674zm3.674 0h-3.674v3.674h3.674v-3.674zm3.675 0h-3.675v3.674h3.675v-3.674zm14.696 0H62.49v3.674h3.674v-3.674z" fill="#4C3B3C"/><path d="M69.837 25.747h-3.674v3.674h3.674v-3.674z" fill="#4C3B3C"/><path d="M73.511 25.747h-3.674v3.674h3.674v-3.674z" fill="#4C3B3C"/><path d="M77.186 25.747H73.51v3.674h3.675v-3.674zm7.348 0H80.86v3.674h3.674v-3.674z" fill="#4C3B3C"/><path d="M88.208 25.747h-3.674v3.674h3.674v-3.674zm7.348 0h-3.674v3.674h3.674v-3.674zm11.023 0h-3.674v3.674h3.674v-3.674zm22.045 0h-3.674v3.674h3.674v-3.674zM11.05 29.421H7.377v3.674h3.675v-3.674z" fill="#4C3B3C"/><path d="M14.725 29.421H11.05v3.674h3.674v-3.674zm3.674 0h-3.674v3.674h3.674v-3.674zm3.674 0H18.4v3.674h3.674v-3.674z" fill="#4C3B3C"/><path d="M25.747 29.421h-3.674v3.674h3.674v-3.674zm3.675 0h-3.675v3.674h3.675v-3.674z" fill="#4C3B3C"/><path d="M33.096 29.421h-3.674v3.674h3.674v-3.674zm7.348 0H36.77v3.674h3.674v-3.674zm7.348 0h-3.674v3.674h3.674v-3.674zm7.348 0h-3.673v3.674h3.674v-3.674zm7.349 0h-3.674v3.674h3.674v-3.674zm7.348 0h-3.674v3.674h3.674v-3.674zm7.349 0H73.51v3.674h3.675v-3.674zm7.348 0H80.86v3.674h3.674v-3.674zm7.348 0h-3.674v3.674h3.674v-3.674zm7.348 0h-3.674v3.674h3.675v-3.674zm7.349 0h-3.674v3.674h3.674v-3.674zm3.674 0h-3.674v3.674h3.674v-3.674zm3.674 0h-3.674v3.674h3.674v-3.674z" fill="#4C3B3C"/><path d="M117.601 29.421h-3.674v3.674h3.674v-3.674zm3.675 0h-3.675v3.674h3.675v-3.674zm3.674 0h-3.674v3.674h3.674v-3.674z" fill="#4C3B3C"/><path d="M128.624 29.421h-3.674v3.674h3.674v-3.674zm-88.18 3.674H36.77v3.675h3.674v-3.675zm3.674 0h-3.674v3.675h3.674v-3.675zm7.349 0h-3.675v3.675h3.675v-3.675zm14.696 0H62.49v3.675h3.674v-3.675z" fill="#4C3B3C"/><path d="M69.837 33.095h-3.674v3.675h3.674v-3.675z" fill="#4C3B3C"/><path d="M73.511 33.095h-3.674v3.675h3.674v-3.675zm7.349 0h-3.674v3.675h3.674v-3.675zm3.674 0H80.86v3.675h3.674v-3.675z" fill="#4C3B3C"/><path d="M88.208 33.095h-3.674v3.675h3.674v-3.675zM11.05 36.77H7.377v3.674h3.675v-3.675z" fill="#4C3B3C"/><path d="M14.725 36.77H11.05v3.674h3.674v-3.675zm7.348 0H18.4v3.674h3.674v-3.675zm11.023 0h-3.674v3.674h3.674v-3.675zm3.674 0h-3.674v3.674h3.674v-3.675zm14.697 0h-3.675v3.674h3.675v-3.675zm7.348 0H55.14v3.674h3.674v-3.675zm3.674 0h-3.674v3.674h3.674v-3.675zm7.348 0h-3.674v3.674h3.674v-3.675z" fill="#4C3B3C"/><path d="M73.511 36.77h-3.674v3.674h3.674v-3.675zm11.023 0H80.86v3.674h3.674v-3.675z" fill="#4C3B3C"/><path d="M88.208 36.77h-3.674v3.674h3.674v-3.675zm11.022 0h-3.674v3.674h3.675v-3.675zm3.675 0h-3.674v3.674h3.674v-3.675z" fill="#4C3B3C"/><path d="M106.579 36.77h-3.674v3.674h3.674v-3.675zm3.674 0h-3.674v3.674h3.674v-3.675zm7.348 0h-3.674v3.674h3.674v-3.675zm3.675 0h-3.675v3.674h3.675v-3.675zm7.348 0h-3.674v3.674h3.674v-3.675zM11.05 40.444H7.377v3.674h3.675v-3.674z" fill="#4C3B3C"/><path d="M14.725 40.444H11.05v3.674h3.674v-3.674zm3.674 0h-3.674v3.674h3.674v-3.674zm11.023 0h-3.675v3.674h3.675v-3.674zm7.348 0h-3.674v3.674h3.674v-3.674zm7.348 0h-3.674v3.674h3.674v-3.674zm14.697 0H55.14v3.674h3.674v-3.674zm3.674 0h-3.674v3.674h3.674v-3.674zm18.371 0h-3.674v3.674h3.674v-3.674zm3.674 0H80.86v3.674h3.674v-3.674z" fill="#4C3B3C"/><path d="M88.208 40.444h-3.674v3.674h3.674v-3.674zm7.348 0h-3.674v3.674h3.674v-3.674zm3.674 0h-3.674v3.674h3.675v-3.674zm11.023 0h-3.674v3.674h3.674v-3.674zm3.674 0h-3.674v3.674h3.674v-3.674zm7.349 0h-3.675v3.674h3.675v-3.674zm7.348 0h-3.674v3.674h3.674v-3.674zM11.05 44.118H7.377v3.674h3.675v-3.674zm7.349 0h-3.674v3.674h3.674v-3.674zm3.674 0H18.4v3.674h3.674v-3.674zm7.349 0h-3.675v3.674h3.675v-3.674z" fill="#4C3B3C"/><path d="M33.096 44.118h-3.674v3.674h3.674v-3.674zm7.348 0H36.77v3.674h3.674v-3.674zm11.023 0h-3.675v3.674h3.675v-3.674zm7.348 0H55.14v3.674h3.674v-3.674zm3.674 0h-3.674v3.674h3.674v-3.674zm7.348 0h-3.674v3.674h3.674v-3.674z" fill="#4C3B3C"/><path d="M73.511 44.118h-3.674v3.674h3.674v-3.674zm7.349 0h-3.674v3.674h3.674v-3.674zm3.674 0H80.86v3.674h3.674v-3.674zm14.696 0h-3.674v3.674h3.675v-3.674zm3.675 0h-3.674v3.674h3.674v-3.674zm7.348 0h-3.674v3.674h3.674v-3.674zm7.348 0h-3.674v3.674h3.674v-3.674zm3.675 0h-3.675v3.674h3.675v-3.674zm3.674 0h-3.674v3.674h3.674v-3.674zM18.399 47.792h-3.674v3.674h3.674v-3.674zm11.023 0h-3.675v3.674h3.675v-3.674zm7.348 0h-3.674v3.674h3.674v-3.674zm7.348 0h-3.674v3.674h3.674v-3.674zm3.674 0h-3.674v3.674h3.674v-3.674zm3.675 0h-3.675v3.674h3.675v-3.674zm14.696 0H62.49v3.674h3.674v-3.674zm7.348 0h-3.674v3.674h3.674v-3.674zm14.697 0h-3.674v3.674h3.674v-3.674zm3.674 0h-3.674v3.674h3.674v-3.674z" fill="#4C3B3C"/><path d="M95.556 47.792h-3.674v3.674h3.674v-3.674zm3.674 0h-3.674v3.674h3.675v-3.674zm7.349 0h-3.674v3.674h3.674v-3.674zm7.348 0h-3.674v3.674h3.674v-3.674z" fill="#4C3B3C"/><path d="M117.601 47.792h-3.674v3.674h3.674v-3.674zm7.349 0h-3.674v3.674h3.674v-3.674zm-113.9 3.674H7.377v3.674h3.675v-3.674zm7.349 0h-3.674v3.674h3.674v-3.674zm3.674 0H18.4v3.674h3.674v-3.674zm11.023 0h-3.674v3.674h3.674v-3.674zm7.348 0H36.77v3.674h3.674v-3.674zm3.674 0h-3.674v3.674h3.674v-3.674zm3.674 0h-3.674v3.674h3.674v-3.674zm3.675 0h-3.675v3.674h3.675v-3.674zm3.673 0h-3.673v3.674h3.674v-3.674zm11.023 0H62.49v3.674h3.674v-3.674z" fill="#4C3B3C"/><path d="M69.837 51.466h-3.674v3.674h3.674v-3.674zm7.349 0H73.51v3.674h3.675v-3.674zm14.696 0h-3.674v3.674h3.674v-3.674zm18.371 0h-3.674v3.674h3.674v-3.674zm3.674 0h-3.674v3.674h3.674v-3.674z" fill="#4C3B3C"/><path d="M117.601 51.466h-3.674v3.674h3.674v-3.674zm3.675 0h-3.675v3.674h3.675v-3.674zM18.399 55.14h-3.674v3.675h3.674V55.14zm11.023 0h-3.675v3.675h3.675V55.14zm7.348 0h-3.674v3.675h3.674V55.14zm3.674 0H36.77v3.675h3.674V55.14zm3.674 0h-3.674v3.675h3.674V55.14zm3.674 0h-3.674v3.675h3.674V55.14zm14.697 0h-3.674v3.675h3.674V55.14zm3.674 0H62.49v3.675h3.674V55.14zm7.348 0h-3.674v3.675h3.674V55.14z" fill="#4C3B3C"/><path d="M77.186 55.14H73.51v3.675h3.675V55.14z" fill="#4C3B3C"/><path d="M80.86 55.14h-3.674v3.675h3.674V55.14zm3.674 0H80.86v3.675h3.674V55.14zm7.348 0h-3.674v3.675h3.674V55.14zm7.348 0h-3.674v3.675h3.675V55.14zm3.675 0h-3.674v3.675h3.674V55.14z" fill="#4C3B3C"/><path d="M106.579 55.14h-3.674v3.675h3.674V55.14zm3.674 0h-3.674v3.675h3.674V55.14zm7.348 0h-3.674v3.675h3.674V55.14zm3.675 0h-3.675v3.675h3.675V55.14zm3.674 0h-3.674v3.675h3.674V55.14zM14.725 58.815H11.05v3.674h3.674v-3.674zm11.022 0h-3.674v3.674h3.674v-3.674zm3.675 0h-3.675v3.674h3.675v-3.674z" fill="#4C3B3C"/><path d="M33.096 58.815h-3.674v3.674h3.674v-3.674zm3.674 0h-3.674v3.674h3.674v-3.674zm3.674 0H36.77v3.674h3.674v-3.674zm3.674 0h-3.674v3.674h3.674v-3.674zm11.022 0h-3.673v3.674h3.674v-3.674z" fill="#4C3B3C"/><path d="M58.815 58.815H55.14v3.674h3.674v-3.674zm14.696 0h-3.674v3.674h3.674v-3.674zm14.697 0h-3.674v3.674h3.674v-3.674zm11.022 0h-3.674v3.674h3.675v-3.674zm3.675 0h-3.674v3.674h3.674v-3.674zm7.348 0h-3.674v3.674h3.674v-3.674zM11.05 62.489H7.377v3.674h3.675v-3.674z" fill="#4C3B3C"/><path d="M14.725 62.489H11.05v3.674h3.674v-3.674zm7.348 0H18.4v3.674h3.674v-3.674zm7.349 0h-3.675v3.674h3.675v-3.674zm14.696 0h-3.674v3.674h3.674v-3.674zm3.674 0h-3.674v3.674h3.674v-3.674zm7.348 0h-3.673v3.674h3.674v-3.674zm7.349 0h-3.674v3.674h3.674v-3.674zm3.674 0H62.49v3.674h3.674v-3.674z" fill="#4C3B3C"/><path d="M69.837 62.489h-3.674v3.674h3.674v-3.674z" fill="#4C3B3C"/><path d="M73.511 62.489h-3.674v3.674h3.674v-3.674z" fill="#4C3B3C"/><path d="M77.186 62.489H73.51v3.674h3.675v-3.674z" fill="#4C3B3C"/><path d="M80.86 62.489h-3.674v3.674h3.674v-3.674zm3.674 0H80.86v3.674h3.674v-3.674z" fill="#4C3B3C"/><path d="M88.208 62.489h-3.674v3.674h3.674v-3.674zm3.674 0h-3.674v3.674h3.674v-3.674zm7.348 0h-3.674v3.674h3.675v-3.674zm7.349 0h-3.674v3.674h3.674v-3.674zm3.674 0h-3.674v3.674h3.674v-3.674zm18.371 0h-3.674v3.674h3.674v-3.674zM14.725 66.163H11.05v3.674h3.674v-3.674zm3.674 0h-3.674v3.674h3.674v-3.674zm3.674 0H18.4v3.674h3.674v-3.674zm7.349 0h-3.675v3.674h3.675v-3.674z" fill="#4C3B3C"/><path d="M33.096 66.163h-3.674v3.674h3.674v-3.674zm11.022 0h-3.674v3.674h3.674v-3.674zm7.349 0h-3.675v3.674h3.675v-3.674zm3.673 0h-3.673v3.674h3.674v-3.674z" fill="#4C3B3C"/><path d="M58.815 66.163H55.14v3.674h3.674v-3.674zm7.348 0H62.49v3.674h3.674v-3.674zm7.348 0h-3.674v3.674h3.674v-3.674z" fill="#4C3B3C"/><path d="M77.186 66.163H73.51v3.674h3.675v-3.674z" fill="#4C3B3C"/><path d="M80.86 66.163h-3.674v3.674h3.674v-3.674zm14.696 0h-3.674v3.674h3.674v-3.674zm18.371 0h-3.674v3.674h3.674v-3.674zM11.05 69.837H7.377v3.674h3.675v-3.674z" fill="#4C3B3C"/><path d="M14.725 69.837H11.05v3.674h3.674v-3.674zm3.674 0h-3.674v3.674h3.674v-3.674zm7.348 0h-3.674v3.674h3.674v-3.674zm14.697 0H36.77v3.674h3.674v-3.674zm7.348 0h-3.674v3.674h3.674v-3.674zm3.675 0h-3.675v3.674h3.675v-3.674zm11.022 0h-3.674v3.674h3.674v-3.674zm3.674 0H62.49v3.674h3.674v-3.674z" fill="#4C3B3C"/><path d="M69.837 69.837h-3.674v3.674h3.674v-3.674z" fill="#4C3B3C"/><path d="M73.511 69.837h-3.674v3.674h3.674v-3.674z" fill="#4C3B3C"/><path d="M77.186 69.837H73.51v3.674h3.675v-3.674zm14.696 0h-3.674v3.674h3.674v-3.674z" fill="#4C3B3C"/><path d="M95.556 69.837h-3.674v3.674h3.674v-3.674zm3.674 0h-3.674v3.674h3.675v-3.674zm3.675 0h-3.674v3.674h3.674v-3.674zm7.348 0h-3.674v3.674h3.674v-3.674zm3.674 0h-3.674v3.674h3.674v-3.674zm-99.202 3.674H11.05v3.674h3.674v-3.674zm11.022 0h-3.674v3.674h3.674v-3.674zm7.349 0h-3.674v3.674h3.674v-3.674zm22.044 0h-3.673v3.674h3.674v-3.674z" fill="#4C3B3C"/><path d="M58.815 73.511H55.14v3.674h3.674v-3.674zm7.348 0H62.49v3.674h3.674v-3.674z" fill="#4C3B3C"/><path d="M69.837 73.511h-3.674v3.674h3.674v-3.674z" fill="#4C3B3C"/><path d="M73.511 73.511h-3.674v3.674h3.674v-3.674z" fill="#4C3B3C"/><path d="M77.186 73.511H73.51v3.674h3.675v-3.674z" fill="#4C3B3C"/><path d="M80.86 73.511h-3.674v3.674h3.674v-3.674zm3.674 0H80.86v3.674h3.674v-3.674zm14.696 0h-3.674v3.674h3.675v-3.674zm3.675 0h-3.674v3.674h3.674v-3.674zm7.348 0h-3.674v3.674h3.674v-3.674zm7.348 0h-3.674v3.674h3.674v-3.674zm3.675 0h-3.675v3.674h3.675v-3.674zm7.348 0h-3.674v3.674h3.674v-3.674zM14.725 77.185H11.05v3.674h3.674v-3.674zm3.674 0h-3.674v3.674h3.674v-3.674zm22.045 0H36.77v3.674h3.674v-3.674zm7.348 0h-3.674v3.674h3.674v-3.674zm3.675 0h-3.675v3.674h3.675v-3.674zm22.044 0h-3.674v3.674h3.674v-3.674z" fill="#4C3B3C"/><path d="M77.186 77.185H73.51v3.674h3.675v-3.674zm7.348 0H80.86v3.674h3.674v-3.674zm7.348 0h-3.674v3.674h3.674v-3.674z" fill="#4C3B3C"/><path d="M95.556 77.185h-3.674v3.674h3.674v-3.674zm22.045 0h-3.674v3.674h3.674v-3.674zm3.675 0h-3.675v3.674h3.675v-3.674zm7.348 0h-3.674v3.674h3.674v-3.674zM11.05 80.86H7.377v3.674h3.675v-3.675zm11.023 0H18.4v3.674h3.674v-3.675z" fill="#4C3B3C"/><path d="M25.747 80.86h-3.674v3.674h3.674v-3.675zm7.349 0h-3.674v3.674h3.674v-3.675zm3.674 0h-3.674v3.674h3.674v-3.675zm18.37 0h-3.673v3.674h3.674v-3.675zm7.349 0h-3.674v3.674h3.674v-3.675zm3.674 0H62.49v3.674h3.674v-3.675zm7.348 0h-3.674v3.674h3.674v-3.675zm7.349 0h-3.674v3.674h3.674v-3.675zm3.674 0H80.86v3.674h3.674v-3.675zm7.348 0h-3.674v3.674h3.674v-3.675zm11.023 0h-3.674v3.674h3.674v-3.675z" fill="#4C3B3C"/><path d="M106.579 80.86h-3.674v3.674h3.674v-3.675zm11.022 0h-3.674v3.674h3.674v-3.675zm7.349 0h-3.674v3.674h3.674v-3.675z" fill="#4C3B3C"/><path d="M128.624 80.86h-3.674v3.674h3.674v-3.675zM14.725 84.534H11.05v3.674h3.674v-3.674zm3.674 0h-3.674v3.674h3.674v-3.674zm3.674 0H18.4v3.674h3.674v-3.674zm14.697 0h-3.674v3.674h3.674v-3.674zm7.348 0h-3.674v3.674h3.674v-3.674zm7.349 0h-3.675v3.674h3.675v-3.674zm3.673 0h-3.673v3.674h3.674v-3.674zm7.349 0h-3.674v3.674h3.674v-3.674zm11.022 0h-3.674v3.674h3.674v-3.674zm7.349 0h-3.674v3.674h3.674v-3.674zm7.348 0h-3.674v3.674h3.674v-3.674zm7.348 0h-3.674v3.674h3.674v-3.674zm18.371 0h-3.674v3.674h3.674v-3.674zm7.349 0h-3.675v3.674h3.675v-3.674zm3.674 0h-3.674v3.674h3.674v-3.674z" fill="#4C3B3C"/><path d="M11.05 88.208H7.377v3.674h3.675v-3.674zm11.023 0H18.4v3.674h3.674v-3.674z" fill="#4C3B3C"/><path d="M25.747 88.208h-3.674v3.674h3.674v-3.674zm3.675 0h-3.675v3.674h3.675v-3.674z" fill="#4C3B3C"/><path d="M33.096 88.208h-3.674v3.674h3.674v-3.674zm3.674 0h-3.674v3.674h3.674v-3.674zm3.674 0H36.77v3.674h3.674v-3.674zm11.023 0h-3.675v3.674h3.675v-3.674zm7.348 0H55.14v3.674h3.674v-3.674zm3.674 0h-3.674v3.674h3.674v-3.674zm7.348 0h-3.674v3.674h3.674v-3.674zm18.371 0h-3.674v3.674h3.674v-3.674zm7.348 0h-3.674v3.674h3.674v-3.674zm7.349 0h-3.674v3.674h3.674v-3.674z" fill="#4C3B3C"/><path d="M106.579 88.208h-3.674v3.674h3.674v-3.674zm11.022 0h-3.674v3.674h3.674v-3.674zm3.675 0h-3.675v3.674h3.675v-3.674zm3.674 0h-3.674v3.674h3.674v-3.674zM22.073 91.882H18.4v3.674h3.674v-3.674zm7.349 0h-3.675v3.674h3.675v-3.674zm14.696 0h-3.674v3.674h3.674v-3.674zm14.697 0H55.14v3.674h3.674v-3.674zm3.674 0h-3.674v3.674h3.674v-3.674zm7.348 0h-3.674v3.674h3.674v-3.674zm7.349 0H73.51v3.674h3.675v-3.674z" fill="#4C3B3C"/><path d="M80.86 91.882h-3.674v3.674h3.674v-3.674zm7.348 0h-3.674v3.674h3.674v-3.674zm3.674 0h-3.674v3.674h3.674v-3.674zm14.697 0h-3.674v3.674h3.674v-3.674zm-84.506 3.674H18.4v3.674h3.674v-3.674zm11.023 0h-3.674v3.674h3.674v-3.674zm7.348 0H36.77v3.674h3.674v-3.674zm3.674 0h-3.674v3.674h3.674v-3.674zm11.022 0h-3.673v3.674h3.674v-3.674z" fill="#4C3B3C"/><path d="M58.815 95.556H55.14v3.674h3.674v-3.674zm7.348 0H62.49v3.674h3.674v-3.674z" fill="#4C3B3C"/><path d="M69.837 95.556h-3.674v3.674h3.674v-3.674z" fill="#4C3B3C"/><path d="M73.511 95.556h-3.674v3.674h3.674v-3.674z" fill="#4C3B3C"/><path d="M77.186 95.556H73.51v3.674h3.675v-3.674z" fill="#4C3B3C"/><path d="M80.86 95.556h-3.674v3.674h3.674v-3.674zm7.348 0h-3.674v3.674h3.674v-3.674zm11.022 0h-3.674v3.674h3.675v-3.674zm3.675 0h-3.674v3.674h3.674v-3.674z" fill="#4C3B3C"/><path d="M106.579 95.556h-3.674v3.674h3.674v-3.674zm3.674 0h-3.674v3.674h3.674v-3.674zm3.674 0h-3.674v3.674h3.674v-3.674zm7.349 0h-3.675v3.674h3.675v-3.674zm3.674 0h-3.674v3.674h3.674v-3.674z" fill="#4C3B3C"/><path d="M128.624 95.556h-3.674v3.674h3.674v-3.674zM44.118 99.23h-3.674v3.675h3.674V99.23zm7.349 0h-3.675v3.675h3.675V99.23zm7.348 0H55.14v3.675h3.674V99.23zm3.674 0h-3.674v3.675h3.674V99.23zm25.719 0h-3.674v3.675h3.674V99.23zm3.674 0h-3.674v3.675h3.674V99.23zm7.348 0h-3.674v3.675h3.675V99.23zm14.697 0h-3.674v3.675h3.674V99.23zm7.349 0h-3.675v3.675h3.675V99.23zm7.348 0h-3.674v3.675h3.674V99.23zM11.05 102.905H7.377v3.674h3.675v-3.674z" fill="#4C3B3C"/><path d="M14.725 102.905H11.05v3.674h3.674v-3.674zm3.674 0h-3.674v3.674h3.674v-3.674zm3.674 0H18.4v3.674h3.674v-3.674z" fill="#4C3B3C"/><path d="M25.747 102.905h-3.674v3.674h3.674v-3.674zm3.675 0h-3.675v3.674h3.675v-3.674z" fill="#4C3B3C"/><path d="M33.096 102.905h-3.674v3.674h3.674v-3.674zm7.348 0H36.77v3.674h3.674v-3.674zm7.348 0h-3.674v3.674h3.674v-3.674zm7.348 0h-3.673v3.674h3.674v-3.674zm18.371 0h-3.674v3.674h3.674v-3.674z" fill="#4C3B3C"/><path d="M77.186 102.905H73.51v3.674h3.675v-3.674zm7.348 0H80.86v3.674h3.674v-3.674zm14.696 0h-3.674v3.674h3.675v-3.674zm7.349 0h-3.674v3.674h3.674v-3.674zm7.348 0h-3.674v3.674h3.674v-3.674z" fill="#4C3B3C"/><path d="M117.601 102.905h-3.674v3.674h3.674v-3.674zm7.349 0h-3.674v3.674h3.674v-3.674zm-113.9 3.674H7.377v3.674h3.675v-3.674zm22.046 0h-3.674v3.674h3.674v-3.674zm18.371 0h-3.675v3.674h3.675v-3.674zm7.348 0H55.14v3.674h3.674v-3.674zm7.348 0H62.49v3.674h3.674v-3.674z" fill="#4C3B3C"/><path d="M69.837 106.579h-3.674v3.674h3.674v-3.674zm7.349 0H73.51v3.674h3.675v-3.674zm7.348 0H80.86v3.674h3.674v-3.674z" fill="#4C3B3C"/><path d="M88.208 106.579h-3.674v3.674h3.674v-3.674zm11.022 0h-3.674v3.674h3.675v-3.674zm14.697 0h-3.674v3.674h3.674v-3.674z" fill="#4C3B3C"/><path d="M117.601 106.579h-3.674v3.674h3.674v-3.674zM11.05 110.253H7.377v3.674h3.675v-3.674zm7.349 0h-3.674v3.674h3.674v-3.674zm3.674 0H18.4v3.674h3.674v-3.674z" fill="#4C3B3C"/><path d="M25.747 110.253h-3.674v3.674h3.674v-3.674zm7.349 0h-3.674v3.674h3.674v-3.674zm11.022 0h-3.674v3.674h3.674v-3.674zm3.674 0h-3.674v3.674h3.674v-3.674zm11.023 0H55.14v3.674h3.674v-3.674zm3.674 0h-3.674v3.674h3.674v-3.674zm3.674 0H62.49v3.674h3.674v-3.674z" fill="#4C3B3C"/><path d="M69.837 110.253h-3.674v3.674h3.674v-3.674zm18.371 0h-3.674v3.674h3.674v-3.674zm7.348 0h-3.674v3.674h3.674v-3.674zm3.674 0h-3.674v3.674h3.675v-3.674zm3.675 0h-3.674v3.674h3.674v-3.674z" fill="#4C3B3C"/><path d="M106.579 110.253h-3.674v3.674h3.674v-3.674zm3.674 0h-3.674v3.674h3.674v-3.674zm3.674 0h-3.674v3.674h3.674v-3.674z" fill="#4C3B3C"/><path d="M117.601 110.253h-3.674v3.674h3.674v-3.674zm3.675 0h-3.675v3.674h3.675v-3.674zm3.674 0h-3.674v3.674h3.674v-3.674zm-113.9 3.674H7.377v3.674h3.675v-3.674zm7.349 0h-3.674v3.674h3.674v-3.674zm3.674 0H18.4v3.674h3.674v-3.674z" fill="#4C3B3C"/><path d="M25.747 113.927h-3.674v3.674h3.674v-3.674zm7.349 0h-3.674v3.674h3.674v-3.674zm7.348 0H36.77v3.674h3.674v-3.674zm14.696 0h-3.673v3.674h3.674v-3.674z" fill="#4C3B3C"/><path d="M58.815 113.927H55.14v3.674h3.674v-3.674zm3.674 0h-3.674v3.674h3.674v-3.674zm3.674 0H62.49v3.674h3.674v-3.674zm7.348 0h-3.674v3.674h3.674v-3.674z" fill="#4C3B3C"/><path d="M77.186 113.927H73.51v3.674h3.675v-3.674zm7.348 0H80.86v3.674h3.674v-3.674zm18.371 0h-3.674v3.674h3.674v-3.674zm25.719 0h-3.674v3.674h3.674v-3.674zM11.05 117.601H7.377v3.674h3.675v-3.674zm7.349 0h-3.674v3.674h3.674v-3.674zm3.674 0H18.4v3.674h3.674v-3.674z" fill="#4C3B3C"/><path d="M25.747 117.601h-3.674v3.674h3.674v-3.674zm7.349 0h-3.674v3.674h3.674v-3.674zm14.696 0h-3.674v3.674h3.674v-3.674zm3.675 0h-3.675v3.674h3.675v-3.674zm22.044 0h-3.674v3.674h3.674v-3.674zm7.349 0h-3.674v3.674h3.674v-3.674zm7.348 0h-3.674v3.674h3.674v-3.674zm7.348 0h-3.674v3.674h3.674v-3.674zm3.674 0h-3.674v3.674h3.675v-3.674zm22.046 0h-3.675v3.674h3.675v-3.674zm3.674 0h-3.674v3.674h3.674v-3.674zm-113.9 3.674H7.377v3.675h3.675v-3.675zm22.046 0h-3.674v3.675h3.674v-3.675zm7.348 0H36.77v3.675h3.674v-3.675zm3.674 0h-3.674v3.675h3.674v-3.675zm7.349 0h-3.675v3.675h3.675v-3.675zm7.348 0H55.14v3.675h3.674v-3.675zm3.674 0h-3.674v3.675h3.674v-3.675zm3.674 0H62.49v3.675h3.674v-3.675z" fill="#4C3B3C"/><path d="M69.837 121.275h-3.674v3.675h3.674v-3.675zm7.349 0H73.51v3.675h3.675v-3.675zm7.348 0H80.86v3.675h3.674v-3.675zm7.348 0h-3.674v3.675h3.674v-3.675zm7.348 0h-3.674v3.675h3.675v-3.675zm3.675 0h-3.674v3.675h3.674v-3.675z" fill="#4C3B3C"/><path d="M106.579 121.275h-3.674v3.675h3.674v-3.675zM11.05 124.95H7.377v3.674h3.675v-3.674z" fill="#4C3B3C"/><path d="M14.725 124.95H11.05v3.674h3.674v-3.674zm3.674 0h-3.674v3.674h3.674v-3.674zm3.674 0H18.4v3.674h3.674v-3.674z" fill="#4C3B3C"/><path d="M25.747 124.95h-3.674v3.674h3.674v-3.674zm3.675 0h-3.675v3.674h3.675v-3.674z" fill="#4C3B3C"/><path d="M33.096 124.95h-3.674v3.674h3.674v-3.674zm7.348 0H36.77v3.674h3.674v-3.674zm3.674 0h-3.674v3.674h3.674v-3.674zm18.371 0h-3.674v3.674h3.674v-3.674zm3.674 0H62.49v3.674h3.674v-3.674zm11.023 0H73.51v3.674h3.675v-3.674zm3.674 0h-3.674v3.674h3.674v-3.674zm7.348 0h-3.674v3.674h3.674v-3.674zm11.022 0h-3.674v3.674h3.675v-3.674zm7.349 0h-3.674v3.674h3.674v-3.674zm7.348 0h-3.674v3.674h3.674v-3.674z" fill="#4C3B3C"/><path d="M117.601 124.95h-3.674v3.674h3.674v-3.674zm7.349 0h-3.674v3.674h3.674v-3.674z" fill="#4C3B3C"/></g><defs><clipPath id="clip0_34_242"><rect width="136" height="136" rx="5" fill="#fff"/></clipPath></defs></svg>