<svg width="32" height="32" viewBox="0 0 32 32" fill="none" xmlns="http://www.w3.org/2000/svg">
<path d="M25.3337 5.33333V28L22.227 26.6667L19.1203 28L16.0003 26.6667L12.8937 28L9.78699 26.6667L6.66699 28V5.33333C6.66699 4.97971 6.80747 4.64057 7.05752 4.39052C7.30757 4.14048 7.6467 4 8.00033 4H24.0003C24.3539 4 24.6931 4.14048 24.9431 4.39052C25.1932 4.64057 25.3337 4.97971 25.3337 5.33333Z" stroke="#4C3B3C" stroke-width="2" stroke-linecap="round" stroke-linejoin="round"/>
<path d="M13.862 21.126C13.574 21.126 13.346 21.042 13.178 20.874C13.01 20.706 12.926 20.466 12.926 20.154V18.408H11.9C11.672 18.408 11.492 18.354 11.36 18.246C11.24 18.126 11.18 17.964 11.18 17.76C11.18 17.544 11.24 17.382 11.36 17.274C11.492 17.154 11.672 17.094 11.9 17.094H12.926V15.636H11.9C11.672 15.636 11.492 15.582 11.36 15.474C11.24 15.354 11.18 15.186 11.18 14.97C11.18 14.766 11.24 14.61 11.36 14.502C11.492 14.382 11.672 14.322 11.9 14.322H12.926V9.246C12.926 8.946 13.004 8.718 13.16 8.562C13.328 8.394 13.562 8.31 13.862 8.31H17.138C18.05 8.31 18.824 8.466 19.46 8.778C20.096 9.078 20.576 9.504 20.9 10.056C21.224 10.608 21.386 11.268 21.386 12.036C21.386 12.768 21.218 13.404 20.882 13.944C20.546 14.472 20.072 14.886 19.46 15.186C18.848 15.486 18.116 15.636 17.264 15.636H14.816V17.094H17.264C17.492 17.094 17.666 17.154 17.786 17.274C17.918 17.382 17.984 17.544 17.984 17.76C17.984 17.964 17.918 18.126 17.786 18.246C17.666 18.354 17.492 18.408 17.264 18.408H14.816V20.154C14.816 20.466 14.732 20.706 14.564 20.874C14.408 21.042 14.174 21.126 13.862 21.126ZM14.78 14.322H16.958C17.81 14.322 18.458 14.148 18.902 13.8C19.358 13.44 19.586 12.888 19.586 12.144C19.586 11.388 19.364 10.824 18.92 10.452C18.476 10.08 17.816 9.894 16.94 9.894H14.78V14.322Z" fill="#4C3B3C"/>
</svg>
